<?xml version="1.0" standalone="no"?>
<!DOCTYPE svg PUBLIC "-//W3C//DTD SVG 1.1//EN" "http://www.w3.org/Graphics/SVG/1.1/DTD/svg11.dtd" >
<svg xmlns="http://www.w3.org/2000/svg" xmlns:xlink="http://www.w3.org/1999/xlink" version="1.1">
<metadata>
Created by FontForge 20161003 at Tue Nov 28 15:02:17 2017
 By www-data
Copyright 1989, 1995 Adobe Systems Incorporated. Copyright 2007 Linotype GmbH. All rights reserved.
</metadata>
<defs>
<font id="VAGRoundedBold" horiz-adv-x="1139" >
  <font-face 
    font-family="VAGRoundedBold"
    font-weight="700"
    font-stretch="normal"
    units-per-em="2048"
    panose-1="2 11 8 3 0 0 0 0 0 4"
    ascent="1638"
    descent="-410"
    x-height="1090"
    cap-height="1458"
    bbox="-309 -635 2304 2013"
    underline-thickness="102"
    underline-position="-307"
    unicode-range="U+0020-FB02"
  />
<missing-glyph horiz-adv-x="2048" 
d="M256 0v1536h1536v-1536h-1536zM384 128h1280v1280h-1280v-1280z" />
    <glyph glyph-name=".notdef" horiz-adv-x="2048" 
d="M256 0v1536h1536v-1536h-1536zM384 128h1280v1280h-1280v-1280z" />
    <glyph glyph-name=".null" horiz-adv-x="0" 
 />
    <glyph glyph-name="nonmarkingreturn" horiz-adv-x="549" 
 />
    <glyph glyph-name="space" unicode=" " horiz-adv-x="549" 
 />
    <glyph glyph-name="exclam" unicode="!" horiz-adv-x="684" 
d="M195 555v788q0 63 41 101.5t106 38.5q63 0 105 -39.5t42 -100.5v-788q0 -61 -42 -100t-105 -39q-65 0 -106 38.5t-41 100.5zM502 135q0 -66 -47 -113t-113 -47t-113 47t-47 113t47 113t113 47t113 -47t47 -113z" />
    <glyph glyph-name="quotedbl" unicode="&#x22;" horiz-adv-x="909" 
d="M518 1012v348q0 56 33.5 89.5t89.5 33.5t89.5 -33.5t33.5 -89.5v-348q0 -56 -33.5 -89.5t-89.5 -33.5t-89.5 33.5t-33.5 89.5zM145 1012v348q0 56 33.5 89.5t89.5 33.5t89.5 -33.5t33.5 -89.5v-348q0 -56 -33 -89.5t-90 -33.5q-56 0 -89.5 33.5t-33.5 89.5z" />
    <glyph glyph-name="numbersign" unicode="#" horiz-adv-x="1229" 
d="M303 612l33 234h-176q-46 0 -72.5 28t-26.5 70t26.5 70t72.5 28h205l46 336q6 46 28.5 69t72.5 23q39 0 66.5 -23t27.5 -58q0 -20 -45 -347h197l46 336q6 46 28.5 69t72.5 23q39 0 66.5 -23t27.5 -58q0 -20 -45 -347h176q46 0 72.5 -28t26.5 -70t-26.5 -70t-72.5 -28
h-204l-33 -234h176q46 0 72 -28t26 -70t-26 -70t-72 -28h-205l-46 -336q-6 -46 -28.5 -69t-72.5 -23q-39 0 -66.5 23.5t-27.5 58.5q0 19 45 346h-197l-46 -336q-6 -46 -28.5 -69t-72.5 -23q-39 0 -67 23.5t-28 58.5q0 19 45 346h-176q-45 0 -71.5 28t-26.5 70t26.5 70
t71.5 28h205zM535 846l-33 -234h194l33 234h-194z" />
    <glyph glyph-name="dollar" unicode="$" horiz-adv-x="1100" 
d="M485 272v342q-160 48 -239.5 82.5t-140 112t-60.5 209.5q0 182 120 309t320 152v63q0 52 9 74t47 22q37 0 46 -22t9 -74v-63q155 -8 256.5 -62t101.5 -139q0 -63 -38.5 -107.5t-98.5 -44.5q-37 0 -106 25q-72 26 -115 31v-273q274 -73 369.5 -183t95.5 -275
q0 -190 -127.5 -320t-337.5 -149v-66q0 -63 -14.5 -79.5t-40.5 -16.5t-41 16.5t-15 79.5v64q-206 6 -326 65t-120 160q0 62 38.5 103.5t98.5 41.5q45 0 145 -35q109 -38 164 -43zM485 946v234q-108 -31 -108 -125q0 -69 108 -109zM596 580v-299q64 15 98.5 60t34.5 105
q0 89 -133 134z" />
    <glyph glyph-name="percent" unicode="%" horiz-adv-x="1479" 
d="M305 152l678 1278q20 38 39 51.5t55 13.5q48 0 84.5 -34t36.5 -81q0 -30 -16 -61l-688 -1288q-33 -46 -52 -57t-41 -11q-41 0 -78.5 34.5t-37.5 78.5q0 37 20 76zM694 1151q0 -136 -90 -233t-225 -97q-133 0 -224.5 97t-91.5 233t91.5 234t224.5 98t224 -98t91 -234z
M272 1151q0 -52 29.5 -86.5t77.5 -34.5t77 34.5t29 86.5t-29.5 87.5t-76.5 35.5q-48 0 -77.5 -35.5t-29.5 -87.5zM1415 305q0 -136 -91 -233t-224 -97t-224.5 97t-91.5 233q0 137 91.5 234.5t224.5 97.5t224 -97.5t91 -234.5zM993 305q0 -52 29.5 -86.5t77.5 -34.5t77 34.5
t29 86.5q0 53 -29.5 88t-76.5 35q-48 0 -77.5 -35t-29.5 -88z" />
    <glyph glyph-name="ampersand" unicode="&#x26;" horiz-adv-x="1442" 
d="M811 803l215 -238q114 132 147.5 159.5t88.5 27.5q46 0 79 -37t33 -92q0 -35 -26.5 -84.5t-137.5 -165.5q149 -169 167 -192t18 -68q0 -53 -43.5 -95.5t-100.5 -42.5q-35 0 -59.5 11t-46.5 34l-144 150q-217 -195 -450 -195q-220 0 -361 120.5t-141 322.5q0 271 309 444
q-135 132 -135 277q0 157 124.5 250.5t305.5 93.5q165 0 291.5 -89t126.5 -233q0 -105 -69 -200t-191 -158zM639 971q149 75 149 159q0 63 -42 91t-93 28q-44 0 -83.5 -30t-39.5 -72q0 -45 24.5 -81.5t84.5 -94.5zM817 365l-297 329q-176 -110 -176 -248q0 -93 58 -146.5
t155 -53.5q139 0 260 119z" />
    <glyph glyph-name="quotesingle" unicode="'" horiz-adv-x="492" 
d="M123 1012v348q0 56 33 89.5t90 33.5q56 0 89.5 -33.5t33.5 -89.5v-348q0 -56 -33.5 -89.5t-89.5 -33.5t-89.5 33.5t-33.5 89.5z" />
    <glyph glyph-name="parenleft" unicode="(" horiz-adv-x="494" 
d="M80 584q0 146 36 371t83 345t78.5 151.5t74.5 31.5q54 0 92.5 -34t38.5 -85q0 -9 -39 -135q-106 -320 -106 -645q0 -336 94 -607q51 -133 51 -161q0 -58 -36.5 -94.5t-94.5 -36.5q-46 0 -86.5 47t-85.5 188t-72.5 333.5t-27.5 330.5z" />
    <glyph glyph-name="parenright" unicode=")" horiz-adv-x="494" 
d="M414 584q0 -146 -36 -371t-83.5 -345.5t-79 -151.5t-74.5 -31q-53 0 -92 33.5t-39 84.5q0 9 39 136q107 319 107 645q0 335 -95 606q-51 133 -51 162q0 58 36.5 94.5t94.5 36.5q46 0 86.5 -47.5t86 -188.5t73 -333t27.5 -330z" />
    <glyph glyph-name="asterisk" unicode="*" horiz-adv-x="797" 
d="M309 1247q-1 17 -8 58q-8 52 -8 71q0 48 29.5 71t74.5 23q48 0 76.5 -24.5t28.5 -69.5q0 -19 -9 -71q-6 -41 -8 -58q117 84 146 84q44 0 75 -36t31 -83q0 -43 -164 -127q164 -78 164 -124q0 -47 -31.5 -84t-74.5 -37q-26 0 -146 86q2 -17 8 -58q9 -52 9 -71
q0 -46 -28.5 -70.5t-76.5 -24.5t-76 24.5t-28 70.5q0 19 8 71q7 41 8 58q-124 -86 -147 -86q-44 0 -73.5 36t-29.5 85q0 44 162 124q-162 86 -162 127q0 49 29 84t74 35q26 0 147 -84z" />
    <glyph glyph-name="plus" unicode="+" horiz-adv-x="1229" 
d="M492 641v297q0 56 33 89.5t89 33.5t89.5 -33.5t33.5 -89.5v-297h297q56 0 89.5 -33.5t33.5 -89.5t-33.5 -89.5t-89.5 -33.5h-297v-297q0 -55 -33.5 -89t-89.5 -34t-89 34t-33 89v297h-297q-57 0 -90 33.5t-33 89.5t33 89.5t90 33.5h297z" />
    <glyph glyph-name="comma" unicode="," horiz-adv-x="549" 
d="M434 184q0 -35 -38 -103l-102 -182q-64 -114 -78 -130.5t-44 -29.5t-53 -13q-56 0 -97.5 40t-41.5 95q0 40 29 91l94 170q64 119 79.5 141t49 39t61.5 17q56 0 98.5 -40t42.5 -95z" />
    <glyph glyph-name="hyphen" unicode="-" horiz-adv-x="797" 
d="M180 723h436q54 0 85.5 -36.5t31.5 -94.5q0 -56 -31.5 -91.5t-85.5 -35.5h-436q-53 0 -85 35.5t-32 91.5q0 58 32 94.5t85 36.5z" />
    <glyph glyph-name="period" unicode="." horiz-adv-x="549" 
d="M274 -25q-65 0 -112 47t-47 113t47 113t112 47q66 0 113 -47t47 -113t-47 -113t-113 -47z" />
    <glyph glyph-name="slash" unicode="/" horiz-adv-x="834" 
d="M35 145l547 1262q31 76 114 76q51 0 86 -33t35 -80q0 -15 -18 -57l-545 -1262q-34 -76 -115 -76q-51 0 -87 33t-36 80q0 15 19 57z" />
    <glyph glyph-name="zero" unicode="0" horiz-adv-x="1176" 
d="M1130 729q0 -329 -141 -541.5t-401 -212.5t-401.5 212.5t-141.5 541.5t141.5 541.5t401.5 212.5t401 -212.5t141 -541.5zM365 729q0 -475 223 -475t223 475t-223 475t-223 -475z" />
    <glyph glyph-name="one" unicode="1" horiz-adv-x="758" 
d="M311 147v1029h-121q-65 0 -102 40t-37 101q0 58 39 99.5t100 41.5h291q63 0 100 -40.5t37 -104.5v-1166q0 -73 -42 -116t-111 -43t-111.5 43t-42.5 116z" />
    <glyph glyph-name="two" unicode="2" horiz-adv-x="1176" 
d="M549 270h375q74 0 116.5 -35t42.5 -100q0 -67 -42 -101t-105 -34h-684q-75 0 -117.5 35t-42.5 100q0 47 37.5 93.5t176.5 202.5q163 183 255 300t126 182.5t34 128.5q0 65 -43 111.5t-105 46.5q-55 0 -98 -30.5t-79 -146.5q-32 -103 -65.5 -129t-76.5 -26
q-69 0 -109.5 42.5t-40.5 107.5q0 191 145 328t337 137q195 0 324.5 -119t129.5 -307q0 -118 -65.5 -240t-183.5 -263z" />
    <glyph glyph-name="three" unicode="3" horiz-adv-x="1176" 
d="M823 795q118 -55 184 -153.5t66 -213.5q0 -185 -150.5 -319t-365.5 -134q-207 0 -349 124.5t-142 260.5q0 58 49.5 98t107.5 40q28 0 54.5 -16t66.5 -82q56 -92 108 -117t109 -25q80 0 136.5 55t56.5 136q0 69 -25.5 105.5t-62.5 49.5t-98 22q-109 16 -135.5 52.5
t-26.5 87.5q0 47 23.5 82.5t118.5 60.5q99 26 123.5 64.5t24.5 89.5q0 60 -40.5 98.5t-106.5 38.5q-46 0 -89 -19.5t-94 -93.5q-41 -59 -68 -73.5t-56 -14.5q-59 0 -96 45t-37 107q0 120 139 226t307 106q196 0 316 -116t120 -259q0 -205 -168 -313z" />
    <glyph glyph-name="four" unicode="4" horiz-adv-x="1176" 
d="M670 322h-494q-66 0 -104.5 36t-38.5 84q0 39 28 90l459 832q36 65 84.5 92t124.5 27q104 0 170 -69t66 -193v-629h34q62 0 103 -38t41 -97q0 -60 -41 -97.5t-103 -37.5h-34v-175q0 -82 -35 -120.5t-113 -38.5q-77 0 -112 38t-35 121v175zM670 592v571h-4l-277 -571h281z
" />
    <glyph glyph-name="five" unicode="5" horiz-adv-x="1176" 
d="M512 1176l-31 -218q96 21 154 21q181 0 302.5 -126.5t121.5 -309.5q0 -265 -143 -416.5t-400 -151.5q-144 0 -297 79.5t-153 195.5q0 56 41 97.5t98 41.5q36 0 118 -53q122 -78 199 -78q97 0 157 79.5t60 188.5q0 96 -52 151.5t-144 55.5q-62 0 -130 -35
q-61 -32 -112 -32q-53 0 -87 31.5t-34 64.5q0 18 29.5 267t35.5 288.5t24.5 76t48.5 50.5t79 14h494q68 0 108.5 -36t40.5 -93q0 -76 -39.5 -114.5t-103.5 -38.5h-385z" />
    <glyph glyph-name="six" unicode="6" horiz-adv-x="1176" 
d="M545 918q56 24 129 24q178 0 303 -136.5t125 -322.5q0 -205 -146.5 -356.5t-367.5 -151.5q-226 0 -370 147.5t-144 360.5q0 129 66 286t167.5 307t201.5 257.5t138 128.5t74 21q45 0 95 -48.5t50 -101.5q0 -27 -27.5 -64t-132.5 -153q-130 -142 -165 -194zM782 483
q0 91 -53 152t-141 61q-86 0 -140.5 -60t-54.5 -153q0 -91 54 -152t141 -61q85 0 139.5 61t54.5 152z" />
    <glyph glyph-name="seven" unicode="7" horiz-adv-x="1102" 
d="M195 205l512 971h-525q-72 0 -111.5 39t-39.5 102q0 60 36.5 100.5t114.5 40.5h742q67 0 107 -47t40 -100q0 -40 -47 -135l-508 -1033q-48 -95 -77.5 -125t-94.5 -30q-75 0 -122.5 46t-47.5 99q0 33 21 72z" />
    <glyph glyph-name="eight" unicode="8" horiz-adv-x="1176" 
d="M874 797q220 -113 220 -355q0 -208 -147 -337.5t-359 -129.5q-215 0 -360.5 133t-145.5 334q0 233 219 355q-156 112 -156 293q0 172 126.5 282.5t316.5 110.5q187 0 315.5 -110.5t128.5 -282.5q0 -87 -41.5 -166t-116.5 -127zM737 1057q0 69 -40.5 112t-108.5 43
t-108 -42.5t-40 -112.5q0 -71 39.5 -113.5t108.5 -42.5t109 42.5t40 113.5zM774 463q0 96 -50.5 150.5t-135.5 54.5t-136 -57.5t-51 -147.5q0 -88 50.5 -146.5t136.5 -58.5q81 0 133.5 60t52.5 145z" />
    <glyph glyph-name="nine" unicode="9" horiz-adv-x="1176" 
d="M631 541q-56 -25 -129 -25q-179 0 -303.5 136.5t-124.5 322.5q0 205 146 356.5t368 151.5q225 0 369.5 -147t144.5 -361q0 -129 -66.5 -286t-168 -306.5t-201 -257.5t-138 -129t-73.5 -21q-45 0 -95.5 49t-50.5 101q0 27 28 64.5t133 152.5q129 142 165 195zM393 975
q0 -91 53 -152t142 -61q85 0 139.5 60.5t54.5 152.5q0 91 -53.5 152t-140.5 61q-85 0 -140 -61t-55 -152z" />
    <glyph glyph-name="colon" unicode=":" horiz-adv-x="549" 
d="M274 633q-65 0 -112 47t-47 113t46.5 112.5t112.5 46.5t113 -47t47 -112q0 -66 -47 -113t-113 -47zM274 -25q-65 0 -112 47t-47 113t47 113t112 47q66 0 113 -47t47 -113t-47 -113t-113 -47z" />
    <glyph glyph-name="semicolon" unicode=";" horiz-adv-x="549" 
d="M274 633q-65 0 -112 47t-47 113t46.5 112.5t112.5 46.5t113 -47t47 -112q0 -66 -47 -113t-113 -47zM-20 -139q0 40 29 91l94 170q64 119 79.5 141t49 39t61.5 17q56 0 98.5 -40t42.5 -95q0 -35 -38 -103l-102 -182q-64 -114 -78 -130.5t-44 -29.5t-53 -13q-56 0 -97.5 40
t-41.5 95z" />
    <glyph glyph-name="less" unicode="&#x3c;" horiz-adv-x="1229" 
d="M401 518l682 -285q74 -31 74 -104q0 -59 -28 -94t-70 -35q-40 0 -103 29l-809 372q-75 36 -75 117q0 82 75 117l809 371q69 30 103 30q42 0 70 -34.5t28 -94.5q0 -73 -74 -104z" />
    <glyph glyph-name="equal" unicode="=" horiz-adv-x="1229" 
d="M195 870h839q56 0 89.5 -33.5t33.5 -88.5q0 -56 -33.5 -89.5t-89.5 -33.5h-839q-57 0 -90 33.5t-33 89.5q0 55 33 88.5t90 33.5zM195 412h839q56 0 89.5 -33.5t33.5 -89.5t-33.5 -89.5t-89.5 -33.5h-839q-57 0 -90 33.5t-33 89.5t33 89.5t90 33.5z" />
    <glyph glyph-name="greater" unicode="&#x3e;" horiz-adv-x="1229" 
d="M145 233l682 285l-682 285q-73 31 -73 104q0 60 28 94.5t70 34.5q35 0 102 -30l809 -371q76 -36 76 -117q0 -82 -76 -117l-809 -372q-64 -29 -102 -29q-42 0 -70 35t-28 94q0 74 73 104z" />
    <glyph glyph-name="question" unicode="?" horiz-adv-x="985" 
d="M301 557v205q0 31 31 56t135 52q98 27 131 69.5t33 104.5q0 65 -51.5 110.5t-118.5 45.5q-42 0 -84 -19.5t-105 -92.5q-53 -60 -82.5 -75.5t-58.5 -15.5q-56 0 -90.5 40.5t-34.5 107.5q0 93 65.5 170t176 122.5t213.5 45.5q209 0 349 -122t140 -317q0 -321 -354 -413v-74
q0 -61 -41.5 -101t-105.5 -40q-68 0 -108 39t-40 102zM608 135q0 -66 -47 -113t-112 -47q-66 0 -113 47t-47 113t46.5 113t113.5 47q65 0 112 -47t47 -113z" />
    <glyph glyph-name="at" unicode="@" horiz-adv-x="1638" 
d="M1026 997v25q0 98 115 98q41 0 67.5 -15.5t26.5 -41.5q0 -28 -6 -56l-84 -382q-8 -33 -8 -68q0 -43 47 -43q63 0 134 85t71 226q0 212 -168.5 342.5t-401.5 130.5q-235 0 -402 -167t-167 -402t167 -402t402 -167q151 0 277.5 36.5t202.5 98.5q60 49 83 49q76 0 76 -76
q0 -93 -170.5 -193t-468.5 -100q-310 0 -531.5 222t-221.5 532t221.5 532t531.5 222q299 0 526.5 -193t227.5 -465q0 -158 -87 -276t-223.5 -180t-215.5 -62q-142 0 -142 101h-4q-86 -101 -215 -101q-124 0 -213.5 109t-89.5 248q0 186 113.5 321t285.5 135q161 0 240 -123
h4zM592 692q0 -73 39 -124.5t104 -51.5q87 0 146 66t59 155q0 74 -43 124t-113 50q-76 0 -134 -69t-58 -150z" />
    <glyph glyph-name="A" unicode="A" horiz-adv-x="1290" 
d="M18 199l412 1114q28 76 87 123t132 47q75 0 132.5 -44.5t86.5 -125.5l402 -1114q16 -44 16 -76q0 -58 -41.5 -96.5t-99.5 -38.5t-95.5 27t-55.5 82l-60 190h-569q-64 -196 -73.5 -222t-44.5 -51.5t-91 -25.5q-63 0 -107.5 41.5t-44.5 101.5q0 29 14 68zM647 1163
l-194 -594h389l-191 594h-4z" />
    <glyph glyph-name="B" unicode="B" horiz-adv-x="1176" 
d="M92 156v1149q0 72 45 112.5t117 40.5h393q164 0 274.5 -101.5t110.5 -258.5q0 -214 -190 -301v-4q138 -22 224.5 -121.5t86.5 -227.5q0 -208 -127.5 -326t-347.5 -118h-422q-72 0 -118 43t-46 113zM399 1188v-307h160q77 0 121.5 43t44.5 118q0 67 -46.5 106.5
t-119.5 39.5h-160zM399 610v-340h242q87 0 140 48t53 131q0 74 -56.5 117.5t-161.5 43.5h-217z" />
    <glyph glyph-name="C" unicode="C" horiz-adv-x="1251" 
d="M739 -25q-305 0 -504.5 216t-199.5 538q0 323 197 538.5t507 215.5q174 0 307.5 -60.5t133.5 -169.5q0 -57 -36.5 -97t-90.5 -40q-35 0 -100 27q-112 45 -214 45q-176 0 -280.5 -130.5t-104.5 -334.5q0 -198 105 -325.5t280 -127.5q102 0 222 55q69 31 104 31
q59 0 97 -46t38 -93q0 -116 -137 -179t-324 -63z" />
    <glyph glyph-name="D" unicode="D" horiz-adv-x="1366" 
d="M92 154v1146q0 71 44 114.5t114 43.5h340q336 0 528.5 -201t192.5 -548q0 -321 -192 -515t-509 -194h-356q-68 0 -115 40t-47 114zM399 1176v-893h207q183 0 284 119t101 321q0 215 -104.5 334t-300.5 119h-187z" />
    <glyph glyph-name="E" unicode="E" horiz-adv-x="948" 
d="M92 154v1126q0 83 42 130.5t118 47.5h508q67 0 106 -40.5t39 -100.5q0 -59 -39.5 -100t-105.5 -41h-361v-299h336q69 0 109.5 -41t40.5 -101q0 -58 -41 -99.5t-109 -41.5h-336v-311h379q67 0 106.5 -40.5t39.5 -101.5q0 -58 -40 -99.5t-106 -41.5h-528q-69 0 -113.5 43
t-44.5 111z" />
    <glyph glyph-name="F" unicode="F" horiz-adv-x="909" 
d="M92 147v1151q0 68 44 114t116 46h524q62 0 99.5 -41t37.5 -100t-37 -100t-100 -41h-377v-299h318q67 0 107 -40.5t40 -99.5q0 -60 -40 -101.5t-107 -41.5h-318v-447q0 -74 -42.5 -116.5t-110.5 -42.5q-69 0 -111.5 43t-42.5 116z" />
    <glyph glyph-name="G" unicode="G" horiz-adv-x="1442" 
d="M879 864h348q93 0 136.5 -47t43.5 -149q0 -304 -184.5 -498.5t-483.5 -194.5q-305 0 -504.5 216t-199.5 538q0 323 197 538.5t507 215.5q229 0 396.5 -90.5t167.5 -198.5q0 -64 -36 -103.5t-91 -39.5q-59 0 -143 56q-66 45 -128 69t-166 24q-176 0 -280.5 -133
t-104.5 -338q0 -208 103.5 -339.5t281.5 -131.5q148 0 248 85.5t100 238.5h-208q-63 0 -103.5 40t-40.5 103q0 62 41.5 100.5t102.5 38.5z" />
    <glyph glyph-name="H" unicode="H" horiz-adv-x="1442" 
d="M92 147v1164q0 73 42.5 116t111.5 43t111 -43t42 -116v-434h643v434q0 73 42.5 116t111.5 43t111.5 -43t42.5 -116v-1164q0 -73 -42.5 -116t-111.5 -43t-111.5 43t-42.5 116v447h-643v-447q0 -74 -42.5 -116.5t-110.5 -42.5q-69 0 -111.5 43t-42.5 116z" />
    <glyph glyph-name="I" unicode="I" horiz-adv-x="492" 
d="M92 147v1164q0 73 42.5 116t111.5 43t111 -43t42 -116v-1164q0 -74 -42.5 -116.5t-110.5 -42.5q-69 0 -111.5 43t-42.5 116z" />
    <glyph glyph-name="J" unicode="J" horiz-adv-x="834" 
d="M754 1311v-901q0 -162 -59.5 -258.5t-150.5 -136.5t-196 -40q-150 0 -263.5 62t-113.5 172q0 45 33.5 85t81.5 40q40 0 116 -36q82 -40 130 -40q53 0 83.5 34.5t30.5 137.5v881q0 73 42.5 116t111.5 43t111.5 -43t42.5 -116z" />
    <glyph glyph-name="K" unicode="K" horiz-adv-x="1251" 
d="M92 135v1184q0 64 43 107.5t111 43.5t110.5 -41.5t42.5 -109.5v-442l504 536q53 57 119 57q61 0 106.5 -42t45.5 -105t-74 -137l-414 -408q482 -502 520.5 -546t38.5 -103q0 -66 -44.5 -103.5t-115.5 -37.5q-35 0 -68 18.5t-87 77.5l-531 573v-522q0 -61 -43 -104
t-110 -43q-68 0 -111 40.5t-43 106.5z" />
    <glyph glyph-name="L" unicode="L" horiz-adv-x="872" 
d="M92 168v1143q0 73 42.5 116t111.5 43t111 -43t42 -116v-1028h365q68 0 108 -41t40 -98q0 -62 -42.5 -103t-105.5 -41h-512q-74 0 -117 45t-43 123z" />
    <glyph glyph-name="M" unicode="M" horiz-adv-x="1782" 
d="M51 170l191 1143q10 61 67.5 109t132.5 48q72 0 130 -44t75 -103l242 -811h4l242 811q18 60 75.5 103.5t128.5 43.5q75 0 133 -48t68 -109l191 -1143q2 -12 2 -35q0 -65 -42 -106t-106 -41q-74 0 -111 33t-49 110l-120 834h-5l-245 -859q-35 -118 -164 -118
q-130 0 -164 118l-246 859h-4l-121 -834q-11 -78 -48.5 -110.5t-110.5 -32.5q-64 0 -106 41t-42 106q0 23 2 35z" />
    <glyph glyph-name="N" unicode="N" horiz-adv-x="1403" 
d="M80 147v1164q0 73 42.5 116t110.5 43q29 0 68.5 -19.5t60.5 -47.5l650 -866h4v774q0 73 42.5 116t110.5 43q69 0 111.5 -43t42.5 -116v-1164q0 -73 -42.5 -116t-111.5 -43q-30 0 -69.5 20.5t-59.5 46.5l-649 856h-4v-764q0 -73 -42.5 -116t-111.5 -43q-68 0 -110.5 43
t-42.5 116z" />
    <glyph glyph-name="O" unicode="O" horiz-adv-x="1479" 
d="M1444 729q0 -324 -199 -539t-506 -215q-305 0 -504.5 216t-199.5 538q0 323 197 538.5t507 215.5q302 0 503.5 -218.5t201.5 -535.5zM354 729q0 -208 103.5 -339.5t281.5 -131.5q179 0 282 131.5t103 339.5q0 205 -104 338t-281 133q-176 0 -280.5 -133t-104.5 -338z" />
    <glyph glyph-name="P" unicode="P" 
d="M92 147v1151q0 74 42.5 117t117.5 43h362q229 0 377 -137t148 -352q0 -219 -148 -352.5t-364 -133.5h-228v-336q0 -74 -42.5 -116.5t-110.5 -42.5q-69 0 -111.5 43t-42.5 116zM399 1188v-434h209q94 0 152.5 61t58.5 156q0 94 -58 155.5t-153 61.5h-209z" />
    <glyph glyph-name="Q" unicode="Q" horiz-adv-x="1479" 
d="M1307 256q154 -129 171 -160t17 -65q0 -53 -44 -91t-97 -38q-32 0 -64.5 14.5t-189.5 149.5q-158 -91 -361 -91q-305 0 -504.5 216t-199.5 538q0 323 197 538.5t507 215.5q302 0 503.5 -218.5t201.5 -535.5q0 -275 -137 -473zM870 272q-91 86 -101.5 109.5t-10.5 44.5
q0 62 39.5 104.5t99.5 42.5q31 0 49 -9t129 -97q49 110 49 262q0 203 -104.5 337t-280.5 134t-280.5 -133t-104.5 -338q0 -208 103.5 -339.5t281.5 -131.5q60 0 131 14z" />
    <glyph glyph-name="R" unicode="R" 
d="M92 147v1151q0 76 41.5 118t116.5 42h360q251 0 380.5 -117t129.5 -346q0 -152 -100.5 -255t-278.5 -132l231 -246q124 -133 134 -146.5t17 -32.5t7 -38q0 -62 -44.5 -109.5t-108.5 -47.5q-76 0 -127 62l-447 542h-4v-445q0 -74 -42.5 -116.5t-110.5 -42.5
q-69 0 -111.5 43t-42.5 116zM399 1176v-363h211q87 0 139 49.5t52 132.5q0 85 -51.5 133t-139.5 48h-211z" />
    <glyph glyph-name="S" unicode="S" horiz-adv-x="1100" 
d="M45 1018q0 204 146.5 334.5t361.5 130.5q147 0 274 -54.5t127 -150.5q0 -63 -38.5 -107.5t-98.5 -44.5q-38 0 -110 27q-95 35 -162 35q-72 0 -120 -36.5t-48 -96.5q0 -40 36.5 -71.5t191.5 -76.5q139 -41 230.5 -83.5t158.5 -133t67 -239.5q0 -209 -151 -342.5
t-373 -133.5q-208 0 -353 59.5t-145 170.5q0 62 38.5 103.5t98.5 41.5q44 0 145 -35q127 -45 199 -45q97 0 153 49t56 127q0 49 -42 87t-215 87q-134 38 -219 75.5t-146.5 115.5t-61.5 207z" />
    <glyph glyph-name="T" unicode="T" horiz-adv-x="983" 
d="M338 147v1029h-223q-66 0 -103 40t-37 101q0 58 39 99.5t101 41.5h753q62 0 101 -41.5t39 -99.5q0 -61 -37 -101t-103 -40h-223v-1029q0 -73 -42.5 -116t-110.5 -43q-69 0 -111.5 43t-42.5 116z" />
    <glyph glyph-name="U" unicode="U" horiz-adv-x="1403" 
d="M80 580v731q0 73 42.5 116t110.5 43q69 0 111.5 -43t42.5 -116v-715q0 -147 87.5 -242.5t227.5 -95.5q135 0 224.5 99t89.5 239v715q0 73 42.5 116t110.5 43q69 0 111.5 -43t42.5 -116v-731q0 -256 -182 -430.5t-439 -174.5q-259 0 -440.5 174.5t-181.5 430.5z" />
    <glyph glyph-name="V" unicode="V" horiz-adv-x="1212" 
d="M455 106l-449 1141q-14 38 -14 76q0 63 47 105t111 42q54 0 90.5 -34t48.5 -66l317 -852l318 852q48 100 139 100q64 0 111 -42.5t47 -104.5q0 -39 -15 -76l-448 -1141q-28 -69 -64 -93.5t-88 -24.5q-55 0 -90.5 27t-60.5 91z" />
    <glyph glyph-name="W" unicode="W" horiz-adv-x="1860" 
d="M285 147l-260 1119q-9 35 -9 69q0 53 40.5 94t105.5 41q134 0 164 -147l174 -870h4l266 897q17 55 60 87.5t100 32.5t100.5 -33t59.5 -87l266 -897h4l174 870q30 147 164 147q63 0 104 -40.5t41 -94.5q0 -34 -8 -69l-260 -1119q-17 -72 -71 -115.5t-132 -43.5
q-71 0 -126.5 41t-76.5 108l-237 791h-4l-238 -791q-19 -65 -75 -107t-128 -42q-79 0 -132.5 44t-69.5 115z" />
    <glyph glyph-name="X" unicode="X" horiz-adv-x="1253" 
d="M627 522l-337 -468q-24 -34 -55.5 -50t-70.5 -16q-69 0 -112.5 40t-43.5 103q0 62 43 117l398 532l-215 291q-122 166 -129 176t-14 31t-7 43q0 66 44 107.5t112 41.5q79 0 144 -92l243 -344l252 359q27 38 63.5 57.5t71.5 19.5q67 0 111 -41.5t44 -107.5q0 -23 -7.5 -45
t-55.5 -87l-301 -409l260 -349q147 -198 155 -210t16.5 -37.5t8.5 -52.5q0 -63 -43.5 -103t-111.5 -40q-79 0 -127 66z" />
    <glyph glyph-name="Y" unicode="Y" horiz-adv-x="1098" 
d="M395 137v547l-247 348q-142 199 -149 210.5t-13 33.5t-6 45q0 62 41.5 105.5t105.5 43.5q85 0 132 -68l290 -421l294 427q22 31 55 46.5t73 15.5q63 0 105 -43.5t42 -105.5q0 -17 -3.5 -33.5t-10 -31.5t-62.5 -95l-340 -477v-547q0 -66 -40.5 -107.5t-112.5 -41.5
q-73 0 -113.5 41.5t-40.5 107.5z" />
    <glyph glyph-name="Z" unicode="Z" horiz-adv-x="1214" 
d="M428 270h594q67 0 107 -36t40 -99q0 -56 -45 -95.5t-102 -39.5h-805q-79 0 -125.5 40.5t-46.5 106.5q0 62 41 119l659 922h-538q-64 0 -104 35.5t-40 95.5q0 58 42.5 98.5t101.5 40.5h749q80 0 126 -42.5t46 -104.5q0 -69 -45 -131z" />
    <glyph glyph-name="bracketleft" unicode="[" horiz-adv-x="569" 
d="M90 -168v1503q0 68 41 108t109 40h204q109 0 109 -117t-109 -117h-96v-1331h96q109 0 109 -117q0 -116 -109 -116h-204q-68 0 -109 40t-41 107z" />
    <glyph glyph-name="backslash" unicode="\" horiz-adv-x="834" 
d="M252 1407l547 -1262q18 -43 18 -57q0 -47 -36 -80t-87 -33q-79 0 -112 76l-549 1262q-17 38 -17 57q0 47 35.5 80t85.5 33q82 0 115 -76z" />
    <glyph glyph-name="bracketright" unicode="]" horiz-adv-x="569" 
d="M479 1335v-1503q0 -67 -40.5 -107t-108.5 -40h-205q-109 0 -109 116q0 117 109 117h96v1331h-96q-109 0 -109 117t109 117h205q68 0 108.5 -40.5t40.5 -107.5z" />
    <glyph glyph-name="asciicircum" unicode="^" horiz-adv-x="1229" 
d="M614 1163l-162 -299q-94 -174 -101 -183.5t-21.5 -18.5t-32.5 -13t-43 -4q-47 0 -75.5 22t-28.5 60q0 35 28 85l167 305q140 255 156 286.5t45.5 49t67.5 17.5q31 0 58.5 -12.5t45.5 -39.5l337 -614q24 -46 24 -77q0 -38 -28.5 -60t-75.5 -22q-80 0 -105 45z" />
    <glyph glyph-name="underscore" unicode="_" horiz-adv-x="1024" 
d="M1024 -256h-1024q-59 0 -59 51t59 51h1024q59 0 59 -51t-59 -51z" />
    <glyph glyph-name="grave" unicode="`" horiz-adv-x="455" 
d="M86 1583q27 0 120 -38l164 -66q71 -29 90 -54.5t19 -50.5q0 -57 -32.5 -103t-75.5 -46q-30 0 -64 13l-228 90q-61 23 -82.5 52.5t-21.5 75.5q0 45 34 86t77 41z" />
    <glyph glyph-name="a" unicode="a" horiz-adv-x="1176" 
d="M1092 909v-729q0 -55 -7.5 -94t-38.5 -68.5t-96 -29.5q-111 0 -141 125q-115 -138 -281 -138q-208 0 -347.5 161t-139.5 407q0 241 142 406t345 165q182 0 281 -135q7 55 48 89t93 34q65 0 103.5 -37.5t38.5 -155.5zM569 844q-107 0 -170 -88t-63 -213
q0 -124 63.5 -210.5t169.5 -86.5q103 0 165.5 87t62.5 210q0 124 -62 212.5t-166 88.5z" />
    <glyph glyph-name="b" unicode="b" horiz-adv-x="1176" 
d="M84 152v1261q0 73 41.5 118.5t105.5 45.5q65 0 106.5 -45.5t41.5 -118.5v-401q119 102 280 102q215 0 345.5 -170t130.5 -414q0 -223 -138.5 -389t-347.5 -166q-81 0 -155.5 36t-114.5 100q-29 -123 -148 -123q-64 0 -105.5 45.5t-41.5 118.5zM610 844q-106 0 -168.5 -84
t-62.5 -207q0 -128 62.5 -217.5t168.5 -89.5q103 0 166.5 88.5t63.5 208.5q0 121 -63.5 211t-166.5 90z" />
    <glyph glyph-name="c" unicode="c" horiz-adv-x="948" 
d="M569 1114q136 0 248.5 -49.5t112.5 -136.5q0 -52 -33 -97t-80 -45q-34 0 -102 26q-81 32 -131 32q-114 0 -181 -86t-67 -215q0 -121 69 -209t179 -88q43 0 146 39q59 22 73 22q51 0 89 -38.5t38 -90.5q0 -92 -118 -147.5t-243 -55.5q-229 0 -378.5 164.5t-149.5 403.5
q0 233 152.5 402t375.5 169z" />
    <glyph glyph-name="d" unicode="d" horiz-adv-x="1176" 
d="M1092 1413v-1261q0 -74 -41.5 -119t-106.5 -45q-118 0 -147 123q-40 -64 -115 -100t-156 -36q-208 0 -346.5 166t-138.5 389q0 244 130 414t345 170q161 0 281 -102v401q0 73 41 118.5t106 45.5t106.5 -45.5t41.5 -118.5zM565 246q107 0 169.5 89.5t62.5 217.5
q0 123 -63 207t-169 84q-102 0 -165.5 -90t-63.5 -211q0 -120 63.5 -208.5t165.5 -88.5z" />
    <glyph glyph-name="e" unicode="e" horiz-adv-x="1100" 
d="M950 446h-628q15 -102 91 -157.5t187 -55.5q88 0 221 74q80 45 113 45q47 0 84 -39.5t37 -87.5q0 -90 -155 -170t-327 -80q-244 0 -398.5 160t-154.5 408q0 233 152.5 402t376.5 169q222 0 376 -167.5t154 -368.5q0 -132 -129 -132zM315 643h469q-14 106 -77 165.5
t-158 59.5q-91 0 -156 -61.5t-78 -163.5z" />
    <glyph glyph-name="f" unicode="f" horiz-adv-x="606" 
d="M152 152v679h-66q-60 0 -94.5 35t-34.5 95q0 55 37 92t92 37h66v151q0 159 85 247.5t224 88.5q205 0 205 -133q0 -125 -121 -125q-49 0 -74 -18t-25 -91v-120h93q149 0 149 -129q0 -130 -149 -130h-93v-679q0 -73 -41 -118.5t-106 -45.5t-106 45.5t-41 118.5z" />
    <glyph glyph-name="g" unicode="g" horiz-adv-x="1176" 
d="M1092 938v-852q0 -259 -154 -395.5t-414 -136.5q-148 0 -306.5 61t-158.5 160q0 42 38.5 85.5t80.5 43.5q40 0 131 -36q140 -56 238 -56q112 0 181 63t69 170v70h-4q-96 -140 -297 -140q-211 0 -333 159.5t-122 406.5q0 236 137.5 404.5t347.5 168.5q81 0 156 -35.5
t115 -99.5q29 123 147 123q65 0 106.5 -45.5t41.5 -118.5zM565 246q106 0 169 83.5t63 207.5q0 128 -62.5 217.5t-169.5 89.5q-102 0 -165.5 -89t-63.5 -208q0 -131 62 -216t167 -85z" />
    <glyph glyph-name="h" unicode="h" 
d="M84 152v1261q0 73 41.5 118.5t105.5 45.5q65 0 106.5 -45.5t41.5 -118.5v-401h4q86 102 268 102q180 0 292 -108.5t112 -288.5v-565q0 -74 -41.5 -119t-106.5 -45t-106 45.5t-41 118.5v514q0 98 -54 150t-139 52q-86 0 -137 -56t-51 -146v-514q0 -73 -41.5 -118.5
t-106.5 -45.5q-64 0 -105.5 45.5t-41.5 118.5z" />
    <glyph glyph-name="i" unicode="i" horiz-adv-x="455" 
d="M61 1382q0 63 50.5 112.5t115.5 49.5q66 0 116 -49t50 -113q0 -69 -48.5 -119.5t-117.5 -50.5q-65 0 -115.5 51.5t-50.5 118.5zM80 152v786q0 73 41 118.5t106 45.5t106.5 -45.5t41.5 -118.5v-786q0 -73 -41.5 -118.5t-106.5 -45.5t-106 45.5t-41 118.5z" />
    <glyph glyph-name="j" unicode="j" horiz-adv-x="455" 
d="M61 1382q0 63 50.5 112.5t115.5 49.5q66 0 116 -49t50 -113q0 -69 -48.5 -119.5t-117.5 -50.5q-65 0 -115.5 51.5t-50.5 118.5zM80 -283v1221q0 73 41 118.5t106 45.5t106.5 -45.5t41.5 -118.5v-1221q0 -72 -41.5 -117.5t-106.5 -45.5t-106 45.5t-41 117.5z" />
    <glyph glyph-name="k" unicode="k" horiz-adv-x="1024" 
d="M84 152v1261q0 73 41.5 118.5t105.5 45.5q65 0 106.5 -45.5t41.5 -118.5v-688l317 307q41 40 74.5 55t65.5 15q52 0 88.5 -40.5t36.5 -92.5q0 -65 -52 -111l-268 -240l228 -267q124 -145 133 -158t15.5 -34.5t6.5 -43.5q0 -59 -40.5 -99.5t-98.5 -40.5q-68 0 -131 78
l-371 457h-4v-358q0 -73 -41.5 -118.5t-106.5 -45.5q-64 0 -105.5 45.5t-41.5 118.5z" />
    <glyph glyph-name="l" unicode="l" horiz-adv-x="455" 
d="M80 152v1261q0 73 41 118.5t106 45.5t106.5 -45.5t41.5 -118.5v-1261q0 -73 -41.5 -118.5t-106.5 -45.5t-106 45.5t-41 118.5z" />
    <glyph glyph-name="m" unicode="m" horiz-adv-x="1745" 
d="M84 152v786q0 73 41 118.5t106 45.5q117 0 136 -111q114 123 274 123q186 0 305 -149q62 69 148 109t163 40q187 0 295.5 -105.5t108.5 -291.5v-565q0 -73 -41.5 -118.5t-106.5 -45.5q-64 0 -105.5 45.5t-41.5 118.5v514q0 91 -47 146.5t-125 55.5q-79 0 -126.5 -55.5
t-47.5 -146.5v-514q0 -73 -41.5 -118.5t-106.5 -45.5q-64 0 -105.5 45.5t-41.5 118.5v514q0 90 -46.5 146t-125.5 56q-84 0 -129 -53t-45 -149v-514q0 -73 -41.5 -118.5t-106.5 -45.5q-64 0 -105.5 45.5t-41.5 118.5z" />
    <glyph glyph-name="n" unicode="n" 
d="M84 152v786q0 73 41 118.5t106 45.5q117 0 136 -109q85 121 284 121q180 0 292 -108.5t112 -288.5v-565q0 -74 -41.5 -119t-106.5 -45t-106 45.5t-41 118.5v514q0 98 -54 150t-139 52q-86 0 -137 -56t-51 -146v-514q0 -73 -41.5 -118.5t-106.5 -45.5q-64 0 -105.5 45.5
t-41.5 118.5z" />
    <glyph glyph-name="o" unicode="o" 
d="M41 543q0 233 152.5 402t375.5 169q224 0 376.5 -169t152.5 -402q0 -239 -150 -403.5t-379 -164.5t-378.5 164.5t-149.5 403.5zM803 543q0 125 -63.5 213t-170.5 88t-170 -88t-63 -213q0 -124 63.5 -210.5t169.5 -86.5q107 0 170.5 86.5t63.5 210.5z" />
    <glyph glyph-name="p" unicode="p" horiz-adv-x="1176" 
d="M84 -283v1221q0 73 41 118.5t106 45.5q119 0 148 -123q40 64 116.5 99.5t163.5 35.5q215 0 345.5 -170t130.5 -414q0 -223 -138.5 -389t-347.5 -166q-150 0 -270 103v-361q0 -72 -41.5 -117.5t-106.5 -45.5q-64 0 -105.5 45.5t-41.5 117.5zM610 844q-106 0 -168.5 -84
t-62.5 -207q0 -128 62.5 -217.5t168.5 -89.5q103 0 166.5 88.5t63.5 208.5q0 121 -63.5 211t-166.5 90z" />
    <glyph glyph-name="q" unicode="q" horiz-adv-x="1176" 
d="M1092 938v-1221q0 -72 -41.5 -117.5t-106.5 -45.5t-106 45.5t-41 117.5v361q-120 -103 -271 -103q-208 0 -346.5 166t-138.5 389q0 244 130 414t345 170q88 0 164 -35.5t117 -99.5q29 123 147 123q65 0 106.5 -45.5t41.5 -118.5zM565 246q107 0 169.5 89.5t62.5 217.5
q0 123 -63 207t-169 84q-102 0 -165.5 -90t-63.5 -211q0 -120 63.5 -208.5t165.5 -88.5z" />
    <glyph glyph-name="r" unicode="r" horiz-adv-x="682" 
d="M80 152v802q0 70 45.5 109t105.5 39q144 0 144 -123h4q81 123 207 123q60 0 101.5 -42.5t41.5 -115.5q0 -30 -33 -61t-143 -82q-117 -55 -147.5 -99.5t-30.5 -97.5v-452q0 -73 -41.5 -118.5t-106.5 -45.5t-106 45.5t-41 118.5z" />
    <glyph glyph-name="s" unicode="s" horiz-adv-x="872" 
d="M457 1114q137 0 252.5 -59.5t115.5 -153.5q0 -52 -35 -91.5t-85 -39.5q-24 0 -98 34q-112 52 -167 52q-45 0 -72.5 -21.5t-27.5 -60.5q0 -26 27.5 -50t145.5 -69q104 -39 171.5 -75t117.5 -100t50 -158q0 -150 -117 -248.5t-303 -98.5q-142 0 -277 69t-135 159
q0 42 37 86.5t90 44.5q55 0 137 -47q96 -54 169 -54q61 0 88.5 19t27.5 65q0 26 -27 49.5t-144 67.5q-104 40 -172 76t-118.5 100t-50.5 160q0 153 112 248.5t288 95.5z" />
    <glyph glyph-name="t" unicode="t" horiz-adv-x="606" 
d="M156 152v679h-66q-60 0 -94.5 35t-34.5 95q0 55 37 92t92 37h66v176q0 73 41 118.5t106 45.5t106.5 -45.5t41.5 -118.5v-176h84q66 0 103.5 -33.5t37.5 -95.5t-38 -96t-103 -34h-84v-679q0 -73 -41.5 -118.5t-106.5 -45.5t-106 45.5t-41 118.5z" />
    <glyph glyph-name="u" unicode="u" 
d="M84 406v532q0 73 41 118.5t106 45.5t106.5 -45.5t41.5 -118.5v-526q0 -86 55 -138.5t135 -52.5t135.5 52.5t55.5 138.5v526q0 73 41 118.5t106 45.5t106.5 -45.5t41.5 -118.5v-532q0 -201 -128.5 -316t-357.5 -115q-228 0 -356.5 115t-128.5 316z" />
    <glyph glyph-name="v" unicode="v" horiz-adv-x="946" 
d="M313 111l-297 761q-18 48 -18 86q0 68 45 106t109 38q97 0 132 -109l187 -577h4l191 589q16 49 49 73t80 24q65 0 109 -39t44 -105q0 -38 -18 -86l-297 -761q-30 -79 -67 -101t-93 -22q-50 0 -88.5 19.5t-71.5 103.5z" />
    <glyph glyph-name="w" unicode="w" horiz-adv-x="1593" 
d="M295 137l-250 707q-31 89 -31 139t42 84.5t106 34.5q105 0 143 -130l166 -550h4l122 390q60 191 75 221t46 49.5t79 19.5q108 0 144 -113l177 -567h4l170 562q19 63 55.5 90.5t84.5 27.5q66 0 106.5 -39t40.5 -105q0 -29 -29 -110l-252 -711q-53 -149 -178 -149
q-63 0 -105.5 33t-67.5 112l-148 467h-4l-148 -463q-25 -84 -68.5 -116.5t-105.5 -32.5q-125 0 -178 149z" />
    <glyph glyph-name="x" unicode="x" horiz-adv-x="1024" 
d="M512 352q-245 -300 -259.5 -317.5t-39.5 -32t-68 -14.5q-64 0 -104.5 39.5t-40.5 103.5q0 55 49 109l291 331l-253 284q-22 25 -32 52.5t-10 50.5q0 58 47 101t105 43q62 0 104 -53l211 -263q208 260 221 275t37.5 28t56.5 13q58 0 105 -43.5t47 -100.5q0 -56 -55 -117
l-240 -270l199 -226q106 -121 115 -133.5t17.5 -36.5t8.5 -44q0 -64 -40.5 -103.5t-104.5 -39.5q-69 0 -109 48z" />
    <glyph glyph-name="y" unicode="y" horiz-adv-x="985" 
d="M336 86l-326 813q-14 39 -14 76q0 52 45 89.5t94 37.5q110 0 151 -114l199 -546l219 559q20 51 57.5 76t88.5 25q50 0 94.5 -38t44.5 -89q0 -40 -14 -76l-494 -1229q-46 -116 -139 -116q-69 0 -111.5 37t-42.5 90q0 40 19 86z" />
    <glyph glyph-name="z" unicode="z" horiz-adv-x="985" 
d="M49 180l463 651h-342q-58 0 -95.5 35.5t-37.5 94.5t38 94t95 35h670q39 0 67.5 -23.5t28.5 -69.5q0 -45 -31 -88l-465 -651h389q59 0 96.5 -35.5t37.5 -93.5t-37.5 -93.5t-96.5 -35.5h-686q-54 0 -87 27t-33 73q0 43 26 80z" />
    <glyph glyph-name="braceleft" unicode="{" horiz-adv-x="682" 
d="M176 -47v397q0 63 -18.5 99t-79.5 36q-46 0 -72 28.5t-26 70.5t26 70t72 28q61 0 79.5 36.5t18.5 98.5v397q0 269 273 269h126q43 0 68 -24.5t25 -67.5q0 -44 -25 -68.5t-68 -24.5h-51q-90 0 -90 -118v-387q0 -194 -221 -207v-4q221 -13 221 -207v-387q0 -119 90 -119h51
q43 0 68 -24.5t25 -67.5q0 -45 -25.5 -68.5t-67.5 -23.5h-126q-273 0 -273 268z" />
    <glyph glyph-name="bar" unicode="|" horiz-adv-x="455" 
d="M104 -512v2048q0 56 33.5 89.5t89.5 33.5t89.5 -33.5t33.5 -89.5v-2048q0 -56 -33 -89.5t-90 -33.5q-56 0 -89.5 33.5t-33.5 89.5z" />
    <glyph glyph-name="braceright" unicode="}" horiz-adv-x="682" 
d="M506 1214v-397q0 -62 18.5 -98.5t79.5 -36.5q46 0 72 -28t26 -70t-26 -70.5t-72 -28.5q-61 0 -79.5 -36t-18.5 -99v-397q0 -268 -273 -268h-127q-42 0 -67 24t-25 68q0 43 25 67.5t67 24.5h52q90 0 90 119v387q0 194 221 207v4q-221 13 -221 207v387q0 118 -90 118h-52
q-42 0 -67 24.5t-25 68.5t25.5 68t66.5 24h127q273 0 273 -269z" />
    <glyph glyph-name="asciitilde" unicode="~" horiz-adv-x="1229" 
d="M395 711q83 0 256 -80q131 -60 178 -60q28 0 56.5 12t74.5 57q57 56 97 56q42 0 65 -27.5t23 -72.5q0 -105 -87.5 -187.5t-223.5 -82.5q-83 0 -256 79q-131 60 -179 60q-27 0 -55.5 -12t-74.5 -57q-57 -56 -97 -56q-42 0 -65 27.5t-23 72.5q0 103 85.5 187t225.5 84z" />
    <glyph glyph-name="nbspace" unicode="&#xa0;" horiz-adv-x="549" 
 />
    <glyph glyph-name="exclamdown" unicode="&#xa1;" horiz-adv-x="684" 
d="M182 954q0 66 47 113t113 47t113 -47t47 -113q0 -65 -47 -112t-113 -47t-113 47t-47 112zM195 -254v789q0 62 41 100.5t106 38.5q63 0 105 -39.5t42 -99.5v-789q0 -62 -42 -100.5t-105 -38.5q-65 0 -106 38.5t-41 100.5z" />
    <glyph glyph-name="cent" unicode="&#xa2;" horiz-adv-x="948" 
d="M598 842v-596q40 2 134 39q57 22 71 22q51 0 89 -38.5t38 -90.5q0 -85 -95.5 -140t-236.5 -63v-47q0 -62 -14.5 -79t-40.5 -17t-41 17t-15 79v56q-210 31 -328 187.5t-118 379.5q0 209 120.5 365t325.5 190v57q0 52 9 74.5t47 22.5q37 0 46 -22.5t9 -74.5v-49
q139 -5 235.5 -56t96.5 -130q0 -55 -32.5 -100.5t-80.5 -45.5q-34 0 -101 27q-76 31 -118 33zM487 270v551q-72 -31 -111.5 -107t-39.5 -171q0 -89 40 -165t111 -108z" />
    <glyph glyph-name="sterling" unicode="&#xa3;" horiz-adv-x="1251" 
d="M559 868h311q66 0 107 -38.5t41 -102.5q0 -65 -41 -103t-107 -38h-264q0 -159 -104 -303h569q66 0 107 -38.5t41 -103.5t-41 -103t-107 -38h-803q-74 0 -116.5 43t-42.5 117q0 30 53 101q79 103 102 178t23 147h-107q-66 0 -106.5 38.5t-40.5 102.5t40.5 102.5
t106.5 38.5h43q-21 43 -37 109.5t-16 107.5q0 174 148.5 286t367.5 112q218 0 368 -103t150 -252q0 -69 -44.5 -112t-115.5 -43q-28 0 -56.5 15t-75.5 75q-62 82 -112 103.5t-102 21.5q-84 0 -140 -43.5t-56 -114.5q0 -62 26 -108z" />
    <glyph glyph-name="currency" unicode="&#xa4;" horiz-adv-x="1212" 
d="M535 692h280q40 0 69 -24.5t29 -61.5q0 -36 -29 -61t-69 -25h-264q52 -266 254 -266q68 0 104.5 14t70.5 40q42 32 79 32q56 0 95.5 -40.5t39.5 -96.5q0 -111 -109 -169.5t-278 -58.5q-227 0 -378 141.5t-198 403.5h-94q-40 0 -69 25t-29 61q0 38 29.5 62t68.5 24h78v37
q0 42 2 62h-80q-40 0 -69 24.5t-29 61.5q0 36 29 61t69 25h101q52 249 202 384.5t365 135.5q160 0 266.5 -54.5t106.5 -158.5q0 -55 -41 -96t-88 -41q-36 0 -91 29q-79 42 -153 42q-195 0 -250 -241h260q40 0 69 -25t29 -61q0 -38 -29 -62t-69 -24h-278q-2 -24 -2 -68v-31z
" />
    <glyph glyph-name="yen" unicode="&#xa5;" horiz-adv-x="1176" 
d="M434 137v248h-291q-40 0 -69 24.5t-29 61.5t29 61.5t69 24.5h291v139h-291q-40 0 -69 25t-29 61q0 37 29 61.5t69 24.5h166l-169 236q-94 129 -101 141.5t-13 33.5t-6 42q0 62 42.5 105.5t105.5 43.5q86 0 137 -75l283 -414l291 425q21 32 57.5 48t71.5 16
q63 0 105 -43.5t42 -105.5q0 -53 -33 -98l-256 -355h166q40 0 69 -24.5t29 -61.5q0 -36 -29 -61t-69 -25h-291v-139h291q40 0 69 -24.5t29 -61.5t-29 -61.5t-69 -24.5h-291v-248q0 -67 -40 -108t-113 -41q-74 0 -114 41t-40 108z" />
    <glyph glyph-name="brokenbar" unicode="&#xa6;" horiz-adv-x="455" 
d="M104 788v472q0 55 33.5 88.5t89.5 33.5t89.5 -33.5t33.5 -88.5v-472q0 -55 -33 -88.5t-90 -33.5q-56 0 -89.5 33.5t-33.5 88.5zM104 -236v472q0 55 33.5 88.5t89.5 33.5t89.5 -33.5t33.5 -88.5v-472q0 -55 -33 -88.5t-90 -33.5q-56 0 -89.5 33.5t-33.5 88.5z" />
    <glyph glyph-name="section" unicode="&#xa7;" horiz-adv-x="1176" 
d="M223 883q-96 101 -96 215q0 173 126.5 279t319.5 106t349.5 -81t156.5 -222q0 -57 -41 -101.5t-96 -44.5q-27 0 -56.5 13.5t-87.5 67.5q-68 64 -108.5 80.5t-79.5 16.5q-61 0 -106 -40.5t-45 -100.5q0 -39 41 -75.5t212 -102.5q133 -50 217 -93.5t145 -115.5t61 -174
q0 -118 -49.5 -201t-167.5 -164q88 -110 88 -215q0 -167 -125 -271.5t-308 -104.5q-187 0 -347 96.5t-160 212.5q0 66 48 109.5t115 43.5q24 0 48.5 -13.5t72.5 -67.5q62 -72 103.5 -91.5t83.5 -19.5q57 0 103 33t46 84q0 47 -40.5 88t-208.5 103q-124 47 -203 89
t-136 117.5t-57 191.5q0 112 42.5 193.5t139.5 159.5zM438 711q-90 -67 -90 -146q0 -47 25 -81t86 -59l252 -106q104 60 104 150q0 48 -38.5 86.5t-116.5 68.5z" />
    <glyph glyph-name="dieresis" unicode="&#xa8;" horiz-adv-x="455" 
d="M453 1235q-62 0 -105 43t-43 104q0 62 43 105t105 43q61 0 104 -43t43 -105q0 -61 -43 -104t-104 -43zM2 1235q-61 0 -104 43t-43 104q0 62 43 105t104 43t104.5 -43t43.5 -105q0 -61 -43.5 -104t-104.5 -43z" />
    <glyph glyph-name="copyright" unicode="&#xa9;" horiz-adv-x="1638" 
d="M819 -25q-310 0 -531.5 222t-221.5 532t221.5 532t531.5 222t532 -222t222 -532t-222 -532t-532 -222zM819 1298q-235 0 -402 -167t-167 -402t167 -402t402 -167q236 0 403 167t167 402q0 237 -166.5 403t-403.5 166zM1180 907q0 -38 -6.5 -59.5t-28.5 -36t-47 -14.5
q-31 0 -57 16.5t-54 75.5q-30 49 -71.5 63.5t-90.5 14.5q-89 0 -137.5 -62.5t-48.5 -175.5t48.5 -175t137.5 -62q49 0 90.5 14t71.5 63q28 59 54 76t57 17q10 0 35.5 -10t36 -30.5t10.5 -70.5q0 -78 -104 -161t-251 -83q-182 0 -294.5 118.5t-112.5 303.5t112.5 303.5
t294.5 118.5q147 0 251 -83t104 -161z" />
    <glyph glyph-name="ordfeminine" unicode="&#xaa;" horiz-adv-x="764" 
d="M709 1372v-481q0 -90 -91 -90q-85 0 -92 80q-78 -80 -168 -80q-145 0 -238 95.5t-93 244.5q0 145 92 243.5t225 98.5q119 0 182 -80q7 80 92 80q91 0 91 -111zM223 1141q0 -76 40 -128t108 -52q66 0 103.5 51.5t37.5 128.5t-37.5 129.5t-103.5 52.5q-68 0 -108 -53
t-40 -129z" />
    <glyph glyph-name="guillemotleft" unicode="&#xab;" horiz-adv-x="1024" 
d="M764 575l127 -191q48 -72 52.5 -88.5t4.5 -33.5q0 -55 -34.5 -92t-88.5 -37q-38 0 -67.5 18.5t-45.5 48.5t-108.5 168.5t-101 160.5t-8.5 55q0 24 15.5 58.5t102 153.5t113 160.5t52 49.5t52.5 8q53 0 86 -33t33 -80q0 -43 -23 -79zM346 575l127 -191q48 -72 52.5 -88.5
t4.5 -33.5q0 -55 -34.5 -92t-87.5 -37q-38 0 -68 18.5t-45.5 48.5t-108.5 168.5t-101.5 160.5t-8.5 55q0 24 15.5 58.5t102 153.5t113.5 160.5t52.5 49.5t52.5 8q52 0 85 -33t33 -80q0 -43 -23 -79z" />
    <glyph glyph-name="logicalnot" unicode="&#xac;" horiz-adv-x="1229" 
d="M195 870h839q56 0 89.5 -33.5t33.5 -88.5v-465q0 -56 -33.5 -89.5t-89.5 -33.5t-89.5 33.5t-33.5 89.5v342h-716q-57 0 -90 33.5t-33 89.5q0 55 33 88.5t90 33.5z" />
    <glyph glyph-name="sfthyphen" unicode="&#xad;" horiz-adv-x="797" 
d="M180 723h436q54 0 85.5 -36.5t31.5 -94.5q0 -56 -31.5 -91.5t-85.5 -35.5h-436q-53 0 -85 35.5t-32 91.5q0 58 32 94.5t85 36.5z" />
    <glyph glyph-name="registered" unicode="&#xae;" horiz-adv-x="1638" 
d="M819 -25q-310 0 -531.5 222t-221.5 532t221.5 532t531.5 222t532 -222t222 -532t-222 -532t-532 -222zM819 1298q-235 0 -402 -167t-167 -402t167 -402t402 -167q236 0 403 167t167 402q0 237 -166.5 403t-403.5 166zM700 647v-241q0 -99 -92 -99q-49 0 -70.5 22
t-21.5 77v632q0 86 94 86h232q305 0 305 -239q0 -215 -205 -226l108 -177q44 -71 47 -81.5t3 -21.5q0 -72 -96 -72q-60 0 -100 74l-142 266h-62zM700 795h154q62 0 85.5 21.5t23.5 68.5q0 52 -27 72t-82 20h-154v-182z" />
    <glyph glyph-name="overscore" unicode="&#xaf;" horiz-adv-x="1024" 
d="M1024 1618h-1024q-59 0 -59 51t59 51h1024q59 0 59 -51t-59 -51z" />
    <glyph glyph-name="degree" unicode="&#xb0;" horiz-adv-x="819" 
d="M410 823q-136 0 -233 97t-97 233t97 233t233 97t232.5 -97t96.5 -233q0 -137 -96.5 -233.5t-232.5 -96.5zM410 1323q-69 0 -119.5 -50.5t-50.5 -119.5t50.5 -119.5t119.5 -50.5q68 0 119 50.5t51 119.5t-50.5 119.5t-119.5 50.5z" />
    <glyph glyph-name="plusminus" unicode="&#xb1;" horiz-adv-x="1229" 
d="M492 807v131q0 56 33 89.5t89 33.5t89.5 -33.5t33.5 -89.5v-131h297q56 0 89.5 -33.5t33.5 -89.5t-33.5 -89.5t-89.5 -33.5h-297v-131q0 -56 -33.5 -89.5t-89.5 -33.5t-89 33.5t-33 89.5v131h-297q-57 0 -90 33.5t-33 89.5t33 89.5t90 33.5h297zM195 246h839
q56 0 89.5 -33.5t33.5 -89.5t-33.5 -89.5t-89.5 -33.5h-839q-57 0 -90 33.5t-33 89.5t33 89.5t90 33.5z" />
    <glyph glyph-name="twosuperior" unicode="&#xb2;" horiz-adv-x="764" 
d="M406 805h208q91 0 91 -105q0 -104 -91 -104h-458q-44 0 -70.5 21t-26.5 59q0 26 23.5 53t117.5 125q163 171 215 245t52 120q0 36 -26 57.5t-68 21.5q-55 0 -77 -24.5t-39 -73.5q-20 -57 -42.5 -71.5t-50.5 -14.5q-96 0 -96 115q0 82 90 168t223 86q127 0 211 -71
t84 -183q0 -64 -40 -142t-166 -211q-52 -54 -64 -71z" />
    <glyph glyph-name="threesuperior" unicode="&#xb3;" horiz-adv-x="764" 
d="M547 1071q77 -33 120.5 -92.5t43.5 -128.5q0 -123 -98 -194.5t-240 -71.5q-116 0 -218 66t-102 161q0 33 32.5 57.5t70.5 24.5q39 0 78 -51q27 -36 55.5 -55t83.5 -19q54 0 91.5 27.5t37.5 66.5q0 88 -113 105q-70 12 -92.5 33t-22.5 53q0 68 94.5 85.5t94.5 92.5
q0 67 -90 67q-55 0 -111 -55q-50 -49 -94 -49q-38 0 -62 26.5t-24 63.5q0 79 97.5 139t193.5 60q117 0 201.5 -63.5t84.5 -159.5q0 -120 -112 -189z" />
    <glyph glyph-name="acute" unicode="&#xb4;" horiz-adv-x="455" 
d="M245 1544q73 29 90.5 34t33.5 5q43 0 76.5 -41t33.5 -86q0 -35 -12.5 -61t-33 -39.5t-155 -66t-150.5 -58.5t-44 -6q-43 0 -76 46t-33 103q0 25 17 47.5t41 34.5z" />
    <glyph glyph-name="mu1" unicode="&#xb5;" 
d="M84 -283v1221q0 73 41 118.5t106 45.5t106.5 -45.5t41.5 -118.5v-526q0 -86 55 -138.5t135 -52.5t135.5 52.5t55.5 138.5v526q0 73 41 118.5t106 45.5t106.5 -45.5t41.5 -118.5v-786q0 -74 -41.5 -119t-106.5 -45t-106 39t-41 102h-4q-30 -75 -82.5 -114.5t-106.5 -39.5
q-46 0 -100 29t-84 74h-4v-361q0 -72 -41.5 -117.5t-106.5 -45.5q-64 0 -105.5 45.5t-41.5 117.5z" />
    <glyph glyph-name="paragraph" unicode="&#xb6;" horiz-adv-x="1270" 
d="M487 -311v1054q-219 0 -337.5 92t-118.5 259q0 124 52 204.5t161 120t291 39.5h520q56 0 89.5 -33.5t33.5 -89.5v-1646q0 -56 -33.5 -89.5t-89.5 -33.5t-89.5 33.5t-33.5 89.5v1585h-199v-1585q0 -56 -33 -89.5t-90 -33.5q-56 0 -89.5 33.5t-33.5 89.5z" />
    <glyph glyph-name="middot" unicode="&#xb7;" horiz-adv-x="549" 
d="M115 575q0 66 47 113t112 47q66 0 113 -47.5t47 -112.5q0 -67 -46.5 -113t-113.5 -46q-65 0 -112 47t-47 112z" />
    <glyph glyph-name="cedilla" unicode="&#xb8;" horiz-adv-x="455" 
d="M260 0h123l-80 -104q7 0 23 3q15 3 22 3q68 0 111 -42.5t43 -113.5q0 -87 -68.5 -139.5t-159.5 -52.5q-83 0 -133.5 26t-50.5 76q0 23 14 38t35 15q10 0 39 -8q44 -13 68 -13q59 0 59 58q0 26 -12 41.5t-57 15.5q-47 0 -58.5 13t-11.5 34q0 20 45 82z" />
    <glyph glyph-name="onesuperior" unicode="&#xb9;" horiz-adv-x="492" 
d="M180 674v588h-69q-91 0 -91 106q0 47 25 74.5t66 27.5h190q41 0 64.5 -23.5t23.5 -62.5v-710q0 -39 -28.5 -64.5t-75.5 -25.5t-76 24.5t-29 65.5z" />
    <glyph glyph-name="ordmasculine" unicode="&#xba;" horiz-adv-x="739" 
d="M27 1141q0 139 97.5 240.5t246.5 101.5q146 0 244 -101t98 -241q0 -143 -97 -241.5t-245 -98.5q-150 0 -247 98.5t-97 241.5zM223 1141q0 -74 40.5 -127t107.5 -53q64 0 104.5 53.5t40.5 126.5q0 77 -38.5 129.5t-106.5 52.5t-108 -53.5t-40 -128.5z" />
    <glyph glyph-name="guillemotright" unicode="&#xbb;" horiz-adv-x="1024" 
d="M516 324l162 251q-165 245 -174.5 261.5t-9.5 48.5q0 55 34 92t88 37q38 0 68 -18.5t45.5 -48.5t108.5 -168.5t101.5 -160.5t8.5 -55q0 -25 -15.5 -59t-102 -153t-113.5 -160.5t-52.5 -49.5t-52.5 -8q-52 0 -85 33t-33 80q0 43 22 78zM98 324l162 251
q-165 245 -174.5 261.5t-9.5 48.5q0 55 34.5 92t88.5 37q38 0 67.5 -18.5t45.5 -48.5t108.5 -168.5t101 -160.5t8.5 -55q0 -25 -15.5 -59t-102 -153t-113 -160.5t-52 -49.5t-52.5 -8q-53 0 -86 33t-33 80q0 43 22 78z" />
    <glyph glyph-name="onequarter" unicode="&#xbc;" horiz-adv-x="1763" 
d="M332 152l678 1278q20 38 39 51.5t55 13.5q48 0 84.5 -34t36.5 -81q0 -30 -17 -61l-688 -1288q-33 -46 -52 -57t-40 -11q-42 0 -79.5 34.5t-37.5 78.5q0 37 21 76zM233 674v588h-69q-90 0 -90 106q0 47 24.5 74.5t65.5 27.5h190q41 0 64.5 -23.5t23.5 -62.5v-710
q0 -39 -28.5 -64.5t-75.5 -25.5t-76 24.5t-29 65.5zM1368 170h-334q-38 0 -59 23.5t-21 60.5q0 28 18 61l133 223q115 191 142.5 240.5t46 68.5t47.5 29.5t74 10.5q72 0 117 -41.5t45 -116.5v-362h20q42 0 67.5 -25.5t25.5 -71.5q0 -47 -25.5 -73.5t-67.5 -26.5h-20v-92
q0 -90 -104 -90q-105 0 -105 90v92zM1368 367v313h-4l-172 -313h176z" />
    <glyph glyph-name="onehalf" unicode="&#xbd;" horiz-adv-x="1763" 
d="M332 152l678 1278q20 38 39 51.5t55 13.5q48 0 84.5 -34t36.5 -81q0 -30 -17 -61l-688 -1288q-33 -46 -52 -57t-40 -11q-42 0 -79.5 34.5t-37.5 78.5q0 37 21 76zM233 674v588h-69q-90 0 -90 106q0 47 24.5 74.5t65.5 27.5h190q41 0 64.5 -23.5t23.5 -62.5v-710
q0 -39 -28.5 -64.5t-75.5 -25.5t-76 24.5t-29 65.5zM1606 0h-465q-44 0 -70.5 21.5t-26.5 60.5q0 26 23.5 53t117.5 125q164 171 215.5 245t51.5 120q0 36 -26 56.5t-68 20.5q-55 0 -77 -24.5t-39 -71.5q-15 -44 -33 -65t-60 -21q-96 0 -96 115q0 81 88 166.5t225 85.5
q128 0 211.5 -70t83.5 -182q0 -64 -39.5 -141t-164.5 -210q-54 -57 -66 -75h202q38 0 67.5 -32.5t29.5 -76.5q0 -100 -84 -100z" />
    <glyph glyph-name="threequarters" unicode="&#xbe;" horiz-adv-x="1763" 
d="M487 152l678 1278q20 38 39.5 51.5t55.5 13.5q48 0 84 -34t36 -81q0 -30 -16 -61l-688 -1288q-33 -46 -52 -57t-40 -11q-42 0 -79.5 34.5t-37.5 78.5q0 37 20 76zM541 1071q77 -33 120.5 -92.5t43.5 -128.5q0 -123 -98 -194.5t-240 -71.5q-116 0 -218 66t-102 161
q0 33 32.5 57.5t70.5 24.5q39 0 78 -51q27 -36 55.5 -55t83.5 -19q54 0 91.5 27.5t37.5 66.5q0 88 -113 105q-70 12 -92.5 33t-22.5 53q0 68 94.5 85.5t94.5 92.5q0 67 -90 67q-56 0 -111 -55q-50 -49 -94 -49q-38 0 -62 26.5t-24 63.5q0 82 99 140.5t192 58.5
q116 0 201 -63.5t85 -159.5q0 -120 -112 -189zM1395 170h-334q-38 0 -59 23.5t-21 60.5q0 28 18 61l133 223q115 191 142 240.5t46 68.5t48 29.5t74 10.5q72 0 117 -41.5t45 -116.5v-362h20q42 0 67 -25.5t25 -71.5q0 -47 -25 -73.5t-67 -26.5h-20v-92q0 -90 -105 -90
q-104 0 -104 90v92zM1395 367v313h-4l-172 -313h176z" />
    <glyph glyph-name="questiondown" unicode="&#xbf;" horiz-adv-x="985" 
d="M377 954q0 66 47 113t113 47q65 0 112 -47t47 -113t-46.5 -112.5t-112.5 -46.5t-113 47t-47 112zM684 532v-204q0 -32 -31 -56.5t-135 -52.5q-98 -27 -131 -69.5t-33 -104.5q0 -64 51.5 -110t118.5 -46q42 0 84 19.5t106 92.5q52 61 82 76t58 15q56 0 90.5 -40.5
t34.5 -106.5q0 -93 -65.5 -170t-176 -122.5t-213.5 -45.5q-209 0 -349 121.5t-140 316.5q0 321 354 414v73q0 62 41.5 102t106.5 40q67 0 107 -39t40 -103z" />
    <glyph glyph-name="Agrave" unicode="&#xc0;" horiz-adv-x="1290" 
d="M18 199l412 1114q28 76 87 123t132 47q75 0 132.5 -44.5t86.5 -125.5l402 -1114q16 -44 16 -76q0 -58 -41.5 -96.5t-99.5 -38.5t-95.5 27t-55.5 82l-60 190h-569q-64 -196 -73.5 -222t-44.5 -51.5t-91 -25.5q-63 0 -107.5 41.5t-44.5 101.5q0 29 14 68zM647 1163
l-194 -594h389l-191 594h-4zM504 1914q27 0 120 -38l164 -66q71 -29 90 -54.5t19 -50.5q0 -57 -32.5 -103t-75.5 -46q-30 0 -64 13l-228 90q-61 23 -82.5 52.5t-21.5 75.5q0 45 34 86t77 41z" />
    <glyph glyph-name="Aacute" unicode="&#xc1;" horiz-adv-x="1290" 
d="M18 199l412 1114q28 76 87 123t132 47q75 0 132.5 -44.5t86.5 -125.5l402 -1114q16 -44 16 -76q0 -58 -41.5 -96.5t-99.5 -38.5t-95.5 27t-55.5 82l-60 190h-569q-64 -196 -73.5 -222t-44.5 -51.5t-91 -25.5q-63 0 -107.5 41.5t-44.5 101.5q0 29 14 68zM647 1163
l-194 -594h389l-191 594h-4zM663 1875q73 29 90.5 34t33.5 5q43 0 76.5 -41t33.5 -86q0 -35 -12.5 -61t-33 -39.5t-155 -66t-150.5 -58.5t-44 -6q-43 0 -76 46t-33 103q0 25 17 47.5t41 34.5z" />
    <glyph glyph-name="Acircumflex" unicode="&#xc2;" horiz-adv-x="1290" 
d="M18 199l412 1114q28 76 87 123t132 47q75 0 132.5 -44.5t86.5 -125.5l402 -1114q16 -44 16 -76q0 -58 -41.5 -96.5t-99.5 -38.5t-95.5 27t-55.5 82l-60 190h-569q-64 -196 -73.5 -222t-44.5 -51.5t-91 -25.5q-63 0 -107.5 41.5t-44.5 101.5q0 29 14 68zM647 1163
l-194 -594h389l-191 594h-4zM645 1623q-162 -71 -186 -71q-48 0 -86.5 40.5t-38.5 90.5q0 45 23 75t71 49l217 89q219 -89 243 -99.5t46.5 -39t22.5 -74.5q0 -50 -38.5 -90.5t-86.5 -40.5q-24 0 -187 71z" />
    <glyph glyph-name="Atilde" unicode="&#xc3;" horiz-adv-x="1290" 
d="M18 199l412 1114q28 76 87 123t132 47q75 0 132.5 -44.5t86.5 -125.5l402 -1114q16 -44 16 -76q0 -58 -41.5 -96.5t-99.5 -38.5t-95.5 27t-55.5 82l-60 190h-569q-64 -196 -73.5 -222t-44.5 -51.5t-91 -25.5q-63 0 -107.5 41.5t-44.5 101.5q0 29 14 68zM647 1163
l-194 -594h389l-191 594h-4zM553 1624q-23 0 -61 -23q-47 -30 -84 -30q-38 0 -70.5 34t-32.5 73q0 80 55.5 130t139.5 50q55 0 150 -32q59 -19 79 -19q19 0 69 26q61 33 91 33q43 0 69.5 -33.5t26.5 -81.5q0 -74 -62.5 -126t-137.5 -52q-37 0 -135 29q-75 22 -97 22z" />
    <glyph glyph-name="Adieresis" unicode="&#xc4;" horiz-adv-x="1290" 
d="M18 199l412 1114q28 76 87 123t132 47q75 0 132.5 -44.5t86.5 -125.5l402 -1114q16 -44 16 -76q0 -58 -41.5 -96.5t-99.5 -38.5t-95.5 27t-55.5 82l-60 190h-569q-64 -196 -73.5 -222t-44.5 -51.5t-91 -25.5q-63 0 -107.5 41.5t-44.5 101.5q0 29 14 68zM647 1163
l-194 -594h389l-191 594h-4zM871 1567q-62 0 -105 43t-43 104q0 62 43 105t105 43q61 0 104 -43t43 -105q0 -61 -43 -104t-104 -43zM420 1567q-61 0 -104 43t-43 104q0 62 43 105t104 43t104.5 -43t43.5 -105q0 -61 -43.5 -104t-104.5 -43z" />
    <glyph glyph-name="Aring" unicode="&#xc5;" horiz-adv-x="1290" 
d="M18 199l412 1114q28 76 87 123t132 47q75 0 132.5 -44.5t86.5 -125.5l402 -1114q16 -44 16 -76q0 -58 -41.5 -96.5t-99.5 -38.5t-95.5 27t-55.5 82l-60 190h-569q-64 -196 -73.5 -222t-44.5 -51.5t-91 -25.5q-63 0 -107.5 41.5t-44.5 101.5q0 29 14 68zM647 1163
l-194 -594h389l-191 594h-4zM645 1518q-84 0 -143 59t-59 144q0 84 59 143t143 59t143.5 -59t59.5 -143q0 -85 -59.5 -144t-143.5 -59zM645 1813q-38 0 -65 -27t-27 -65q0 -39 27 -66t65 -27q39 0 65.5 27t26.5 66q0 38 -26.5 65t-65.5 27z" />
    <glyph glyph-name="AE" unicode="&#xc6;" horiz-adv-x="1706" 
d="M20 215l635 1174q37 69 144 69h719q67 0 106 -40.5t39 -100.5q0 -59 -40 -100t-105 -41h-361v-299h336q69 0 109 -41t40 -101q0 -56 -39.5 -98.5t-109.5 -42.5h-336v-311h379q67 0 106 -40.5t39 -101.5q0 -58 -39.5 -99.5t-105.5 -41.5h-528q-69 0 -113.5 43t-44.5 111
v102h-469q-99 -173 -113.5 -196.5t-49.5 -47.5t-79 -24q-62 0 -104.5 36t-42.5 93q0 45 28 98zM846 1126l-324 -594h328v594h-4z" />
    <glyph glyph-name="Ccedilla" unicode="&#xc7;" horiz-adv-x="1251" 
d="M764 -23l-62 -81q8 0 23 3t23 3q67 0 110 -42.5t43 -113.5q0 -87 -68 -139.5t-159 -52.5q-84 0 -134.5 26t-50.5 76q0 23 14 38t36 15q9 0 38 -8q45 -13 68 -13q60 0 60 58q0 26 -12.5 41.5t-57.5 15.5q-46 0 -58 13t-12 34t80 132q-279 38 -444.5 248t-165.5 499
q0 323 197 538.5t507 215.5q174 0 307.5 -60.5t133.5 -169.5q0 -57 -36.5 -97t-90.5 -40q-35 0 -100 27q-112 45 -214 45q-176 0 -280.5 -130.5t-104.5 -334.5q0 -198 105 -325.5t280 -127.5q102 0 222 55q69 31 104 31q59 0 97 -46t38 -93q0 -108 -120.5 -171t-315.5 -69z
" />
    <glyph glyph-name="Egrave" unicode="&#xc8;" horiz-adv-x="948" 
d="M92 154v1126q0 83 42 130.5t118 47.5h508q67 0 106 -40.5t39 -100.5q0 -59 -39.5 -100t-105.5 -41h-361v-299h336q69 0 109.5 -41t40.5 -101q0 -58 -41 -99.5t-109 -41.5h-336v-311h379q67 0 106.5 -40.5t39.5 -101.5q0 -58 -40 -99.5t-106 -41.5h-528q-69 0 -113.5 43
t-44.5 111zM334 1914q27 0 120 -38l164 -66q71 -29 90 -54.5t19 -50.5q0 -57 -32.5 -103t-75.5 -46q-30 0 -64 13l-228 90q-61 23 -82.5 52.5t-21.5 75.5q0 45 34 86t77 41z" />
    <glyph glyph-name="Eacute" unicode="&#xc9;" horiz-adv-x="948" 
d="M92 154v1126q0 83 42 130.5t118 47.5h508q67 0 106 -40.5t39 -100.5q0 -59 -39.5 -100t-105.5 -41h-361v-299h336q69 0 109.5 -41t40.5 -101q0 -58 -41 -99.5t-109 -41.5h-336v-311h379q67 0 106.5 -40.5t39.5 -101.5q0 -58 -40 -99.5t-106 -41.5h-528q-69 0 -113.5 43
t-44.5 111zM493 1875q73 29 90.5 34t33.5 5q43 0 76.5 -41t33.5 -86q0 -35 -12.5 -61t-33 -39.5t-155 -66t-150.5 -58.5t-44 -6q-43 0 -76 46t-33 103q0 25 17 47.5t41 34.5z" />
    <glyph glyph-name="Ecircumflex" unicode="&#xca;" horiz-adv-x="948" 
d="M92 154v1126q0 83 42 130.5t118 47.5h508q67 0 106 -40.5t39 -100.5q0 -59 -39.5 -100t-105.5 -41h-361v-299h336q69 0 109.5 -41t40.5 -101q0 -58 -41 -99.5t-109 -41.5h-336v-311h379q67 0 106.5 -40.5t39.5 -101.5q0 -58 -40 -99.5t-106 -41.5h-528q-69 0 -113.5 43
t-44.5 111zM475 1623q-162 -71 -186 -71q-48 0 -86.5 40.5t-38.5 90.5q0 45 23 75t71 49l217 89q219 -89 243 -99.5t46.5 -39t22.5 -74.5q0 -50 -38.5 -90.5t-86.5 -40.5q-24 0 -187 71z" />
    <glyph glyph-name="Edieresis" unicode="&#xcb;" horiz-adv-x="948" 
d="M92 154v1126q0 83 42 130.5t118 47.5h508q67 0 106 -40.5t39 -100.5q0 -59 -39.5 -100t-105.5 -41h-361v-299h336q69 0 109.5 -41t40.5 -101q0 -58 -41 -99.5t-109 -41.5h-336v-311h379q67 0 106.5 -40.5t39.5 -101.5q0 -58 -40 -99.5t-106 -41.5h-528q-69 0 -113.5 43
t-44.5 111zM701 1567q-62 0 -105 43t-43 104q0 62 43 105t105 43q61 0 104 -43t43 -105q0 -61 -43 -104t-104 -43zM250 1567q-61 0 -104 43t-43 104q0 62 43 105t104 43t104.5 -43t43.5 -105q0 -61 -43.5 -104t-104.5 -43z" />
    <glyph glyph-name="Igrave" unicode="&#xcc;" horiz-adv-x="492" 
d="M92 147v1164q0 73 42.5 116t111.5 43t111 -43t42 -116v-1164q0 -74 -42.5 -116.5t-110.5 -42.5q-69 0 -111.5 43t-42.5 116zM105 1914q27 0 120 -38l164 -66q71 -29 90 -54.5t19 -50.5q0 -57 -32.5 -103t-75.5 -46q-30 0 -64 13l-228 90q-61 23 -82.5 52.5t-21.5 75.5
q0 45 34 86t77 41z" />
    <glyph glyph-name="Iacute" unicode="&#xcd;" horiz-adv-x="492" 
d="M92 147v1164q0 73 42.5 116t111.5 43t111 -43t42 -116v-1164q0 -74 -42.5 -116.5t-110.5 -42.5q-69 0 -111.5 43t-42.5 116zM264 1875q73 29 90.5 34t33.5 5q43 0 76.5 -41t33.5 -86q0 -35 -12.5 -61t-33 -39.5t-155 -66t-150.5 -58.5t-44 -6q-43 0 -76 46t-33 103
q0 25 17 47.5t41 34.5z" />
    <glyph glyph-name="Icircumflex" unicode="&#xce;" horiz-adv-x="492" 
d="M92 147v1164q0 73 42.5 116t111.5 43t111 -43t42 -116v-1164q0 -74 -42.5 -116.5t-110.5 -42.5q-69 0 -111.5 43t-42.5 116zM245 1623q-162 -71 -186 -71q-48 0 -86.5 40.5t-38.5 90.5q0 45 23 75t71 49l217 89q219 -89 243 -99.5t46.5 -39t22.5 -74.5q0 -50 -38.5 -90.5
t-86.5 -40.5q-24 0 -187 71z" />
    <glyph glyph-name="Idieresis" unicode="&#xcf;" horiz-adv-x="492" 
d="M92 147v1164q0 73 42.5 116t111.5 43t111 -43t42 -116v-1164q0 -74 -42.5 -116.5t-110.5 -42.5q-69 0 -111.5 43t-42.5 116zM471 1567q-62 0 -105 43t-43 104q0 62 43 105t105 43q61 0 104 -43t43 -105q0 -61 -43 -104t-104 -43zM20 1567q-61 0 -104 43t-43 104
q0 62 43 105t104 43t104.5 -43t43.5 -105q0 -61 -43.5 -104t-104.5 -43z" />
    <glyph glyph-name="Eth" unicode="&#xd0;" horiz-adv-x="1366" 
d="M92 154v469h-55q-59 0 -94 34t-35 82t34 82.5t95 34.5h55v444q0 71 44 114.5t114 43.5h340q336 0 528.5 -201t192.5 -548q0 -321 -192 -515t-509 -194h-356q-68 0 -115 40t-47 114zM399 1176v-320h168q59 0 94 -33.5t35 -83.5q0 -48 -35 -82t-94 -34h-168v-340h207
q183 0 284 119t101 321q0 215 -104.5 334t-300.5 119h-187z" />
    <glyph glyph-name="Ntilde" unicode="&#xd1;" horiz-adv-x="1403" 
d="M80 147v1164q0 73 42.5 116t110.5 43q29 0 68.5 -19.5t60.5 -47.5l650 -866h4v774q0 73 42.5 116t110.5 43q69 0 111.5 -43t42.5 -116v-1164q0 -73 -42.5 -116t-111.5 -43q-30 0 -69.5 20.5t-59.5 46.5l-649 856h-4v-764q0 -73 -42.5 -116t-111.5 -43q-68 0 -110.5 43
t-42.5 116zM610 1624q-23 0 -61 -23q-47 -30 -84 -30q-38 0 -70.5 34t-32.5 73q0 80 55.5 130t139.5 50q55 0 150 -32q59 -19 79 -19q19 0 69 26q61 33 91 33q43 0 69.5 -33.5t26.5 -81.5q0 -74 -62.5 -126t-137.5 -52q-37 0 -135 29q-75 22 -97 22z" />
    <glyph glyph-name="Ograve" unicode="&#xd2;" horiz-adv-x="1479" 
d="M1444 729q0 -324 -199 -539t-506 -215q-305 0 -504.5 216t-199.5 538q0 323 197 538.5t507 215.5q302 0 503.5 -218.5t201.5 -535.5zM354 729q0 -208 103.5 -339.5t281.5 -131.5q179 0 282 131.5t103 339.5q0 205 -104 338t-281 133q-176 0 -280.5 -133t-104.5 -338z
M598 1914q27 0 120 -38l164 -66q71 -29 90 -54.5t19 -50.5q0 -57 -32.5 -103t-75.5 -46q-30 0 -64 13l-228 90q-61 23 -82.5 52.5t-21.5 75.5q0 45 34 86t77 41z" />
    <glyph glyph-name="Oacute" unicode="&#xd3;" horiz-adv-x="1479" 
d="M1444 729q0 -324 -199 -539t-506 -215q-305 0 -504.5 216t-199.5 538q0 323 197 538.5t507 215.5q302 0 503.5 -218.5t201.5 -535.5zM354 729q0 -208 103.5 -339.5t281.5 -131.5q179 0 282 131.5t103 339.5q0 205 -104 338t-281 133q-176 0 -280.5 -133t-104.5 -338z
M757 1875q73 29 90.5 34t33.5 5q43 0 76.5 -41t33.5 -86q0 -35 -12.5 -61t-33 -39.5t-155 -66t-150.5 -58.5t-44 -6q-43 0 -76 46t-33 103q0 25 17 47.5t41 34.5z" />
    <glyph glyph-name="Ocircumflex" unicode="&#xd4;" horiz-adv-x="1479" 
d="M1444 729q0 -324 -199 -539t-506 -215q-305 0 -504.5 216t-199.5 538q0 323 197 538.5t507 215.5q302 0 503.5 -218.5t201.5 -535.5zM354 729q0 -208 103.5 -339.5t281.5 -131.5q179 0 282 131.5t103 339.5q0 205 -104 338t-281 133q-176 0 -280.5 -133t-104.5 -338z
M739 1623q-162 -71 -186 -71q-48 0 -86.5 40.5t-38.5 90.5q0 45 23 75t71 49l217 89q219 -89 243 -99.5t46.5 -39t22.5 -74.5q0 -50 -38.5 -90.5t-86.5 -40.5q-24 0 -187 71z" />
    <glyph glyph-name="Otilde" unicode="&#xd5;" horiz-adv-x="1479" 
d="M1444 729q0 -324 -199 -539t-506 -215q-305 0 -504.5 216t-199.5 538q0 323 197 538.5t507 215.5q302 0 503.5 -218.5t201.5 -535.5zM354 729q0 -208 103.5 -339.5t281.5 -131.5q179 0 282 131.5t103 339.5q0 205 -104 338t-281 133q-176 0 -280.5 -133t-104.5 -338z
M647 1624q-23 0 -61 -23q-47 -30 -84 -30q-38 0 -70.5 34t-32.5 73q0 80 55.5 130t139.5 50q55 0 150 -32q59 -19 79 -19q19 0 69 26q61 33 91 33q43 0 69.5 -33.5t26.5 -81.5q0 -74 -62.5 -126t-137.5 -52q-37 0 -135 29q-75 22 -97 22z" />
    <glyph glyph-name="Odieresis" unicode="&#xd6;" horiz-adv-x="1479" 
d="M1444 729q0 -324 -199 -539t-506 -215q-305 0 -504.5 216t-199.5 538q0 323 197 538.5t507 215.5q302 0 503.5 -218.5t201.5 -535.5zM354 729q0 -208 103.5 -339.5t281.5 -131.5q179 0 282 131.5t103 339.5q0 205 -104 338t-281 133q-176 0 -280.5 -133t-104.5 -338z
M965 1567q-62 0 -105 43t-43 104q0 62 43 105t105 43q61 0 104 -43t43 -105q0 -61 -43 -104t-104 -43zM514 1567q-61 0 -104 43t-43 104q0 62 43 105t104 43t104.5 -43t43.5 -105q0 -61 -43.5 -104t-104.5 -43z" />
    <glyph glyph-name="multiply" unicode="&#xd7;" horiz-adv-x="1229" 
d="M446 518l-255 256q-16 16 -26.5 36.5t-10.5 39.5q0 48 37 88.5t85 40.5q46 0 83 -38l255 -255q259 259 279 276t59 17q50 0 86.5 -42t36.5 -87q0 -39 -43 -82l-250 -250q259 -259 276 -278.5t17 -59.5q0 -48 -40.5 -85.5t-88.5 -37.5q-39 0 -82 43l-250 250l-255 -256
q-16 -16 -36.5 -26.5t-39.5 -10.5q-50 0 -89.5 38t-39.5 85q0 45 37 83z" />
    <glyph glyph-name="Oslash" unicode="&#xd8;" horiz-adv-x="1479" 
d="M293 131q-143 -148 -164 -158t-43 -10q-31 0 -58.5 28.5t-27.5 63.5t33 68l139 141q-137 200 -137 465q0 323 197 538.5t507 215.5q266 0 443 -156q128 131 158.5 149.5t54.5 18.5q31 0 57.5 -21.5t26.5 -50.5q0 -45 -11 -57l-165 -170q141 -209 141 -467
q0 -324 -199 -539t-506 -215q-267 0 -446 156zM397 500l580 614q-93 86 -238 86q-176 0 -280.5 -133t-104.5 -338q0 -134 43 -229zM1079 963l-579 -617q88 -88 239 -88q179 0 282 131.5t103 339.5q0 138 -45 234z" />
    <glyph glyph-name="Ugrave" unicode="&#xd9;" horiz-adv-x="1403" 
d="M80 580v731q0 73 42.5 116t110.5 43q69 0 111.5 -43t42.5 -116v-715q0 -147 87.5 -242.5t227.5 -95.5q135 0 224.5 99t89.5 239v715q0 73 42.5 116t110.5 43q69 0 111.5 -43t42.5 -116v-731q0 -256 -182 -430.5t-439 -174.5q-259 0 -440.5 174.5t-181.5 430.5zM561 1914
q27 0 120 -38l164 -66q71 -29 90 -54.5t19 -50.5q0 -57 -32.5 -103t-75.5 -46q-30 0 -64 13l-228 90q-61 23 -82.5 52.5t-21.5 75.5q0 45 34 86t77 41z" />
    <glyph glyph-name="Uacute" unicode="&#xda;" horiz-adv-x="1403" 
d="M80 580v731q0 73 42.5 116t110.5 43q69 0 111.5 -43t42.5 -116v-715q0 -147 87.5 -242.5t227.5 -95.5q135 0 224.5 99t89.5 239v715q0 73 42.5 116t110.5 43q69 0 111.5 -43t42.5 -116v-731q0 -256 -182 -430.5t-439 -174.5q-259 0 -440.5 174.5t-181.5 430.5zM720 1875
q73 29 90.5 34t33.5 5q43 0 76.5 -41t33.5 -86q0 -35 -12.5 -61t-33 -39.5t-155 -66t-150.5 -58.5t-44 -6q-43 0 -76 46t-33 103q0 25 17 47.5t41 34.5z" />
    <glyph glyph-name="Ucircumflex" unicode="&#xdb;" horiz-adv-x="1403" 
d="M80 580v731q0 73 42.5 116t110.5 43q69 0 111.5 -43t42.5 -116v-715q0 -147 87.5 -242.5t227.5 -95.5q135 0 224.5 99t89.5 239v715q0 73 42.5 116t110.5 43q69 0 111.5 -43t42.5 -116v-731q0 -256 -182 -430.5t-439 -174.5q-259 0 -440.5 174.5t-181.5 430.5zM702 1623
q-162 -71 -186 -71q-48 0 -86.5 40.5t-38.5 90.5q0 45 23 75t71 49l217 89q219 -89 243 -99.5t46.5 -39t22.5 -74.5q0 -50 -38.5 -90.5t-86.5 -40.5q-24 0 -187 71z" />
    <glyph glyph-name="Udieresis" unicode="&#xdc;" horiz-adv-x="1403" 
d="M80 580v731q0 73 42.5 116t110.5 43q69 0 111.5 -43t42.5 -116v-715q0 -147 87.5 -242.5t227.5 -95.5q135 0 224.5 99t89.5 239v715q0 73 42.5 116t110.5 43q69 0 111.5 -43t42.5 -116v-731q0 -256 -182 -430.5t-439 -174.5q-259 0 -440.5 174.5t-181.5 430.5zM928 1567
q-62 0 -105 43t-43 104q0 62 43 105t105 43q61 0 104 -43t43 -105q0 -61 -43 -104t-104 -43zM477 1567q-61 0 -104 43t-43 104q0 62 43 105t104 43t104.5 -43t43.5 -105q0 -61 -43.5 -104t-104.5 -43z" />
    <glyph glyph-name="Yacute" unicode="&#xdd;" horiz-adv-x="1098" 
d="M395 137v547l-247 348q-142 199 -149 210.5t-13 33.5t-6 45q0 62 41.5 105.5t105.5 43.5q85 0 132 -68l290 -421l294 427q22 31 55 46.5t73 15.5q63 0 105 -43.5t42 -105.5q0 -17 -3.5 -33.5t-10 -31.5t-62.5 -95l-340 -477v-547q0 -66 -40.5 -107.5t-112.5 -41.5
q-73 0 -113.5 41.5t-40.5 107.5zM567 1875q73 29 90.5 34t33.5 5q43 0 76.5 -41t33.5 -86q0 -35 -12.5 -61t-33 -39.5t-155 -66t-150.5 -58.5t-44 -6q-43 0 -76 46t-33 103q0 25 17 47.5t41 34.5z" />
    <glyph glyph-name="Thorn" unicode="&#xde;" 
d="M92 147v1164q0 73 42.5 116t111.5 43t111 -43t42 -116v-58h215q229 0 377 -137t148 -352t-146.5 -350t-365.5 -135h-228v-132q0 -74 -42.5 -116.5t-110.5 -42.5q-69 0 -111.5 43t-42.5 116zM399 983v-434h209q94 0 152.5 61t58.5 156q0 94 -58 155.5t-153 61.5h-209z" />
    <glyph glyph-name="germandbls" unicode="&#xdf;" 
d="M80 152v905q0 227 124.5 373.5t348.5 146.5q190 0 316 -119t126 -303q0 -92 -35.5 -169.5t-103.5 -119.5q122 -36 188 -147t66 -254q0 -186 -129.5 -338t-318.5 -152q-86 0 -132.5 40.5t-46.5 107.5q0 44 27 76t130 55q87 19 131 79.5t44 131.5q0 87 -27.5 135t-67 66.5
t-102.5 34.5q-75 19 -111 45t-36 96q0 60 27 85t82 45q65 23 99 58t34 125q0 59 -46 105.5t-114 46.5q-89 0 -133.5 -56.5t-44.5 -193.5v-905q0 -73 -41.5 -118.5t-106.5 -45.5t-106 45.5t-41 118.5z" />
    <glyph glyph-name="agrave" unicode="&#xe0;" horiz-adv-x="1176" 
d="M1092 909v-729q0 -55 -7.5 -94t-38.5 -68.5t-96 -29.5q-111 0 -141 125q-115 -138 -281 -138q-208 0 -347.5 161t-139.5 407q0 241 142 406t345 165q182 0 281 -135q7 55 48 89t93 34q65 0 103.5 -37.5t38.5 -155.5zM569 844q-107 0 -170 -88t-63 -213
q0 -124 63.5 -210.5t169.5 -86.5q103 0 165.5 87t62.5 210q0 124 -62 212.5t-166 88.5zM447 1583q27 0 120 -38l164 -66q71 -29 90 -54.5t19 -50.5q0 -57 -32.5 -103t-75.5 -46q-30 0 -64 13l-228 90q-61 23 -82.5 52.5t-21.5 75.5q0 45 34 86t77 41z" />
    <glyph glyph-name="aacute" unicode="&#xe1;" horiz-adv-x="1176" 
d="M1092 909v-729q0 -55 -7.5 -94t-38.5 -68.5t-96 -29.5q-111 0 -141 125q-115 -138 -281 -138q-208 0 -347.5 161t-139.5 407q0 241 142 406t345 165q182 0 281 -135q7 55 48 89t93 34q65 0 103.5 -37.5t38.5 -155.5zM569 844q-107 0 -170 -88t-63 -213
q0 -124 63.5 -210.5t169.5 -86.5q103 0 165.5 87t62.5 210q0 124 -62 212.5t-166 88.5zM606 1544q73 29 90.5 34t33.5 5q43 0 76.5 -41t33.5 -86q0 -35 -12.5 -61t-33 -39.5t-155 -66t-150.5 -58.5t-44 -6q-43 0 -76 46t-33 103q0 25 17 47.5t41 34.5z" />
    <glyph glyph-name="acircumflex" unicode="&#xe2;" horiz-adv-x="1176" 
d="M1092 909v-729q0 -55 -7.5 -94t-38.5 -68.5t-96 -29.5q-111 0 -141 125q-115 -138 -281 -138q-208 0 -347.5 161t-139.5 407q0 241 142 406t345 165q182 0 281 -135q7 55 48 89t93 34q65 0 103.5 -37.5t38.5 -155.5zM569 844q-107 0 -170 -88t-63 -213
q0 -124 63.5 -210.5t169.5 -86.5q103 0 165.5 87t62.5 210q0 124 -62 212.5t-166 88.5zM587 1292q-162 -71 -186 -71q-48 0 -86.5 40.5t-38.5 90.5q0 45 23 75t71 49l217 89q219 -89 243 -99.5t46.5 -39t22.5 -74.5q0 -50 -38.5 -90.5t-86.5 -40.5q-24 0 -187 71z" />
    <glyph glyph-name="atilde" unicode="&#xe3;" horiz-adv-x="1176" 
d="M1092 909v-729q0 -55 -7.5 -94t-38.5 -68.5t-96 -29.5q-111 0 -141 125q-115 -138 -281 -138q-208 0 -347.5 161t-139.5 407q0 241 142 406t345 165q182 0 281 -135q7 55 48 89t93 34q65 0 103.5 -37.5t38.5 -155.5zM569 844q-107 0 -170 -88t-63 -213
q0 -124 63.5 -210.5t169.5 -86.5q103 0 165.5 87t62.5 210q0 124 -62 212.5t-166 88.5zM496 1292q-23 0 -61 -23q-47 -30 -84 -30q-38 0 -70.5 34t-32.5 73q0 80 55.5 130t139.5 50q55 0 150 -32q59 -19 79 -19q19 0 69 26q61 33 91 33q43 0 69.5 -33.5t26.5 -81.5
q0 -74 -62.5 -126t-137.5 -52q-37 0 -135 29q-75 22 -97 22z" />
    <glyph glyph-name="adieresis" unicode="&#xe4;" horiz-adv-x="1176" 
d="M1092 909v-729q0 -55 -7.5 -94t-38.5 -68.5t-96 -29.5q-111 0 -141 125q-115 -138 -281 -138q-208 0 -347.5 161t-139.5 407q0 241 142 406t345 165q182 0 281 -135q7 55 48 89t93 34q65 0 103.5 -37.5t38.5 -155.5zM569 844q-107 0 -170 -88t-63 -213
q0 -124 63.5 -210.5t169.5 -86.5q103 0 165.5 87t62.5 210q0 124 -62 212.5t-166 88.5zM814 1235q-62 0 -105 43t-43 104q0 62 43 105t105 43q61 0 104 -43t43 -105q0 -61 -43 -104t-104 -43zM363 1235q-61 0 -104 43t-43 104q0 62 43 105t104 43t104.5 -43t43.5 -105
q0 -61 -43.5 -104t-104.5 -43z" />
    <glyph glyph-name="aring" unicode="&#xe5;" horiz-adv-x="1176" 
d="M1092 909v-729q0 -55 -7.5 -94t-38.5 -68.5t-96 -29.5q-111 0 -141 125q-115 -138 -281 -138q-208 0 -347.5 161t-139.5 407q0 241 142 406t345 165q182 0 281 -135q7 55 48 89t93 34q65 0 103.5 -37.5t38.5 -155.5zM569 844q-107 0 -170 -88t-63 -213
q0 -124 63.5 -210.5t169.5 -86.5q103 0 165.5 87t62.5 210q0 124 -62 212.5t-166 88.5zM588 1186q-84 0 -143 59t-59 144q0 84 59 143t143 59t143.5 -59t59.5 -143q0 -85 -59.5 -144t-143.5 -59zM588 1481q-38 0 -65 -27t-27 -65q0 -39 27 -66t65 -27q39 0 65.5 27t26.5 66
q0 38 -26.5 65t-65.5 27z" />
    <glyph glyph-name="ae" unicode="&#xe6;" horiz-adv-x="1858" 
d="M1708 446h-629q16 -102 92.5 -157.5t188.5 -55.5q87 0 218 74q81 45 114 45q46 0 83 -39.5t37 -87.5q0 -93 -156 -171.5t-325 -78.5q-171 0 -287 86q-23 -73 -110 -73q-125 0 -125 125h-4q-109 -138 -277 -138q-208 0 -347.5 161t-139.5 407q0 241 142 406t345 165
q181 0 285 -135h4q0 58 33.5 90.5t83.5 32.5q91 0 110 -82q101 94 259 94q212 0 373 -161.5t161 -374.5q0 -132 -129 -132zM1075 643h467q-14 106 -76.5 165.5t-156.5 59.5q-92 0 -156.5 -61.5t-77.5 -163.5zM569 844q-107 0 -170 -88t-63 -213q0 -124 63.5 -210.5
t169.5 -86.5q103 0 165.5 87t62.5 210q0 124 -62 212.5t-166 88.5z" />
    <glyph glyph-name="ccedilla" unicode="&#xe7;" horiz-adv-x="948" 
d="M614 -20l-63 -84q7 0 22 3q16 3 23 3q67 0 110.5 -42.5t43.5 -113.5q0 -87 -68.5 -139.5t-159.5 -52.5q-83 0 -133.5 26t-50.5 76q0 23 14 38t35 15q9 0 38 -8q45 -13 69 -13q59 0 59 58q0 26 -12.5 41.5t-57.5 15.5q-46 0 -57.5 13t-11.5 34t80 132q-209 32 -331 191
t-122 370q0 233 152.5 402t375.5 169q136 0 248.5 -49.5t112.5 -136.5q0 -52 -33 -97t-80 -45q-34 0 -102 26q-81 32 -131 32q-114 0 -181 -86t-67 -215q0 -121 69 -209t179 -88q43 0 146 39q59 22 73 22q51 0 89 -38.5t38 -90.5q0 -79 -89.5 -132.5t-226.5 -65.5z" />
    <glyph glyph-name="egrave" unicode="&#xe8;" horiz-adv-x="1100" 
d="M950 446h-628q15 -102 91 -157.5t187 -55.5q88 0 221 74q80 45 113 45q47 0 84 -39.5t37 -87.5q0 -90 -155 -170t-327 -80q-244 0 -398.5 160t-154.5 408q0 233 152.5 402t376.5 169q222 0 376 -167.5t154 -368.5q0 -132 -129 -132zM315 643h469q-14 106 -77 165.5
t-158 59.5q-91 0 -156 -61.5t-78 -163.5zM410 1583q27 0 120 -38l164 -66q71 -29 90 -54.5t19 -50.5q0 -57 -32.5 -103t-75.5 -46q-30 0 -64 13l-228 90q-61 23 -82.5 52.5t-21.5 75.5q0 45 34 86t77 41z" />
    <glyph glyph-name="eacute" unicode="&#xe9;" horiz-adv-x="1100" 
d="M950 446h-628q15 -102 91 -157.5t187 -55.5q88 0 221 74q80 45 113 45q47 0 84 -39.5t37 -87.5q0 -90 -155 -170t-327 -80q-244 0 -398.5 160t-154.5 408q0 233 152.5 402t376.5 169q222 0 376 -167.5t154 -368.5q0 -132 -129 -132zM315 643h469q-14 106 -77 165.5
t-158 59.5q-91 0 -156 -61.5t-78 -163.5zM569 1544q73 29 90.5 34t33.5 5q43 0 76.5 -41t33.5 -86q0 -35 -12.5 -61t-33 -39.5t-155 -66t-150.5 -58.5t-44 -6q-43 0 -76 46t-33 103q0 25 17 47.5t41 34.5z" />
    <glyph glyph-name="ecircumflex" unicode="&#xea;" horiz-adv-x="1100" 
d="M950 446h-628q15 -102 91 -157.5t187 -55.5q88 0 221 74q80 45 113 45q47 0 84 -39.5t37 -87.5q0 -90 -155 -170t-327 -80q-244 0 -398.5 160t-154.5 408q0 233 152.5 402t376.5 169q222 0 376 -167.5t154 -368.5q0 -132 -129 -132zM315 643h469q-14 106 -77 165.5
t-158 59.5q-91 0 -156 -61.5t-78 -163.5zM551 1292q-162 -71 -186 -71q-48 0 -86.5 40.5t-38.5 90.5q0 45 23 75t71 49l217 89q219 -89 243 -99.5t46.5 -39t22.5 -74.5q0 -50 -38.5 -90.5t-86.5 -40.5q-24 0 -187 71z" />
    <glyph glyph-name="edieresis" unicode="&#xeb;" horiz-adv-x="1100" 
d="M950 446h-628q15 -102 91 -157.5t187 -55.5q88 0 221 74q80 45 113 45q47 0 84 -39.5t37 -87.5q0 -90 -155 -170t-327 -80q-244 0 -398.5 160t-154.5 408q0 233 152.5 402t376.5 169q222 0 376 -167.5t154 -368.5q0 -132 -129 -132zM315 643h469q-14 106 -77 165.5
t-158 59.5q-91 0 -156 -61.5t-78 -163.5zM777 1235q-62 0 -105 43t-43 104q0 62 43 105t105 43q61 0 104 -43t43 -105q0 -61 -43 -104t-104 -43zM326 1235q-61 0 -104 43t-43 104q0 62 43 105t104 43t104.5 -43t43.5 -105q0 -61 -43.5 -104t-104.5 -43z" />
    <glyph glyph-name="igrave" unicode="&#xec;" horiz-adv-x="455" 
d="M80 152v786q0 73 41 118.5t106 45.5t106.5 -45.5t41.5 -118.5v-786q0 -73 -41.5 -118.5t-106.5 -45.5t-106 45.5t-41 118.5zM86 1583q27 0 120 -38l164 -66q71 -29 90 -54.5t19 -50.5q0 -57 -32.5 -103t-75.5 -46q-30 0 -64 13l-228 90q-61 23 -82.5 52.5t-21.5 75.5
q0 45 34 86t77 41z" />
    <glyph glyph-name="iacute" unicode="&#xed;" horiz-adv-x="455" 
d="M80 152v786q0 73 41 118.5t106 45.5t106.5 -45.5t41.5 -118.5v-786q0 -73 -41.5 -118.5t-106.5 -45.5t-106 45.5t-41 118.5zM245 1544q73 29 90.5 34t33.5 5q43 0 76.5 -41t33.5 -86q0 -35 -12.5 -61t-33 -39.5t-155 -66t-150.5 -58.5t-44 -6q-43 0 -76 46t-33 103
q0 25 17 47.5t41 34.5z" />
    <glyph glyph-name="icircumflex" unicode="&#xee;" horiz-adv-x="455" 
d="M80 152v786q0 73 41 118.5t106 45.5t106.5 -45.5t41.5 -118.5v-786q0 -73 -41.5 -118.5t-106.5 -45.5t-106 45.5t-41 118.5zM227 1292q-162 -71 -186 -71q-48 0 -86.5 40.5t-38.5 90.5q0 45 23 75t71 49l217 89q219 -89 243 -99.5t46.5 -39t22.5 -74.5q0 -50 -38.5 -90.5
t-86.5 -40.5q-24 0 -187 71z" />
    <glyph glyph-name="idieresis" unicode="&#xef;" horiz-adv-x="455" 
d="M80 152v786q0 73 41 118.5t106 45.5t106.5 -45.5t41.5 -118.5v-786q0 -73 -41.5 -118.5t-106.5 -45.5t-106 45.5t-41 118.5zM453 1235q-62 0 -105 43t-43 104q0 62 43 105t105 43q61 0 104 -43t43 -105q0 -61 -43 -104t-104 -43zM2 1235q-61 0 -104 43t-43 104
q0 62 43 105t104 43t104.5 -43t43.5 -105q0 -61 -43.5 -104t-104.5 -43z" />
    <glyph glyph-name="eth" unicode="&#xf0;" 
d="M784 1380q161 -149 237.5 -334.5t76.5 -453.5q0 -271 -147.5 -444t-381.5 -173q-229 0 -378.5 164.5t-149.5 403.5q0 202 143 363t353 161q150 0 231 -88l4 4q-83 179 -229 268q-177 -93 -211 -110t-62 -17q-29 0 -50 20t-21 54q0 51 56 80l126 65q-143 56 -143 119
q0 67 38.5 97t120.5 30q104 0 267 -96q174 94 193 102.5t44 8.5q30 0 51 -22.5t21 -55.5q0 -36 -22 -52t-167 -94zM803 543q0 113 -65 189.5t-171 76.5q-99 0 -165 -80t-66 -186q0 -124 63.5 -210.5t169.5 -86.5q107 0 170.5 86.5t63.5 210.5z" />
    <glyph glyph-name="ntilde" unicode="&#xf1;" 
d="M84 152v786q0 73 41 118.5t106 45.5q117 0 136 -109q85 121 284 121q180 0 292 -108.5t112 -288.5v-565q0 -74 -41.5 -119t-106.5 -45t-106 45.5t-41 118.5v514q0 98 -54 150t-139 52q-86 0 -137 -56t-51 -146v-514q0 -73 -41.5 -118.5t-106.5 -45.5q-64 0 -105.5 45.5
t-41.5 118.5zM477 1292q-23 0 -61 -23q-47 -30 -84 -30q-38 0 -70.5 34t-32.5 73q0 80 55.5 130t139.5 50q55 0 150 -32q59 -19 79 -19q19 0 69 26q61 33 91 33q43 0 69.5 -33.5t26.5 -81.5q0 -74 -62.5 -126t-137.5 -52q-37 0 -135 29q-75 22 -97 22z" />
    <glyph glyph-name="ograve" unicode="&#xf2;" 
d="M41 543q0 233 152.5 402t375.5 169q224 0 376.5 -169t152.5 -402q0 -239 -150 -403.5t-379 -164.5t-378.5 164.5t-149.5 403.5zM803 543q0 125 -63.5 213t-170.5 88t-170 -88t-63 -213q0 -124 63.5 -210.5t169.5 -86.5q107 0 170.5 86.5t63.5 210.5zM428 1583
q27 0 120 -38l164 -66q71 -29 90 -54.5t19 -50.5q0 -57 -32.5 -103t-75.5 -46q-30 0 -64 13l-228 90q-61 23 -82.5 52.5t-21.5 75.5q0 45 34 86t77 41z" />
    <glyph glyph-name="oacute" unicode="&#xf3;" 
d="M41 543q0 233 152.5 402t375.5 169q224 0 376.5 -169t152.5 -402q0 -239 -150 -403.5t-379 -164.5t-378.5 164.5t-149.5 403.5zM803 543q0 125 -63.5 213t-170.5 88t-170 -88t-63 -213q0 -124 63.5 -210.5t169.5 -86.5q107 0 170.5 86.5t63.5 210.5zM587 1544
q73 29 90.5 34t33.5 5q43 0 76.5 -41t33.5 -86q0 -35 -12.5 -61t-33 -39.5t-155 -66t-150.5 -58.5t-44 -6q-43 0 -76 46t-33 103q0 25 17 47.5t41 34.5z" />
    <glyph glyph-name="ocircumflex" unicode="&#xf4;" 
d="M41 543q0 233 152.5 402t375.5 169q224 0 376.5 -169t152.5 -402q0 -239 -150 -403.5t-379 -164.5t-378.5 164.5t-149.5 403.5zM803 543q0 125 -63.5 213t-170.5 88t-170 -88t-63 -213q0 -124 63.5 -210.5t169.5 -86.5q107 0 170.5 86.5t63.5 210.5zM569 1292
q-162 -71 -186 -71q-48 0 -86.5 40.5t-38.5 90.5q0 45 23 75t71 49l217 89q219 -89 243 -99.5t46.5 -39t22.5 -74.5q0 -50 -38.5 -90.5t-86.5 -40.5q-24 0 -187 71z" />
    <glyph glyph-name="otilde" unicode="&#xf5;" 
d="M41 543q0 233 152.5 402t375.5 169q224 0 376.5 -169t152.5 -402q0 -239 -150 -403.5t-379 -164.5t-378.5 164.5t-149.5 403.5zM803 543q0 125 -63.5 213t-170.5 88t-170 -88t-63 -213q0 -124 63.5 -210.5t169.5 -86.5q107 0 170.5 86.5t63.5 210.5zM477 1292
q-23 0 -61 -23q-47 -30 -84 -30q-38 0 -70.5 34t-32.5 73q0 80 55.5 130t139.5 50q55 0 150 -32q59 -19 79 -19q19 0 69 26q61 33 91 33q43 0 69.5 -33.5t26.5 -81.5q0 -74 -62.5 -126t-137.5 -52q-37 0 -135 29q-75 22 -97 22z" />
    <glyph glyph-name="odieresis" unicode="&#xf6;" 
d="M41 543q0 233 152.5 402t375.5 169q224 0 376.5 -169t152.5 -402q0 -239 -150 -403.5t-379 -164.5t-378.5 164.5t-149.5 403.5zM803 543q0 125 -63.5 213t-170.5 88t-170 -88t-63 -213q0 -124 63.5 -210.5t169.5 -86.5q107 0 170.5 86.5t63.5 210.5zM795 1235
q-62 0 -105 43t-43 104q0 62 43 105t105 43q61 0 104 -43t43 -105q0 -61 -43 -104t-104 -43zM344 1235q-61 0 -104 43t-43 104q0 62 43 105t104 43t104.5 -43t43.5 -105q0 -61 -43.5 -104t-104.5 -43z" />
    <glyph glyph-name="divide" unicode="&#xf7;" horiz-adv-x="1229" 
d="M614 782q-65 0 -112 47t-47 113t47 113t112 47q66 0 113 -47t47 -113t-47 -113t-113 -47zM195 641h839q56 0 89.5 -33.5t33.5 -89.5t-33.5 -89.5t-89.5 -33.5h-839q-57 0 -90 33.5t-33 89.5t33 89.5t90 33.5zM614 -66q-65 0 -112 47t-47 113t47 113t112 47q66 0 113 -47
t47 -113t-47 -113t-113 -47z" />
    <glyph glyph-name="oslash" unicode="&#xf8;" 
d="M248 86q-108 -114 -124 -122.5t-30 -8.5q-34 0 -59 25t-25 59t21 55l108 113q-98 147 -98 336q0 233 152.5 402t375.5 169q185 0 326 -121q107 114 121.5 121.5t27.5 7.5q35 0 59.5 -25t24.5 -59t-20 -55l-107 -111q97 -152 97 -329q0 -239 -150 -403.5t-379 -164.5
q-186 0 -321 111zM354 430l351 365q-54 49 -136 49q-107 0 -170 -88t-63 -213q0 -60 18 -113zM788 651l-346 -360q52 -45 127 -45q107 0 170.5 86.5t63.5 210.5q0 57 -15 108z" />
    <glyph glyph-name="ugrave" unicode="&#xf9;" 
d="M84 406v532q0 73 41 118.5t106 45.5t106.5 -45.5t41.5 -118.5v-526q0 -86 55 -138.5t135 -52.5t135.5 52.5t55.5 138.5v526q0 73 41 118.5t106 45.5t106.5 -45.5t41.5 -118.5v-532q0 -201 -128.5 -316t-357.5 -115q-228 0 -356.5 115t-128.5 316zM428 1583q27 0 120 -38
l164 -66q71 -29 90 -54.5t19 -50.5q0 -57 -32.5 -103t-75.5 -46q-30 0 -64 13l-228 90q-61 23 -82.5 52.5t-21.5 75.5q0 45 34 86t77 41z" />
    <glyph glyph-name="uacute" unicode="&#xfa;" 
d="M84 406v532q0 73 41 118.5t106 45.5t106.5 -45.5t41.5 -118.5v-526q0 -86 55 -138.5t135 -52.5t135.5 52.5t55.5 138.5v526q0 73 41 118.5t106 45.5t106.5 -45.5t41.5 -118.5v-532q0 -201 -128.5 -316t-357.5 -115q-228 0 -356.5 115t-128.5 316zM587 1544q73 29 90.5 34
t33.5 5q43 0 76.5 -41t33.5 -86q0 -35 -12.5 -61t-33 -39.5t-155 -66t-150.5 -58.5t-44 -6q-43 0 -76 46t-33 103q0 25 17 47.5t41 34.5z" />
    <glyph glyph-name="ucircumflex" unicode="&#xfb;" 
d="M84 406v532q0 73 41 118.5t106 45.5t106.5 -45.5t41.5 -118.5v-526q0 -86 55 -138.5t135 -52.5t135.5 52.5t55.5 138.5v526q0 73 41 118.5t106 45.5t106.5 -45.5t41.5 -118.5v-532q0 -201 -128.5 -316t-357.5 -115q-228 0 -356.5 115t-128.5 316zM569 1292
q-162 -71 -186 -71q-48 0 -86.5 40.5t-38.5 90.5q0 45 23 75t71 49l217 89q219 -89 243 -99.5t46.5 -39t22.5 -74.5q0 -50 -38.5 -90.5t-86.5 -40.5q-24 0 -187 71z" />
    <glyph glyph-name="udieresis" unicode="&#xfc;" 
d="M84 406v532q0 73 41 118.5t106 45.5t106.5 -45.5t41.5 -118.5v-526q0 -86 55 -138.5t135 -52.5t135.5 52.5t55.5 138.5v526q0 73 41 118.5t106 45.5t106.5 -45.5t41.5 -118.5v-532q0 -201 -128.5 -316t-357.5 -115q-228 0 -356.5 115t-128.5 316zM795 1235q-62 0 -105 43
t-43 104q0 62 43 105t105 43q61 0 104 -43t43 -105q0 -61 -43 -104t-104 -43zM344 1235q-61 0 -104 43t-43 104q0 62 43 105t104 43t104.5 -43t43.5 -105q0 -61 -43.5 -104t-104.5 -43z" />
    <glyph glyph-name="yacute" unicode="&#xfd;" horiz-adv-x="985" 
d="M336 86l-326 813q-14 39 -14 76q0 52 45 89.5t94 37.5q110 0 151 -114l199 -546l219 559q20 51 57.5 76t88.5 25q50 0 94.5 -38t44.5 -89q0 -40 -14 -76l-494 -1229q-46 -116 -139 -116q-69 0 -111.5 37t-42.5 90q0 40 19 86zM511 1544q73 29 90.5 34t33.5 5
q43 0 76.5 -41t33.5 -86q0 -35 -12.5 -61t-33 -39.5t-155 -66t-150.5 -58.5t-44 -6q-43 0 -76 46t-33 103q0 25 17 47.5t41 34.5z" />
    <glyph glyph-name="thorn" unicode="&#xfe;" horiz-adv-x="1176" 
d="M84 -283v1696q0 73 41.5 118.5t105.5 45.5q65 0 106.5 -45.5t41.5 -118.5v-434h4q37 64 111 99.5t155 35.5q209 0 347.5 -165.5t138.5 -389.5q0 -232 -134 -408t-342 -176q-161 0 -280 103v-361q0 -72 -41.5 -117.5t-106.5 -45.5q-64 0 -105.5 45.5t-41.5 117.5zM610 844
q-106 0 -168.5 -89.5t-62.5 -217.5q0 -124 62.5 -207.5t168.5 -83.5q103 0 166.5 89.5t63.5 211.5q0 119 -63.5 208t-166.5 89z" />
    <glyph glyph-name="ydieresis" unicode="&#xff;" horiz-adv-x="985" 
d="M336 86l-326 813q-14 39 -14 76q0 52 45 89.5t94 37.5q110 0 151 -114l199 -546l219 559q20 51 57.5 76t88.5 25q50 0 94.5 -38t44.5 -89q0 -40 -14 -76l-494 -1229q-46 -116 -139 -116q-69 0 -111.5 37t-42.5 90q0 40 19 86zM719 1235q-62 0 -105 43t-43 104
q0 62 43 105t105 43q61 0 104 -43t43 -105q0 -61 -43 -104t-104 -43zM268 1235q-61 0 -104 43t-43 104q0 62 43 105t104 43t104.5 -43t43.5 -105q0 -61 -43.5 -104t-104.5 -43z" />
    <glyph glyph-name="Amacron" unicode="&#x100;" horiz-adv-x="1290" 
d="M18 199l412 1114q28 76 87 123t132 47q75 0 132.5 -44.5t86.5 -125.5l402 -1114q16 -44 16 -76q0 -58 -41.5 -96.5t-99.5 -38.5t-95.5 27t-55.5 82l-60 190h-569q-64 -196 -73.5 -222t-44.5 -51.5t-91 -25.5q-63 0 -107.5 41.5t-44.5 101.5q0 29 14 68zM647 1163
l-194 -594h389l-191 594h-4zM461 1827h381q60 0 96.5 -33t36.5 -90t-36 -90t-97 -33h-381q-61 0 -97 33t-36 90t36.5 90t96.5 33z" />
    <glyph glyph-name="amacron" unicode="&#x101;" horiz-adv-x="1176" 
d="M1092 909v-729q0 -55 -7.5 -94t-38.5 -68.5t-96 -29.5q-111 0 -141 125q-115 -138 -281 -138q-208 0 -347.5 161t-139.5 407q0 241 142 406t345 165q182 0 281 -135q7 55 48 89t93 34q65 0 103.5 -37.5t38.5 -155.5zM569 844q-107 0 -170 -88t-63 -213
q0 -124 63.5 -210.5t169.5 -86.5q103 0 165.5 87t62.5 210q0 124 -62 212.5t-166 88.5zM383 1495h381q60 0 96.5 -33t36.5 -90t-36 -90t-97 -33h-381q-61 0 -97 33t-36 90t36.5 90t96.5 33z" />
    <glyph glyph-name="Abreve" unicode="&#x102;" horiz-adv-x="1290" 
d="M18 199l412 1114q28 76 87 123t132 47q75 0 132.5 -44.5t86.5 -125.5l402 -1114q16 -44 16 -76q0 -58 -41.5 -96.5t-99.5 -38.5t-95.5 27t-55.5 82l-60 190h-569q-64 -196 -73.5 -222t-44.5 -51.5t-91 -25.5q-63 0 -107.5 41.5t-44.5 101.5q0 29 14 68zM647 1163
l-194 -594h389l-191 594h-4zM649 1554q-123 0 -220 57.5t-97 155.5q0 53 24 88t68 35q42 0 65 -17.5t48 -52.5q24 -35 47 -52.5t65 -17.5q24 0 46.5 11t54.5 54q36 49 65 62t60 13q36 0 64 -39.5t28 -83.5q0 -101 -103.5 -157t-214.5 -56z" />
    <glyph glyph-name="abreve" unicode="&#x103;" horiz-adv-x="1176" 
d="M1092 909v-729q0 -55 -7.5 -94t-38.5 -68.5t-96 -29.5q-111 0 -141 125q-115 -138 -281 -138q-208 0 -347.5 161t-139.5 407q0 241 142 406t345 165q182 0 281 -135q7 55 48 89t93 34q65 0 103.5 -37.5t38.5 -155.5zM569 844q-107 0 -170 -88t-63 -213
q0 -124 63.5 -210.5t169.5 -86.5q103 0 165.5 87t62.5 210q0 124 -62 212.5t-166 88.5zM573 1223q-123 0 -220 57.5t-97 155.5q0 53 24 88t68 35q42 0 65 -17.5t48 -52.5q24 -35 47 -52.5t65 -17.5q24 0 46.5 11t54.5 54q36 49 65 62t60 13q36 0 64 -39.5t28 -83.5
q0 -101 -103.5 -157t-214.5 -56z" />
    <glyph glyph-name="Aogonek" unicode="&#x104;" horiz-adv-x="1290" 
d="M430 1313q28 74 87 122t132 48q159 0 219 -170l402 -1114q12 -33 12 -70q0 -64 -47 -111q-121 -121 -121 -217q0 -112 78 -112q19 0 40 7t40 7q43 0 43 -45q0 -43 -59.5 -73.5t-143.5 -30.5q-85 0 -138.5 48.5t-53.5 135.5q0 153 141 268q-43 23 -66 88l-61 193h-569
l-62 -191q-35 -108 -147 -108q-61 0 -106.5 41t-45.5 102q0 31 14 68zM453 569h389l-191 594h-4z" />
    <glyph glyph-name="aogonek" unicode="&#x105;" horiz-adv-x="1176" 
d="M1092 147q0 -67 -60 -135q-114 -130 -114 -239q0 -84 77 -84q19 0 40 7t40 7q43 0 43 -45q0 -43 -59.5 -73.5t-143.5 -30.5q-86 0 -137 48t-51 132q0 130 137 278q-41 30 -55 101q-116 -138 -281 -138q-210 0 -348.5 162t-138.5 406q0 242 143 406.5t344 164.5
q183 0 281 -135q6 53 46.5 88t94.5 35q77 0 109.5 -44t32.5 -149v-762zM569 246q103 0 165.5 87.5t62.5 209.5q0 125 -62.5 213t-165.5 88q-108 0 -170.5 -89t-62.5 -212t63.5 -210t169.5 -87z" />
    <glyph glyph-name="Cacute" unicode="&#x106;" horiz-adv-x="1251" 
d="M739 -25q-305 0 -504.5 216t-199.5 538q0 323 197 538.5t507 215.5q174 0 307.5 -60.5t133.5 -169.5q0 -57 -36.5 -97t-90.5 -40q-35 0 -100 27q-112 45 -214 45q-176 0 -280.5 -130.5t-104.5 -334.5q0 -198 105 -325.5t280 -127.5q102 0 222 55q69 31 104 31
q59 0 97 -46t38 -93q0 -116 -137 -179t-324 -63zM741 1875q73 29 90.5 34t33.5 5q43 0 76.5 -41t33.5 -86q0 -35 -12.5 -61t-33 -39.5t-155 -66t-150.5 -58.5t-44 -6q-43 0 -76 46t-33 103q0 25 17 47.5t41 34.5z" />
    <glyph glyph-name="cacute" unicode="&#x107;" horiz-adv-x="948" 
d="M569 1114q136 0 248.5 -49.5t112.5 -136.5q0 -52 -33 -97t-80 -45q-34 0 -102 26q-81 32 -131 32q-114 0 -181 -86t-67 -215q0 -121 69 -209t179 -88q43 0 146 39q59 22 73 22q51 0 89 -38.5t38 -90.5q0 -92 -118 -147.5t-243 -55.5q-229 0 -378.5 164.5t-149.5 403.5
q0 233 152.5 402t375.5 169zM589 1544q73 29 90.5 34t33.5 5q43 0 76.5 -41t33.5 -86q0 -35 -12.5 -61t-33 -39.5t-155 -66t-150.5 -58.5t-44 -6q-43 0 -76 46t-33 103q0 25 17 47.5t41 34.5z" />
    <glyph glyph-name="Ccircumflex" unicode="&#x108;" horiz-adv-x="1251" 
d="M739 -25q-305 0 -504.5 216t-199.5 538q0 323 197 538.5t507 215.5q174 0 307.5 -60.5t133.5 -169.5q0 -57 -36.5 -97t-90.5 -40q-35 0 -100 27q-112 45 -214 45q-176 0 -280.5 -130.5t-104.5 -334.5q0 -198 105 -325.5t280 -127.5q102 0 222 55q69 31 104 31
q59 0 97 -46t38 -93q0 -116 -137 -179t-324 -63zM702 1623q-162 -71 -186 -71q-48 0 -86.5 40.5t-38.5 90.5q0 45 23 75t71 49l217 89q219 -89 243 -99.5t46.5 -39t22.5 -74.5q0 -50 -38.5 -90.5t-86.5 -40.5q-24 0 -187 71z" />
    <glyph glyph-name="ccircumflex" unicode="&#x109;" horiz-adv-x="948" 
d="M569 1114q136 0 248.5 -49.5t112.5 -136.5q0 -52 -33 -97t-80 -45q-34 0 -102 26q-81 32 -131 32q-114 0 -181 -86t-67 -215q0 -121 69 -209t179 -88q43 0 146 39q59 22 73 22q51 0 89 -38.5t38 -90.5q0 -92 -118 -147.5t-243 -55.5q-229 0 -378.5 164.5t-149.5 403.5
q0 233 152.5 402t375.5 169zM547 1292q-162 -71 -186 -71q-48 0 -86.5 40.5t-38.5 90.5q0 45 23 75t71 49l217 89q219 -89 243 -99.5t46.5 -39t22.5 -74.5q0 -50 -38.5 -90.5t-86.5 -40.5q-24 0 -187 71z" />
    <glyph glyph-name="Ccaron" unicode="&#x10c;" horiz-adv-x="1251" 
d="M739 -25q-305 0 -504.5 216t-199.5 538q0 323 197 538.5t507 215.5q174 0 307.5 -60.5t133.5 -169.5q0 -57 -36.5 -97t-90.5 -40q-35 0 -100 27q-112 45 -214 45q-176 0 -280.5 -130.5t-104.5 -334.5q0 -198 105 -325.5t280 -127.5q102 0 222 55q69 31 104 31
q59 0 97 -46t38 -93q0 -116 -137 -179t-324 -63zM694 1544q-219 89 -242.5 99.5t-46 39.5t-22.5 74q0 50 38.5 90.5t86.5 40.5q24 0 186 -71q163 71 187 71q48 0 86.5 -40.5t38.5 -90.5q0 -86 -95 -125z" />
    <glyph glyph-name="ccaron" unicode="&#x10d;" horiz-adv-x="948" 
d="M569 1114q136 0 248.5 -49.5t112.5 -136.5q0 -52 -33 -97t-80 -45q-34 0 -102 26q-81 32 -131 32q-114 0 -181 -86t-67 -215q0 -121 69 -209t179 -88q43 0 146 39q59 22 73 22q51 0 89 -38.5t38 -90.5q0 -92 -118 -147.5t-243 -55.5q-229 0 -378.5 164.5t-149.5 403.5
q0 233 152.5 402t375.5 169zM551 1212q-219 89 -242.5 99.5t-46 39.5t-22.5 74q0 50 38.5 90.5t86.5 40.5q24 0 186 -71q163 71 187 71q48 0 86.5 -40.5t38.5 -90.5q0 -86 -95 -125z" />
    <glyph glyph-name="Dcaron" unicode="&#x10e;" horiz-adv-x="1366" 
d="M92 154v1146q0 71 44 114.5t114 43.5h340q336 0 528.5 -201t192.5 -548q0 -321 -192 -515t-509 -194h-356q-68 0 -115 40t-47 114zM399 1176v-893h207q183 0 284 119t101 321q0 215 -104.5 334t-300.5 119h-187zM661 1544q-219 89 -242.5 99.5t-46 39.5t-22.5 74
q0 50 38.5 90.5t86.5 40.5q24 0 186 -71q163 71 187 71q48 0 86.5 -40.5t38.5 -90.5q0 -86 -95 -125z" />
    <glyph glyph-name="dcaron" unicode="&#x10f;" horiz-adv-x="1176" 
d="M1092 152q0 -75 -41.5 -119.5t-106.5 -44.5q-118 0 -147 123q-89 -136 -271 -136q-209 0 -347 165.5t-138 389.5q0 245 130.5 414.5t344.5 169.5q162 0 281 -102v401q0 73 41.5 118.5t105.5 45.5t106 -45.5t42 -118.5v-1261zM565 844q-103 0 -166 -91t-63 -210
q0 -117 63 -207t166 -90q106 0 169 89.5t63 217.5q0 124 -63 207.5t-169 83.5zM1411 1178q-33 -74 -104 -74q-56 0 -94.5 30.5t-38.5 77.5q0 30 16 68l94 217q35 80 107 80q53 0 95 -32.5t42 -80.5q0 -34 -17 -65z" />
    <glyph glyph-name="Dcroat" unicode="&#x110;" horiz-adv-x="1366" 
d="M92 154v469h-55q-59 0 -94 34t-35 82t34 82.5t95 34.5h55v444q0 71 44 114.5t114 43.5h340q336 0 528.5 -201t192.5 -548q0 -321 -192 -515t-509 -194h-356q-68 0 -115 40t-47 114zM399 1176v-320h168q59 0 94 -33.5t35 -83.5q0 -48 -35 -82t-94 -34h-168v-340h207
q183 0 284 119t101 321q0 215 -104.5 334t-300.5 119h-187z" />
    <glyph glyph-name="dcroat" unicode="&#x111;" horiz-adv-x="1176" 
d="M1092 1432h41q60 0 94.5 -33t34.5 -80q0 -49 -35 -81t-94 -32h-41v-1054q0 -75 -41.5 -119.5t-106.5 -44.5q-118 0 -147 123q-89 -136 -271 -136q-209 0 -347 165.5t-138 389.5q0 245 130.5 414.5t344.5 169.5q162 0 281 -102v194h-152q-59 0 -94 32t-35 81q0 47 34.5 80
t94.5 33h152q5 66 45 105.5t102 39.5q135 0 148 -145zM565 844q-103 0 -166 -91t-63 -210q0 -117 63 -207t166 -90q106 0 169 89.5t63 217.5q0 124 -63 207.5t-169 83.5z" />
    <glyph glyph-name="Emacron" unicode="&#x112;" horiz-adv-x="948" 
d="M92 154v1126q0 83 42 130.5t118 47.5h508q67 0 106 -40.5t39 -100.5q0 -59 -39.5 -100t-105.5 -41h-361v-299h336q69 0 109.5 -41t40.5 -101q0 -58 -41 -99.5t-109 -41.5h-336v-311h379q67 0 106.5 -40.5t39.5 -101.5q0 -58 -40 -99.5t-106 -41.5h-528q-69 0 -113.5 43
t-44.5 111zM317 1827h381q60 0 96.5 -33t36.5 -90t-36 -90t-97 -33h-381q-61 0 -97 33t-36 90t36.5 90t96.5 33z" />
    <glyph glyph-name="emacron" unicode="&#x113;" horiz-adv-x="1100" 
d="M950 446h-628q15 -102 91 -157.5t187 -55.5q88 0 221 74q80 45 113 45q47 0 84 -39.5t37 -87.5q0 -90 -155 -170t-327 -80q-244 0 -398.5 160t-154.5 408q0 233 152.5 402t376.5 169q222 0 376 -167.5t154 -368.5q0 -132 -129 -132zM315 643h469q-14 106 -77 165.5
t-158 59.5q-91 0 -156 -61.5t-78 -163.5zM385 1495h381q60 0 96.5 -33t36.5 -90t-36 -90t-97 -33h-381q-61 0 -97 33t-36 90t36.5 90t96.5 33z" />
    <glyph glyph-name="Edotaccent" unicode="&#x116;" horiz-adv-x="948" 
d="M92 154v1126q0 83 42 130.5t118 47.5h508q67 0 106 -40.5t39 -100.5q0 -59 -39.5 -100t-105.5 -41h-361v-299h336q69 0 109.5 -41t40.5 -101q0 -58 -41 -99.5t-109 -41.5h-336v-311h379q67 0 106.5 -40.5t39.5 -101.5q0 -58 -40 -99.5t-106 -41.5h-528q-69 0 -113.5 43
t-44.5 111zM507 1567q-61 0 -104 43t-43 104q0 62 43 105t104 43t104.5 -43t43.5 -105q0 -61 -43 -104t-105 -43z" />
    <glyph glyph-name="edotaccent" unicode="&#x117;" horiz-adv-x="1100" 
d="M950 446h-628q15 -102 91 -157.5t187 -55.5q88 0 221 74q80 45 113 45q47 0 84 -39.5t37 -87.5q0 -90 -155 -170t-327 -80q-244 0 -398.5 160t-154.5 408q0 233 152.5 402t376.5 169q222 0 376 -167.5t154 -368.5q0 -132 -129 -132zM315 643h469q-14 106 -77 165.5
t-158 59.5q-91 0 -156 -61.5t-78 -163.5zM575 1235q-61 0 -104 43t-43 104q0 62 43 105t104 43t104.5 -43t43.5 -105q0 -61 -43 -104t-105 -43z" />
    <glyph glyph-name="Eogonek" unicode="&#x118;" horiz-adv-x="948" 
d="M92 1280q0 83 42 130.5t118 47.5h508q67 0 106 -40.5t39 -100.5q0 -59 -39.5 -100t-105.5 -41h-361v-299h336q68 0 109 -40t41 -102q0 -58 -42 -99.5t-108 -41.5h-336v-311h379q67 0 106.5 -40t39.5 -100q0 -53 -58 -114q-145 -150 -145 -260q0 -80 72 -80q24 0 40 7
q15 7 39 7q43 0 43 -45q0 -43 -59 -73.5t-143 -30.5q-90 0 -139.5 45.5t-49.5 126.5q0 129 140 274h-414q-69 0 -113.5 43t-44.5 111v1126z" />
    <glyph glyph-name="eogonek" unicode="&#x119;" horiz-adv-x="1100" 
d="M322 446q14 -101 90.5 -157t187.5 -56q87 0 195 60q108 59 139 59q48 0 83.5 -37.5t35.5 -85.5q0 -52 -64 -116q-88 -88 -138 -179.5t-50 -158.5q0 -86 71 -86q19 0 40 7t40 7q43 0 43 -45q0 -44 -52.5 -74t-133.5 -30q-93 0 -149 48t-56 140q0 113 107 248
q-85 -15 -138 -15q-244 0 -398.5 161t-154.5 407q0 232 152 401.5t377 169.5q222 0 376 -168t154 -368q0 -132 -129 -132h-628zM784 643q-14 108 -77.5 166.5t-157.5 58.5q-90 0 -155 -60.5t-79 -164.5h469z" />
    <glyph glyph-name="Ecaron" unicode="&#x11a;" horiz-adv-x="948" 
d="M92 154v1126q0 83 42 130.5t118 47.5h508q67 0 106 -40.5t39 -100.5q0 -59 -39.5 -100t-105.5 -41h-361v-299h336q69 0 109.5 -41t40.5 -101q0 -58 -41 -99.5t-109 -41.5h-336v-311h379q67 0 106.5 -40.5t39.5 -101.5q0 -58 -40 -99.5t-106 -41.5h-528q-69 0 -113.5 43
t-44.5 111zM512 1544q-219 89 -242.5 99.5t-46 39.5t-22.5 74q0 50 38.5 90.5t86.5 40.5q24 0 186 -71q163 71 187 71q48 0 86.5 -40.5t38.5 -90.5q0 -86 -95 -125z" />
    <glyph glyph-name="ecaron" unicode="&#x11b;" horiz-adv-x="1100" 
d="M950 446h-628q15 -102 91 -157.5t187 -55.5q88 0 221 74q80 45 113 45q47 0 84 -39.5t37 -87.5q0 -90 -155 -170t-327 -80q-244 0 -398.5 160t-154.5 408q0 233 152.5 402t376.5 169q222 0 376 -167.5t154 -368.5q0 -132 -129 -132zM315 643h469q-14 106 -77 165.5
t-158 59.5q-91 0 -156 -61.5t-78 -163.5zM575 1212q-219 89 -242.5 99.5t-46 39.5t-22.5 74q0 50 38.5 90.5t86.5 40.5q24 0 186 -71q163 71 187 71q48 0 86.5 -40.5t38.5 -90.5q0 -86 -95 -125z" />
    <glyph glyph-name="Gcircumflex" unicode="&#x11c;" horiz-adv-x="1442" 
d="M879 864h348q93 0 136.5 -47t43.5 -149q0 -304 -184.5 -498.5t-483.5 -194.5q-305 0 -504.5 216t-199.5 538q0 323 197 538.5t507 215.5q229 0 396.5 -90.5t167.5 -198.5q0 -64 -36 -103.5t-91 -39.5q-59 0 -143 56q-66 45 -128 69t-166 24q-176 0 -280.5 -133
t-104.5 -338q0 -208 103.5 -339.5t281.5 -131.5q148 0 248 85.5t100 238.5h-208q-63 0 -103.5 40t-40.5 103q0 62 41.5 100.5t102.5 38.5zM729 1623q-162 -71 -186 -71q-48 0 -86.5 40.5t-38.5 90.5q0 45 23 75t71 49l217 89q219 -89 243 -99.5t46.5 -39t22.5 -74.5
q0 -50 -38.5 -90.5t-86.5 -40.5q-24 0 -187 71z" />
    <glyph glyph-name="gcircumflex" unicode="&#x11d;" horiz-adv-x="1176" 
d="M1092 938v-852q0 -259 -154 -395.5t-414 -136.5q-148 0 -306.5 61t-158.5 160q0 42 38.5 85.5t80.5 43.5q40 0 131 -36q140 -56 238 -56q112 0 181 63t69 170v70h-4q-96 -140 -297 -140q-211 0 -333 159.5t-122 406.5q0 236 137.5 404.5t347.5 168.5q81 0 156 -35.5
t115 -99.5q29 123 147 123q65 0 106.5 -45.5t41.5 -118.5zM565 246q106 0 169 83.5t63 207.5q0 128 -62.5 217.5t-169.5 89.5q-102 0 -165.5 -89t-63.5 -208q0 -131 62 -216t167 -85zM557 1292q-162 -71 -186 -71q-48 0 -86.5 40.5t-38.5 90.5q0 45 23 75t71 49l217 89
q219 -89 243 -99.5t46.5 -39t22.5 -74.5q0 -50 -38.5 -90.5t-86.5 -40.5q-24 0 -187 71z" />
    <glyph glyph-name="Gbreve" unicode="&#x11e;" horiz-adv-x="1442" 
d="M879 864h348q93 0 136.5 -47t43.5 -149q0 -304 -184.5 -498.5t-483.5 -194.5q-305 0 -504.5 216t-199.5 538q0 323 197 538.5t507 215.5q229 0 396.5 -90.5t167.5 -198.5q0 -64 -36 -103.5t-91 -39.5q-59 0 -143 56q-66 45 -128 69t-166 24q-176 0 -280.5 -133
t-104.5 -338q0 -208 103.5 -339.5t281.5 -131.5q148 0 248 85.5t100 238.5h-208q-63 0 -103.5 40t-40.5 103q0 62 41.5 100.5t102.5 38.5zM733 1554q-123 0 -220 57.5t-97 155.5q0 53 24 88t68 35q42 0 65 -17.5t48 -52.5q24 -35 47 -52.5t65 -17.5q24 0 46.5 11t54.5 54
q36 49 65 62t60 13q36 0 64 -39.5t28 -83.5q0 -101 -103.5 -157t-214.5 -56z" />
    <glyph glyph-name="gbreve" unicode="&#x11f;" horiz-adv-x="1176" 
d="M1092 938v-852q0 -259 -154 -395.5t-414 -136.5q-148 0 -306.5 61t-158.5 160q0 42 38.5 85.5t80.5 43.5q40 0 131 -36q140 -56 238 -56q112 0 181 63t69 170v70h-4q-96 -140 -297 -140q-211 0 -333 159.5t-122 406.5q0 236 137.5 404.5t347.5 168.5q81 0 156 -35.5
t115 -99.5q29 123 147 123q65 0 106.5 -45.5t41.5 -118.5zM565 246q106 0 169 83.5t63 207.5q0 128 -62.5 217.5t-169.5 89.5q-102 0 -165.5 -89t-63.5 -208q0 -131 62 -216t167 -85zM565 1223q-123 0 -220 57.5t-97 155.5q0 53 24 88t68 35q42 0 65 -17.5t48 -52.5
q24 -35 47 -52.5t65 -17.5q24 0 46.5 11t54.5 54q36 49 65 62t60 13q36 0 64 -39.5t28 -83.5q0 -101 -103.5 -157t-214.5 -56z" />
    <glyph glyph-name="Gcommaaccent" unicode="&#x122;" horiz-adv-x="1442" 
d="M879 864h348q93 0 136.5 -47t43.5 -149q0 -304 -184.5 -498.5t-483.5 -194.5q-305 0 -504.5 216t-199.5 538q0 323 197 538.5t507 215.5q229 0 396.5 -90.5t167.5 -198.5q0 -64 -36 -103.5t-91 -39.5q-59 0 -143 56q-66 45 -128 69t-166 24q-176 0 -280.5 -133
t-104.5 -338q0 -208 103.5 -339.5t281.5 -131.5q148 0 248 85.5t100 238.5h-208q-63 0 -103.5 40t-40.5 103q0 62 41.5 100.5t102.5 38.5zM742 -442q-29 -64 -102 -64q-48 0 -83.5 27.5t-35.5 72.5q0 29 14 64l70 168q30 72 102 72q52 0 89.5 -28t37.5 -73q0 -39 -14 -65z
" />
    <glyph glyph-name="gcommaaccent" unicode="&#x123;" horiz-adv-x="1176" 
d="M545 1563q29 67 108 67q53 0 89 -29.5t36 -76.5q0 -30 -16 -66l-72 -176q-11 -26 -40.5 -51t-67.5 -25q-55 0 -94 30.5t-39 76.5q0 32 16 67zM1092 86q0 -253 -152 -392.5t-416 -139.5q-149 0 -307 61t-158 160q0 43 39 86t80 43q37 0 156 -46t213 -46q112 0 181 63
t69 170v70h-4q-98 -140 -297 -140q-212 0 -333.5 159.5t-121.5 406.5q0 237 138 405t347 168q83 0 158.5 -37t112.5 -98q29 123 147 123q64 0 106 -45.5t42 -118.5v-852zM565 844q-103 0 -166 -90t-63 -207q0 -130 62 -215.5t167 -85.5q108 0 170 84t62 207q0 128 -63 217.5
t-169 89.5z" />
    <glyph glyph-name="Hcircumflex" unicode="&#x124;" horiz-adv-x="1442" 
d="M92 147v1164q0 73 42.5 116t111.5 43t111 -43t42 -116v-434h643v434q0 73 42.5 116t111.5 43t111.5 -43t42.5 -116v-1164q0 -73 -42.5 -116t-111.5 -43t-111.5 43t-42.5 116v447h-643v-447q0 -74 -42.5 -116.5t-110.5 -42.5q-69 0 -111.5 43t-42.5 116zM725 1623
q-162 -71 -186 -71q-48 0 -86.5 40.5t-38.5 90.5q0 45 23 75t71 49l217 89q219 -89 243 -99.5t46.5 -39t22.5 -74.5q0 -50 -38.5 -90.5t-86.5 -40.5q-24 0 -187 71z" />
    <glyph glyph-name="hcircumflex" unicode="&#x125;" 
d="M84 152v1261q0 73 41.5 118.5t105.5 45.5q65 0 106.5 -45.5t41.5 -118.5v-401h4q86 102 268 102q180 0 292 -108.5t112 -288.5v-565q0 -74 -41.5 -119t-106.5 -45t-106 45.5t-41 118.5v514q0 98 -54 150t-139 52q-86 0 -137 -56t-51 -146v-514q0 -73 -41.5 -118.5
t-106.5 -45.5q-64 0 -105.5 45.5t-41.5 118.5zM616 1722q-162 -71 -186 -71q-48 0 -86.5 40.5t-38.5 90.5q0 45 23 75t71 49l217 89q219 -89 243 -99.5t46.5 -39t22.5 -74.5q0 -50 -38.5 -90.5t-86.5 -40.5q-24 0 -187 71z" />
    <glyph glyph-name="Imacron" unicode="&#x12a;" horiz-adv-x="492" 
d="M92 147v1164q0 73 42.5 116t111.5 43t111 -43t42 -116v-1164q0 -74 -42.5 -116.5t-110.5 -42.5q-69 0 -111.5 43t-42.5 116zM55 1827h381q60 0 96.5 -33t36.5 -90t-36 -90t-97 -33h-381q-61 0 -97 33t-36 90t36.5 90t96.5 33z" />
    <glyph glyph-name="imacron" unicode="&#x12b;" horiz-adv-x="455" 
d="M80 152v786q0 73 41 118.5t106 45.5t106.5 -45.5t41.5 -118.5v-786q0 -73 -41.5 -118.5t-106.5 -45.5t-106 45.5t-41 118.5zM37 1495h381q60 0 96.5 -33t36.5 -90t-36 -90t-97 -33h-381q-61 0 -97 33t-36 90t36.5 90t96.5 33z" />
    <glyph glyph-name="Iogonek" unicode="&#x12e;" horiz-adv-x="492" 
d="M92 1311q0 73 43 116t111 43q66 0 109.5 -41t43.5 -118v-1164q0 -68 -59 -135q-113 -129 -113 -239q0 -84 76 -84q19 0 40 7t40 7q43 0 43 -45q0 -43 -59.5 -73.5t-143.5 -30.5q-86 0 -137 48t-51 132q0 135 131 272q-74 43 -74 141v1164z" />
    <glyph glyph-name="iogonek" unicode="&#x12f;" horiz-adv-x="455" 
d="M393 1382q0 -69 -49 -119.5t-117 -50.5q-65 0 -115.5 51.5t-50.5 118.5q0 63 50.5 112.5t115.5 49.5q66 0 116 -49t50 -113zM80 938q0 73 41.5 118.5t105.5 45.5t106 -45.5t42 -118.5v-791q0 -67 -60 -135q-108 -123 -108 -243q0 -80 72 -80q24 0 40 7q15 7 39 7
q43 0 43 -45q0 -43 -59 -73.5t-143 -30.5q-85 0 -137 48t-52 132q0 134 133 278q-63 41 -63 135v791z" />
    <glyph glyph-name="Idotaccent" unicode="&#x130;" horiz-adv-x="492" 
d="M92 147v1164q0 73 42.5 116t111.5 43t111 -43t42 -116v-1164q0 -74 -42.5 -116.5t-110.5 -42.5q-69 0 -111.5 43t-42.5 116zM245 1567q-61 0 -104 43t-43 104q0 62 43 105t104 43t104.5 -43t43.5 -105q0 -61 -43 -104t-105 -43z" />
    <glyph glyph-name="dotlessi" unicode="&#x131;" horiz-adv-x="455" 
d="M80 152v786q0 73 41 118.5t106 45.5t106.5 -45.5t41.5 -118.5v-786q0 -73 -41.5 -118.5t-106.5 -45.5t-106 45.5t-41 118.5z" />
    <glyph glyph-name="Jcircumflex" unicode="&#x134;" horiz-adv-x="834" 
d="M754 1311v-901q0 -162 -59.5 -258.5t-150.5 -136.5t-196 -40q-150 0 -263.5 62t-113.5 172q0 45 33.5 85t81.5 40q40 0 116 -36q82 -40 130 -40q53 0 83.5 34.5t30.5 137.5v881q0 73 42.5 116t111.5 43t111.5 -43t42.5 -116zM596 1623q-162 -71 -186 -71
q-48 0 -86.5 40.5t-38.5 90.5q0 45 23 75t71 49l217 89q219 -89 243 -99.5t46.5 -39t22.5 -74.5q0 -50 -38.5 -90.5t-86.5 -40.5q-24 0 -187 71z" />
    <glyph glyph-name="jcircumflex" unicode="&#x135;" horiz-adv-x="455" 
d="M80 938q0 73 41.5 118.5t105.5 45.5t106 -45.5t42 -118.5v-1221q0 -72 -41 -117.5t-107 -45.5q-65 0 -106 44.5t-41 118.5v1221zM227 1292q-162 -71 -186 -71q-48 0 -86.5 40.5t-38.5 90.5q0 45 23 75t71 49l217 89q219 -89 243 -99.5t46.5 -39t22.5 -74.5
q0 -50 -38.5 -90.5t-86.5 -40.5q-24 0 -187 71z" />
    <glyph glyph-name="Kcommaaccent" unicode="&#x136;" horiz-adv-x="1251" 
d="M92 135v1184q0 64 43 107.5t111 43.5t110.5 -41.5t42.5 -109.5v-442l504 536q53 57 119 57q61 0 106.5 -42t45.5 -105t-74 -137l-414 -408q482 -502 520.5 -546t38.5 -103q0 -66 -44.5 -103.5t-115.5 -37.5q-35 0 -68 18.5t-87 77.5l-531 573v-522q0 -61 -43 -104
t-110 -43q-68 0 -111 40.5t-43 106.5zM699 -442q-29 -64 -102 -64q-48 0 -83.5 27.5t-35.5 72.5q0 29 14 64l70 168q30 72 102 72q52 0 89.5 -28t37.5 -73q0 -39 -14 -65z" />
    <glyph glyph-name="kcommaaccent" unicode="&#x137;" horiz-adv-x="1024" 
d="M84 152v1261q0 73 41.5 118.5t105.5 45.5q65 0 106.5 -45.5t41.5 -118.5v-688l317 307q41 40 74.5 55t65.5 15q52 0 88.5 -40.5t36.5 -92.5q0 -65 -52 -111l-268 -240l228 -267q124 -145 133 -158t15.5 -34.5t6.5 -43.5q0 -59 -40.5 -99.5t-98.5 -40.5q-68 0 -131 78
l-371 457h-4v-358q0 -73 -41.5 -118.5t-106.5 -45.5q-64 0 -105.5 45.5t-41.5 118.5zM586 -442q-29 -64 -102 -64q-48 0 -83.5 27.5t-35.5 72.5q0 29 14 64l70 168q30 72 102 72q52 0 89.5 -28t37.5 -73q0 -39 -14 -65z" />
    <glyph glyph-name="Lacute" unicode="&#x139;" horiz-adv-x="872" 
d="M92 168v1143q0 73 42.5 116t111.5 43t111 -43t42 -116v-1028h365q68 0 108 -41t40 -98q0 -62 -42.5 -103t-105.5 -41h-512q-74 0 -117 45t-43 123zM370 1875q73 29 90.5 34t33.5 5q43 0 76.5 -41t33.5 -86q0 -35 -12.5 -61t-33 -39.5t-155 -66t-150.5 -58.5t-44 -6
q-43 0 -76 46t-33 103q0 25 17 47.5t41 34.5z" />
    <glyph glyph-name="lacute" unicode="&#x13a;" horiz-adv-x="455" 
d="M80 152v1261q0 73 41 118.5t106 45.5t106.5 -45.5t41.5 -118.5v-1261q0 -73 -41.5 -118.5t-106.5 -45.5t-106 45.5t-41 118.5zM356 1974q73 29 90.5 34t33.5 5q43 0 76.5 -41t33.5 -86q0 -35 -12.5 -61t-33 -39.5t-155 -66t-150.5 -58.5t-44 -6q-43 0 -76 46t-33 103
q0 25 17 47.5t41 34.5z" />
    <glyph glyph-name="Lcommaaccent" unicode="&#x13b;" horiz-adv-x="872" 
d="M92 168v1143q0 73 42.5 116t111.5 43t111 -43t42 -116v-1028h365q68 0 108 -41t40 -98q0 -62 -42.5 -103t-105.5 -41h-512q-74 0 -117 45t-43 123zM537 -442q-29 -64 -102 -64q-48 0 -83.5 27.5t-35.5 72.5q0 29 14 64l70 168q30 72 102 72q52 0 89.5 -28t37.5 -73
q0 -39 -14 -65z" />
    <glyph glyph-name="lcommaaccent" unicode="&#x13c;" horiz-adv-x="455" 
d="M80 152v1261q0 73 41 118.5t106 45.5t106.5 -45.5t41.5 -118.5v-1261q0 -73 -41.5 -118.5t-106.5 -45.5t-106 45.5t-41 118.5zM273 -442q-29 -64 -102 -64q-48 0 -83.5 27.5t-35.5 72.5q0 29 14 64l70 168q30 72 102 72q52 0 89.5 -28t37.5 -73q0 -39 -14 -65z" />
    <glyph glyph-name="Lcaron" unicode="&#x13d;" horiz-adv-x="872" 
d="M92 1311q0 73 43 116t111 43q66 0 109.5 -41t43.5 -118v-1028h365q67 0 107 -42t40 -101q0 -51 -39.5 -95.5t-107.5 -44.5h-512q-75 0 -117.5 45.5t-42.5 122.5v1143zM803 1071q-33 -74 -105 -74q-55 0 -94 30.5t-39 78.5q0 29 17 68l94 217q34 79 106 79
q53 0 95.5 -32.5t42.5 -79.5q0 -32 -17 -66z" />
    <glyph glyph-name="lcaron" unicode="&#x13e;" horiz-adv-x="455" 
d="M80 1413q0 73 41.5 118.5t105.5 45.5t106 -45.5t42 -118.5v-1261q0 -75 -41.5 -119.5t-106.5 -44.5t-106 44.5t-41 119.5v1261zM694 1178q-34 -74 -104 -74q-56 0 -94.5 30.5t-38.5 77.5q0 30 16 68l94 217q35 80 107 80q53 0 95 -32.5t42 -80.5q0 -33 -16 -65z" />
    <glyph glyph-name="Lslash" unicode="&#x141;" horiz-adv-x="872" 
d="M92 168v324q-90 -70 -104 -76t-39 -6q-41 0 -65.5 29t-24.5 77q0 51 58 96l175 133v566q0 73 42.5 116t111.5 43t111 -43t42 -116v-332q232 172 251.5 183.5t60.5 11.5q33 0 61.5 -27.5t28.5 -69.5q0 -55 -68 -104l-334 -244v-446h365q68 0 108 -41t40 -98
q0 -62 -42.5 -103t-105.5 -41h-512q-74 0 -117 45t-43 123z" />
    <glyph glyph-name="lslash" unicode="&#x142;" horiz-adv-x="455" 
d="M80 152v380q-59 -61 -107 -61q-38 0 -63 28.5t-25 69.5t37 78l158 158v608q0 73 41 118.5t106 45.5t106.5 -45.5t41.5 -118.5v-323q63 65 112 65q36 0 59 -26.5t23 -65.5q0 -51 -29 -80l-165 -166v-665q0 -73 -41.5 -118.5t-106.5 -45.5t-106 45.5t-41 118.5z" />
    <glyph glyph-name="Nacute" unicode="&#x143;" horiz-adv-x="1403" 
d="M80 147v1164q0 73 42.5 116t110.5 43q29 0 68.5 -19.5t60.5 -47.5l650 -866h4v774q0 73 42.5 116t110.5 43q69 0 111.5 -43t42.5 -116v-1164q0 -73 -42.5 -116t-111.5 -43q-30 0 -69.5 20.5t-59.5 46.5l-649 856h-4v-764q0 -73 -42.5 -116t-111.5 -43q-68 0 -110.5 43
t-42.5 116zM757 1875q73 29 90.5 34t33.5 5q43 0 76.5 -41t33.5 -86q0 -35 -12.5 -61t-33 -39.5t-155 -66t-150.5 -58.5t-44 -6q-43 0 -76 46t-33 103q0 25 17 47.5t41 34.5z" />
    <glyph glyph-name="nacute" unicode="&#x144;" 
d="M84 152v786q0 73 41 118.5t106 45.5q117 0 136 -109q85 121 284 121q180 0 292 -108.5t112 -288.5v-565q0 -74 -41.5 -119t-106.5 -45t-106 45.5t-41 118.5v514q0 98 -54 150t-139 52q-86 0 -137 -56t-51 -146v-514q0 -73 -41.5 -118.5t-106.5 -45.5q-64 0 -105.5 45.5
t-41.5 118.5zM657 1544q73 29 90.5 34t33.5 5q43 0 76.5 -41t33.5 -86q0 -35 -12.5 -61t-33 -39.5t-155 -66t-150.5 -58.5t-44 -6q-43 0 -76 46t-33 103q0 25 17 47.5t41 34.5z" />
    <glyph glyph-name="Ncommaaccent" unicode="&#x145;" horiz-adv-x="1403" 
d="M80 147v1164q0 73 42.5 116t110.5 43q29 0 68.5 -19.5t60.5 -47.5l650 -866h4v774q0 73 42.5 116t110.5 43q69 0 111.5 -43t42.5 -116v-1164q0 -73 -42.5 -116t-111.5 -43q-30 0 -69.5 20.5t-59.5 46.5l-649 856h-4v-764q0 -73 -42.5 -116t-111.5 -43q-68 0 -110.5 43
t-42.5 116zM752 -442q-29 -64 -102 -64q-48 0 -83.5 27.5t-35.5 72.5q0 29 14 64l70 168q30 72 102 72q52 0 89.5 -28t37.5 -73q0 -39 -14 -65z" />
    <glyph glyph-name="ncommaaccent" unicode="&#x146;" 
d="M84 152v786q0 73 41 118.5t106 45.5q117 0 136 -109q85 121 284 121q180 0 292 -108.5t112 -288.5v-565q0 -74 -41.5 -119t-106.5 -45t-106 45.5t-41 118.5v514q0 98 -54 150t-139 52q-86 0 -137 -56t-51 -146v-514q0 -73 -41.5 -118.5t-106.5 -45.5q-64 0 -105.5 45.5
t-41.5 118.5zM602 -442q-29 -64 -102 -64q-48 0 -83.5 27.5t-35.5 72.5q0 29 14 64l70 168q30 72 102 72q52 0 89.5 -28t37.5 -73q0 -39 -14 -65z" />
    <glyph glyph-name="Ncaron" unicode="&#x147;" horiz-adv-x="1403" 
d="M80 147v1164q0 73 42.5 116t110.5 43q29 0 68.5 -19.5t60.5 -47.5l650 -866h4v774q0 73 42.5 116t110.5 43q69 0 111.5 -43t42.5 -116v-1164q0 -73 -42.5 -116t-111.5 -43q-30 0 -69.5 20.5t-59.5 46.5l-649 856h-4v-764q0 -73 -42.5 -116t-111.5 -43q-68 0 -110.5 43
t-42.5 116zM700 1544q-219 89 -242.5 99.5t-46 39.5t-22.5 74q0 50 38.5 90.5t86.5 40.5q24 0 186 -71q163 71 187 71q48 0 86.5 -40.5t38.5 -90.5q0 -86 -95 -125z" />
    <glyph glyph-name="ncaron" unicode="&#x148;" 
d="M84 152v786q0 73 41 118.5t106 45.5q117 0 136 -109q85 121 284 121q180 0 292 -108.5t112 -288.5v-565q0 -74 -41.5 -119t-106.5 -45t-106 45.5t-41 118.5v514q0 98 -54 150t-139 52q-86 0 -137 -56t-51 -146v-514q0 -73 -41.5 -118.5t-106.5 -45.5q-64 0 -105.5 45.5
t-41.5 118.5zM596 1212q-219 89 -242.5 99.5t-46 39.5t-22.5 74q0 50 38.5 90.5t86.5 40.5q24 0 186 -71q163 71 187 71q48 0 86.5 -40.5t38.5 -90.5q0 -86 -95 -125z" />
    <glyph glyph-name="Omacron" unicode="&#x14c;" horiz-adv-x="1479" 
d="M1444 729q0 -324 -199 -539t-506 -215q-305 0 -504.5 216t-199.5 538q0 323 197 538.5t507 215.5q302 0 503.5 -218.5t201.5 -535.5zM354 729q0 -208 103.5 -339.5t281.5 -131.5q179 0 282 131.5t103 339.5q0 205 -104 338t-281 133q-176 0 -280.5 -133t-104.5 -338z
M559 1827h381q60 0 96.5 -33t36.5 -90t-36 -90t-97 -33h-381q-61 0 -97 33t-36 90t36.5 90t96.5 33z" />
    <glyph glyph-name="omacron" unicode="&#x14d;" 
d="M41 543q0 233 152.5 402t375.5 169q224 0 376.5 -169t152.5 -402q0 -239 -150 -403.5t-379 -164.5t-378.5 164.5t-149.5 403.5zM803 543q0 125 -63.5 213t-170.5 88t-170 -88t-63 -213q0 -124 63.5 -210.5t169.5 -86.5q107 0 170.5 86.5t63.5 210.5zM379 1495h381
q60 0 96.5 -33t36.5 -90t-36 -90t-97 -33h-381q-61 0 -97 33t-36 90t36.5 90t96.5 33z" />
    <glyph glyph-name="Ohungarumlaut" unicode="&#x150;" horiz-adv-x="1479" 
d="M1444 729q0 -324 -199 -539t-506 -215q-305 0 -504.5 216t-199.5 538q0 323 197 538.5t507 215.5q302 0 503.5 -218.5t201.5 -535.5zM354 729q0 -208 103.5 -339.5t281.5 -131.5q179 0 282 131.5t103 339.5q0 205 -104 338t-281 133q-176 0 -280.5 -133t-104.5 -338z
M515 1875q73 29 91 34t33 5q43 0 77 -41t34 -86q0 -35 -13 -61t-33 -39.5t-154.5 -66t-150.5 -58.5t-45 -6q-43 0 -75.5 46t-32.5 103q0 25 17 47.5t40 34.5zM1084 1875q74 29 91.5 34t32.5 5q43 0 77 -41t34 -86q0 -35 -13 -61t-33 -39.5t-154.5 -66t-150.5 -58.5t-44 -6
q-44 0 -76.5 46t-32.5 103q0 25 17 47.5t40 34.5z" />
    <glyph glyph-name="ohungarumlaut" unicode="&#x151;" 
d="M41 543q0 233 152.5 402t375.5 169q224 0 376.5 -169t152.5 -402q0 -239 -150 -403.5t-379 -164.5t-378.5 164.5t-149.5 403.5zM803 543q0 125 -63.5 213t-170.5 88t-170 -88t-63 -213q0 -124 63.5 -210.5t169.5 -86.5q107 0 170.5 86.5t63.5 210.5zM363 1544
q73 29 91 34t33 5q43 0 77 -41t34 -86q0 -35 -13 -61t-33 -39.5t-154.5 -66t-150.5 -58.5t-45 -6q-43 0 -75.5 46t-32.5 103q0 25 17 47.5t40 34.5zM932 1544q74 29 91.5 34t32.5 5q43 0 77 -41t34 -86q0 -35 -13 -61t-33 -39.5t-154.5 -66t-150.5 -58.5t-44 -6
q-44 0 -76.5 46t-32.5 103q0 25 17 47.5t40 34.5z" />
    <glyph glyph-name="OE" unicode="&#x152;" horiz-adv-x="1972" 
d="M1419 1176v-299h340q69 0 109.5 -41t40.5 -101q0 -56 -40 -98.5t-110 -42.5h-340v-311h383q67 0 106.5 -40.5t39.5 -101.5q0 -58 -40 -99.5t-106 -41.5h-569q-62 0 -77 28.5t-15 88.5h-4q-105 -142 -398 -142q-305 0 -504.5 216t-199.5 538q0 323 197 538.5t507 215.5
q246 0 400 -154l4 4q0 73 23.5 99t123.5 26h494q67 0 106 -40.5t39 -100.5q0 -59 -39.5 -100t-105.5 -41h-365zM739 1200q-176 0 -280.5 -133t-104.5 -338q0 -208 103.5 -339.5t281.5 -131.5q179 0 282 131.5t103 339.5q0 205 -104 338t-281 133z" />
    <glyph glyph-name="oe" unicode="&#x153;" horiz-adv-x="1858" 
d="M1708 446h-629q16 -102 92.5 -157.5t188.5 -55.5q87 0 218 74q81 45 114 45q46 0 83 -39.5t37 -87.5q0 -93 -156 -171.5t-325 -78.5q-248 0 -391 170q-141 -170 -371 -170q-229 0 -378.5 164.5t-149.5 403.5q0 233 152.5 402t375.5 169q215 0 381 -166q137 166 353 166
q212 0 373 -161.5t161 -374.5q0 -132 -129 -132zM1073 643h469q-14 106 -76.5 165.5t-156.5 59.5q-91 0 -156 -61t-80 -164zM569 844q-107 0 -170 -88t-63 -213q0 -124 63.5 -210.5t169.5 -86.5q107 0 170.5 86.5t63.5 210.5q0 125 -63.5 213t-170.5 88z" />
    <glyph glyph-name="Racute" unicode="&#x154;" 
d="M92 147v1151q0 76 41.5 118t116.5 42h360q251 0 380.5 -117t129.5 -346q0 -152 -100.5 -255t-278.5 -132l231 -246q124 -133 134 -146.5t17 -32.5t7 -38q0 -62 -44.5 -109.5t-108.5 -47.5q-76 0 -127 62l-447 542h-4v-445q0 -74 -42.5 -116.5t-110.5 -42.5
q-69 0 -111.5 43t-42.5 116zM399 1176v-363h211q87 0 139 49.5t52 132.5q0 85 -51.5 133t-139.5 48h-211zM661 1875q73 29 90.5 34t33.5 5q43 0 76.5 -41t33.5 -86q0 -35 -12.5 -61t-33 -39.5t-155 -66t-150.5 -58.5t-44 -6q-43 0 -76 46t-33 103q0 25 17 47.5t41 34.5z" />
    <glyph glyph-name="racute" unicode="&#x155;" horiz-adv-x="682" 
d="M80 152v802q0 70 45.5 109t105.5 39q144 0 144 -123h4q81 123 207 123q60 0 101.5 -42.5t41.5 -115.5q0 -30 -33 -61t-143 -82q-117 -55 -147.5 -99.5t-30.5 -97.5v-452q0 -73 -41.5 -118.5t-106.5 -45.5t-106 45.5t-41 118.5zM483 1544q73 29 90.5 34t33.5 5
q43 0 76.5 -41t33.5 -86q0 -35 -12.5 -61t-33 -39.5t-155 -66t-150.5 -58.5t-44 -6q-43 0 -76 46t-33 103q0 25 17 47.5t41 34.5z" />
    <glyph glyph-name="Rcommaaccent" unicode="&#x156;" 
d="M92 147v1151q0 76 41.5 118t116.5 42h360q251 0 380.5 -117t129.5 -346q0 -152 -100.5 -255t-278.5 -132l231 -246q124 -133 134 -146.5t17 -32.5t7 -38q0 -62 -44.5 -109.5t-108.5 -47.5q-76 0 -127 62l-447 542h-4v-445q0 -74 -42.5 -116.5t-110.5 -42.5
q-69 0 -111.5 43t-42.5 116zM399 1176v-363h211q87 0 139 49.5t52 132.5q0 85 -51.5 133t-139.5 48h-211zM643 -442q-29 -64 -102 -64q-48 0 -83.5 27.5t-35.5 72.5q0 29 14 64l70 168q30 72 102 72q52 0 89.5 -28t37.5 -73q0 -39 -14 -65z" />
    <glyph glyph-name="rcommaaccent" unicode="&#x157;" horiz-adv-x="682" 
d="M80 152v802q0 70 45.5 109t105.5 39q144 0 144 -123h4q81 123 207 123q60 0 101.5 -42.5t41.5 -115.5q0 -30 -33 -61t-143 -82q-117 -55 -147.5 -99.5t-30.5 -97.5v-452q0 -73 -41.5 -118.5t-106.5 -45.5t-106 45.5t-41 118.5zM270 -442q-29 -64 -102 -64
q-48 0 -83.5 27.5t-35.5 72.5q0 29 14 64l70 168q30 72 102 72q52 0 89.5 -28t37.5 -73q0 -39 -14 -65z" />
    <glyph glyph-name="Rcaron" unicode="&#x158;" 
d="M92 147v1151q0 76 41.5 118t116.5 42h360q251 0 380.5 -117t129.5 -346q0 -152 -100.5 -255t-278.5 -132l231 -246q124 -133 134 -146.5t17 -32.5t7 -38q0 -62 -44.5 -109.5t-108.5 -47.5q-76 0 -127 62l-447 542h-4v-445q0 -74 -42.5 -116.5t-110.5 -42.5
q-69 0 -111.5 43t-42.5 116zM399 1176v-363h211q87 0 139 49.5t52 132.5q0 85 -51.5 133t-139.5 48h-211zM610 1544q-219 89 -242.5 99.5t-46 39.5t-22.5 74q0 50 38.5 90.5t86.5 40.5q24 0 186 -71q163 71 187 71q48 0 86.5 -40.5t38.5 -90.5q0 -86 -95 -125z" />
    <glyph glyph-name="rcaron" unicode="&#x159;" horiz-adv-x="682" 
d="M80 152v802q0 70 45.5 109t105.5 39q144 0 144 -123h4q81 123 207 123q60 0 101.5 -42.5t41.5 -115.5q0 -30 -33 -61t-143 -82q-117 -55 -147.5 -99.5t-30.5 -97.5v-452q0 -73 -41.5 -118.5t-106.5 -45.5t-106 45.5t-41 118.5zM405 1212q-219 89 -242.5 99.5t-46 39.5
t-22.5 74q0 50 38.5 90.5t86.5 40.5q24 0 186 -71q163 71 187 71q48 0 86.5 -40.5t38.5 -90.5q0 -86 -95 -125z" />
    <glyph glyph-name="Sacute" unicode="&#x15a;" horiz-adv-x="1100" 
d="M45 1018q0 204 146.5 334.5t361.5 130.5q147 0 274 -54.5t127 -150.5q0 -63 -38.5 -107.5t-98.5 -44.5q-38 0 -110 27q-95 35 -162 35q-72 0 -120 -36.5t-48 -96.5q0 -40 36.5 -71.5t191.5 -76.5q139 -41 230.5 -83.5t158.5 -133t67 -239.5q0 -209 -151 -342.5
t-373 -133.5q-208 0 -353 59.5t-145 170.5q0 62 38.5 103.5t98.5 41.5q44 0 145 -35q127 -45 199 -45q97 0 153 49t56 127q0 49 -42 87t-215 87q-134 38 -219 75.5t-146.5 115.5t-61.5 207zM565 1875q73 29 90.5 34t33.5 5q43 0 76.5 -41t33.5 -86q0 -35 -12.5 -61
t-33 -39.5t-155 -66t-150.5 -58.5t-44 -6q-43 0 -76 46t-33 103q0 25 17 47.5t41 34.5z" />
    <glyph glyph-name="sacute" unicode="&#x15b;" horiz-adv-x="872" 
d="M457 1114q137 0 252.5 -59.5t115.5 -153.5q0 -52 -35 -91.5t-85 -39.5q-24 0 -98 34q-112 52 -167 52q-45 0 -72.5 -21.5t-27.5 -60.5q0 -26 27.5 -50t145.5 -69q104 -39 171.5 -75t117.5 -100t50 -158q0 -150 -117 -248.5t-303 -98.5q-142 0 -277 69t-135 159
q0 42 37 86.5t90 44.5q55 0 137 -47q96 -54 169 -54q61 0 88.5 19t27.5 65q0 26 -27 49.5t-144 67.5q-104 40 -172 76t-118.5 100t-50.5 160q0 153 112 248.5t288 95.5zM511 1544q73 29 90.5 34t33.5 5q43 0 76.5 -41t33.5 -86q0 -35 -12.5 -61t-33 -39.5t-155 -66
t-150.5 -58.5t-44 -6q-43 0 -76 46t-33 103q0 25 17 47.5t41 34.5z" />
    <glyph glyph-name="Scircumflex" unicode="&#x15c;" horiz-adv-x="1100" 
d="M45 1018q0 204 146.5 334.5t361.5 130.5q147 0 274 -54.5t127 -150.5q0 -63 -38.5 -107.5t-98.5 -44.5q-38 0 -110 27q-95 35 -162 35q-72 0 -120 -36.5t-48 -96.5q0 -40 36.5 -71.5t191.5 -76.5q139 -41 230.5 -83.5t158.5 -133t67 -239.5q0 -209 -151 -342.5
t-373 -133.5q-208 0 -353 59.5t-145 170.5q0 62 38.5 103.5t98.5 41.5q44 0 145 -35q127 -45 199 -45q97 0 153 49t56 127q0 49 -42 87t-215 87q-134 38 -219 75.5t-146.5 115.5t-61.5 207zM542 1623q-162 -71 -186 -71q-48 0 -86.5 40.5t-38.5 90.5q0 45 23 75t71 49
l217 89q219 -89 243 -99.5t46.5 -39t22.5 -74.5q0 -50 -38.5 -90.5t-86.5 -40.5q-24 0 -187 71z" />
    <glyph glyph-name="scircumflex" unicode="&#x15d;" horiz-adv-x="872" 
d="M457 1114q137 0 252.5 -59.5t115.5 -153.5q0 -52 -35 -91.5t-85 -39.5q-24 0 -98 34q-112 52 -167 52q-45 0 -72.5 -21.5t-27.5 -60.5q0 -26 27.5 -50t145.5 -69q104 -39 171.5 -75t117.5 -100t50 -158q0 -150 -117 -248.5t-303 -98.5q-142 0 -277 69t-135 159
q0 42 37 86.5t90 44.5q55 0 137 -47q96 -54 169 -54q61 0 88.5 19t27.5 65q0 26 -27 49.5t-144 67.5q-104 40 -172 76t-118.5 100t-50.5 160q0 153 112 248.5t288 95.5zM456 1292q-162 -71 -186 -71q-48 0 -86.5 40.5t-38.5 90.5q0 45 23 75t71 49l217 89q219 -89 243 -99.5
t46.5 -39t22.5 -74.5q0 -50 -38.5 -90.5t-86.5 -40.5q-24 0 -187 71z" />
    <glyph glyph-name="Scedilla" unicode="&#x15e;" horiz-adv-x="1100" 
d="M602 -20l-63 -84l45 6q68 0 110.5 -43t42.5 -113q0 -87 -69 -139.5t-158 -52.5q-184 0 -184 102q0 53 49 53q8 0 43 -9q40 -11 64 -11q59 0 59 57q0 33 -15.5 45t-54.5 12q-43 3 -56.5 11.5t-13.5 35.5q0 28 45 82l33 45q-208 12 -324 71t-116 157q0 63 38.5 104t98.5 41
q43 0 158 -40t186 -40q96 0 152.5 48t56.5 128q0 104 -216 163q-169 45 -261 88t-149.5 122t-57.5 199q0 206 148 335.5t360 129.5q149 0 275 -54.5t126 -150.5q0 -64 -39 -108t-98 -44q-40 0 -121 31q-82 31 -151 31q-74 0 -121 -37.5t-47 -95.5q0 -53 56 -84.5t161 -59.5
q279 -76 373 -186t94 -274q0 -186 -125 -317.5t-334 -153.5z" />
    <glyph glyph-name="scedilla" unicode="&#x15f;" horiz-adv-x="872" 
d="M487 -23l-61 -81l45 6q67 0 110.5 -42.5t43.5 -113.5q0 -87 -68.5 -139.5t-159.5 -52.5q-184 0 -184 102q0 53 49 53q16 0 44 -9q34 -11 63 -11q59 0 59 57q0 33 -15.5 45t-54.5 12q-43 3 -56 11.5t-13 35.5q0 28 45 82l33 48q-143 19 -245 82.5t-102 140.5
q0 42 36.5 86.5t90.5 44.5q52 0 144 -50q91 -51 162 -51q116 0 116 84q0 55 -162 114q-206 73 -278 152.5t-72 186.5q0 153 112 248.5t288 95.5q140 0 254 -60t114 -153q0 -51 -35 -91t-85 -40q-23 0 -117 43t-148 43q-100 0 -100 -82q0 -55 162 -115q224 -83 287 -162
t63 -175q0 -137 -98 -232.5t-267 -112.5z" />
    <glyph glyph-name="Scaron" unicode="&#x160;" horiz-adv-x="1100" 
d="M45 1018q0 204 146.5 334.5t361.5 130.5q147 0 274 -54.5t127 -150.5q0 -63 -38.5 -107.5t-98.5 -44.5q-38 0 -110 27q-95 35 -162 35q-72 0 -120 -36.5t-48 -96.5q0 -40 36.5 -71.5t191.5 -76.5q139 -41 230.5 -83.5t158.5 -133t67 -239.5q0 -209 -151 -342.5
t-373 -133.5q-208 0 -353 59.5t-145 170.5q0 62 38.5 103.5t98.5 41.5q44 0 145 -35q127 -45 199 -45q97 0 153 49t56 127q0 49 -42 87t-215 87q-134 38 -219 75.5t-146.5 115.5t-61.5 207zM551 1544q-219 89 -242.5 99.5t-46 39.5t-22.5 74q0 50 38.5 90.5t86.5 40.5
q24 0 186 -71q163 71 187 71q48 0 86.5 -40.5t38.5 -90.5q0 -86 -95 -125z" />
    <glyph glyph-name="scaron" unicode="&#x161;" horiz-adv-x="872" 
d="M457 1114q137 0 252.5 -59.5t115.5 -153.5q0 -52 -35 -91.5t-85 -39.5q-24 0 -98 34q-112 52 -167 52q-45 0 -72.5 -21.5t-27.5 -60.5q0 -26 27.5 -50t145.5 -69q104 -39 171.5 -75t117.5 -100t50 -158q0 -150 -117 -248.5t-303 -98.5q-142 0 -277 69t-135 159
q0 42 37 86.5t90 44.5q55 0 137 -47q96 -54 169 -54q61 0 88.5 19t27.5 65q0 26 -27 49.5t-144 67.5q-104 40 -172 76t-118.5 100t-50.5 160q0 153 112 248.5t288 95.5zM436 1212q-219 89 -242.5 99.5t-46 39.5t-22.5 74q0 50 38.5 90.5t86.5 40.5q24 0 186 -71
q163 71 187 71q48 0 86.5 -40.5t38.5 -90.5q0 -86 -95 -125z" />
    <glyph glyph-name="Tcommaaccent" unicode="&#x162;" horiz-adv-x="983" 
d="M338 147v1029h-223q-66 0 -103 40t-37 101q0 58 39 99.5t101 41.5h753q62 0 101 -41.5t39 -99.5q0 -61 -37 -101t-103 -40h-223v-1029q0 -73 -42.5 -116t-110.5 -43q-69 0 -111.5 43t-42.5 116zM557 -442q-29 -64 -102 -64q-48 0 -83.5 27.5t-35.5 72.5q0 29 14 64
l70 168q30 72 102 72q52 0 89.5 -28t37.5 -73q0 -39 -14 -65z" />
    <glyph glyph-name="tcommaaccent" unicode="&#x163;" horiz-adv-x="606" 
d="M156 152v679h-66q-60 0 -94.5 35t-34.5 95q0 55 37 92t92 37h66v176q0 73 41 118.5t106 45.5t106.5 -45.5t41.5 -118.5v-176h84q66 0 103.5 -33.5t37.5 -95.5t-38 -96t-103 -34h-84v-679q0 -73 -41.5 -118.5t-106.5 -45.5t-106 45.5t-41 118.5zM357 -442
q-29 -64 -102 -64q-48 0 -83.5 27.5t-35.5 72.5q0 29 14 64l70 168q30 72 102 72q52 0 89.5 -28t37.5 -73q0 -39 -14 -65z" />
    <glyph glyph-name="Tcaron" unicode="&#x164;" horiz-adv-x="983" 
d="M338 147v1029h-223q-66 0 -103 40t-37 101q0 58 39 99.5t101 41.5h753q62 0 101 -41.5t39 -99.5q0 -61 -37 -101t-103 -40h-223v-1029q0 -73 -42.5 -116t-110.5 -43q-69 0 -111.5 43t-42.5 116zM491 1544q-219 89 -242.5 99.5t-46 39.5t-22.5 74q0 50 38.5 90.5
t86.5 40.5q24 0 186 -71q163 71 187 71q48 0 86.5 -40.5t38.5 -90.5q0 -86 -95 -125z" />
    <glyph glyph-name="tcaron" unicode="&#x165;" horiz-adv-x="649" 
d="M807 1192q-34 -74 -105 -74q-55 0 -94 30.5t-39 78.5q0 30 17 67l65 152q34 80 107 80q53 0 95 -32.5t42 -80.5q0 -33 -16 -65zM156 831h-66q-60 0 -94.5 35t-34.5 95q0 57 37.5 93t91.5 36h66v176q0 73 41.5 118.5t105.5 45.5t106 -45.5t42 -118.5v-176h63
q141 0 141 -129q0 -130 -141 -130h-63v-679q0 -75 -41.5 -119.5t-106.5 -44.5t-106 44.5t-41 119.5v679z" />
    <glyph glyph-name="Umacron" unicode="&#x16a;" horiz-adv-x="1403" 
d="M80 580v731q0 73 42.5 116t110.5 43q69 0 111.5 -43t42.5 -116v-715q0 -147 87.5 -242.5t227.5 -95.5q135 0 224.5 99t89.5 239v715q0 73 42.5 116t110.5 43q69 0 111.5 -43t42.5 -116v-731q0 -256 -182 -430.5t-439 -174.5q-259 0 -440.5 174.5t-181.5 430.5zM516 1827
h381q60 0 96.5 -33t36.5 -90t-36 -90t-97 -33h-381q-61 0 -97 33t-36 90t36.5 90t96.5 33z" />
    <glyph glyph-name="umacron" unicode="&#x16b;" 
d="M84 406v532q0 73 41 118.5t106 45.5t106.5 -45.5t41.5 -118.5v-526q0 -86 55 -138.5t135 -52.5t135.5 52.5t55.5 138.5v526q0 73 41 118.5t106 45.5t106.5 -45.5t41.5 -118.5v-532q0 -201 -128.5 -316t-357.5 -115q-228 0 -356.5 115t-128.5 316zM379 1495h381
q60 0 96.5 -33t36.5 -90t-36 -90t-97 -33h-381q-61 0 -97 33t-36 90t36.5 90t96.5 33z" />
    <glyph glyph-name="Ubreve" unicode="&#x16c;" horiz-adv-x="1403" 
d="M80 580v731q0 73 42.5 116t110.5 43q69 0 111.5 -43t42.5 -116v-715q0 -147 87.5 -242.5t227.5 -95.5q135 0 224.5 99t89.5 239v715q0 73 42.5 116t110.5 43q69 0 111.5 -43t42.5 -116v-731q0 -256 -182 -430.5t-439 -174.5q-259 0 -440.5 174.5t-181.5 430.5zM710 1554
q-123 0 -220 57.5t-97 155.5q0 53 24 88t68 35q42 0 65 -17.5t48 -52.5q24 -35 47 -52.5t65 -17.5q24 0 46.5 11t54.5 54q36 49 65 62t60 13q36 0 64 -39.5t28 -83.5q0 -101 -103.5 -157t-214.5 -56z" />
    <glyph glyph-name="ubreve" unicode="&#x16d;" 
d="M84 406v532q0 73 41 118.5t106 45.5t106.5 -45.5t41.5 -118.5v-526q0 -86 55 -138.5t135 -52.5t135.5 52.5t55.5 138.5v526q0 73 41 118.5t106 45.5t106.5 -45.5t41.5 -118.5v-532q0 -201 -128.5 -316t-357.5 -115q-228 0 -356.5 115t-128.5 316zM573 1223
q-123 0 -220 57.5t-97 155.5q0 53 24 88t68 35q42 0 65 -17.5t48 -52.5q24 -35 47 -52.5t65 -17.5q24 0 46.5 11t54.5 54q36 49 65 62t60 13q36 0 64 -39.5t28 -83.5q0 -101 -103.5 -157t-214.5 -56z" />
    <glyph glyph-name="Uring" unicode="&#x16e;" horiz-adv-x="1403" 
d="M80 580v731q0 73 42.5 116t110.5 43q69 0 111.5 -43t42.5 -116v-715q0 -147 87.5 -242.5t227.5 -95.5q135 0 224.5 99t89.5 239v715q0 73 42.5 116t110.5 43q69 0 111.5 -43t42.5 -116v-731q0 -256 -182 -430.5t-439 -174.5q-259 0 -440.5 174.5t-181.5 430.5zM700 1518
q-84 0 -143 59t-59 144q0 84 59 143t143 59t143.5 -59t59.5 -143q0 -85 -59.5 -144t-143.5 -59zM700 1813q-38 0 -65 -27t-27 -65q0 -39 27 -66t65 -27q39 0 65.5 27t26.5 66q0 38 -26.5 65t-65.5 27z" />
    <glyph glyph-name="uring" unicode="&#x16f;" 
d="M84 406v532q0 73 41 118.5t106 45.5t106.5 -45.5t41.5 -118.5v-526q0 -86 55 -138.5t135 -52.5t135.5 52.5t55.5 138.5v526q0 73 41 118.5t106 45.5t106.5 -45.5t41.5 -118.5v-532q0 -201 -128.5 -316t-357.5 -115q-228 0 -356.5 115t-128.5 316zM577 1186q-84 0 -143 59
t-59 144q0 84 59 143t143 59t143.5 -59t59.5 -143q0 -85 -59.5 -144t-143.5 -59zM577 1481q-38 0 -65 -27t-27 -65q0 -39 27 -66t65 -27q39 0 65.5 27t26.5 66q0 38 -26.5 65t-65.5 27z" />
    <glyph glyph-name="Uhungarumlaut" unicode="&#x170;" horiz-adv-x="1403" 
d="M80 580v731q0 73 42.5 116t110.5 43q69 0 111.5 -43t42.5 -116v-715q0 -147 87.5 -242.5t227.5 -95.5q135 0 224.5 99t89.5 239v715q0 73 42.5 116t110.5 43q69 0 111.5 -43t42.5 -116v-731q0 -256 -182 -430.5t-439 -174.5q-259 0 -440.5 174.5t-181.5 430.5zM474 1875
q73 29 91 34t33 5q43 0 77 -41t34 -86q0 -35 -13 -61t-33 -39.5t-154.5 -66t-150.5 -58.5t-45 -6q-43 0 -75.5 46t-32.5 103q0 25 17 47.5t40 34.5zM1043 1875q74 29 91.5 34t32.5 5q43 0 77 -41t34 -86q0 -35 -13 -61t-33 -39.5t-154.5 -66t-150.5 -58.5t-44 -6
q-44 0 -76.5 46t-32.5 103q0 25 17 47.5t40 34.5z" />
    <glyph glyph-name="uhungarumlaut" unicode="&#x171;" 
d="M84 406v532q0 73 41 118.5t106 45.5t106.5 -45.5t41.5 -118.5v-526q0 -86 55 -138.5t135 -52.5t135.5 52.5t55.5 138.5v526q0 73 41 118.5t106 45.5t106.5 -45.5t41.5 -118.5v-532q0 -201 -128.5 -316t-357.5 -115q-228 0 -356.5 115t-128.5 316zM343 1544q73 29 91 34
t33 5q43 0 77 -41t34 -86q0 -35 -13 -61t-33 -39.5t-154.5 -66t-150.5 -58.5t-45 -6q-43 0 -75.5 46t-32.5 103q0 25 17 47.5t40 34.5zM912 1544q74 29 91.5 34t32.5 5q43 0 77 -41t34 -86q0 -35 -13 -61t-33 -39.5t-154.5 -66t-150.5 -58.5t-44 -6q-44 0 -76.5 46
t-32.5 103q0 25 17 47.5t40 34.5z" />
    <glyph glyph-name="Uogonek" unicode="&#x172;" horiz-adv-x="1403" 
d="M80 1311q0 77 43.5 118t109.5 41q67 0 110.5 -41t43.5 -118v-715q0 -147 88 -242.5t227 -95.5q135 0 224.5 99.5t89.5 238.5v715q0 77 43.5 118t109.5 41q68 0 111 -43t43 -116v-731q0 -207 -129 -370t-340 -216q-65 -39 -112.5 -103t-47.5 -122q0 -80 72 -80q19 0 40 7
t40 7q43 0 43 -45q0 -43 -59.5 -73.5t-143.5 -30.5q-85 0 -136.5 47.5t-51.5 124.5q0 140 178 249q-258 13 -427 186t-169 419v731z" />
    <glyph glyph-name="uogonek" unicode="&#x173;" 
d="M84 938q0 73 41.5 118.5t105.5 45.5t106 -45.5t42 -118.5v-526q0 -84 55 -137.5t135 -53.5q81 0 136 53t55 138v526q0 73 41.5 118.5t105.5 45.5t106 -45.5t42 -118.5v-532q0 -170 -91 -278.5t-264 -139.5q-149 -103 -149 -219q0 -80 72 -80q24 0 40 7q15 7 39 7
q43 0 43 -45q0 -43 -59 -73.5t-143 -30.5t-136.5 47t-52.5 125q0 138 181 251q-216 10 -333.5 123.5t-117.5 305.5v532z" />
    <glyph glyph-name="Ydieresis" unicode="&#x178;" horiz-adv-x="1098" 
d="M395 137v547l-247 348q-142 199 -149 210.5t-13 33.5t-6 45q0 62 41.5 105.5t105.5 43.5q85 0 132 -68l290 -421l294 427q22 31 55 46.5t73 15.5q63 0 105 -43.5t42 -105.5q0 -17 -3.5 -33.5t-10 -31.5t-62.5 -95l-340 -477v-547q0 -66 -40.5 -107.5t-112.5 -41.5
q-73 0 -113.5 41.5t-40.5 107.5zM775 1567q-62 0 -105 43t-43 104q0 62 43 105t105 43q61 0 104 -43t43 -105q0 -61 -43 -104t-104 -43zM324 1567q-61 0 -104 43t-43 104q0 62 43 105t104 43t104.5 -43t43.5 -105q0 -61 -43.5 -104t-104.5 -43z" />
    <glyph glyph-name="Zacute" unicode="&#x179;" horiz-adv-x="1214" 
d="M428 270h594q67 0 107 -36t40 -99q0 -56 -45 -95.5t-102 -39.5h-805q-79 0 -125.5 40.5t-46.5 106.5q0 62 41 119l659 922h-538q-64 0 -104 35.5t-40 95.5q0 58 42.5 98.5t101.5 40.5h749q80 0 126 -42.5t46 -104.5q0 -69 -45 -131zM673 1875q73 29 90.5 34t33.5 5
q43 0 76.5 -41t33.5 -86q0 -35 -12.5 -61t-33 -39.5t-155 -66t-150.5 -58.5t-44 -6q-43 0 -76 46t-33 103q0 25 17 47.5t41 34.5z" />
    <glyph glyph-name="zacute" unicode="&#x17a;" horiz-adv-x="985" 
d="M49 180l463 651h-342q-58 0 -95.5 35.5t-37.5 94.5t38 94t95 35h670q39 0 67.5 -23.5t28.5 -69.5q0 -45 -31 -88l-465 -651h389q59 0 96.5 -35.5t37.5 -93.5t-37.5 -93.5t-96.5 -35.5h-686q-54 0 -87 27t-33 73q0 43 26 80zM575 1544q73 29 90.5 34t33.5 5q43 0 76.5 -41
t33.5 -86q0 -35 -12.5 -61t-33 -39.5t-155 -66t-150.5 -58.5t-44 -6q-43 0 -76 46t-33 103q0 25 17 47.5t41 34.5z" />
    <glyph glyph-name="Zdotaccent" unicode="&#x17b;" horiz-adv-x="1214" 
d="M428 270h594q67 0 107 -36t40 -99q0 -56 -45 -95.5t-102 -39.5h-805q-79 0 -125.5 40.5t-46.5 106.5q0 62 41 119l659 922h-538q-64 0 -104 35.5t-40 95.5q0 58 42.5 98.5t101.5 40.5h749q80 0 126 -42.5t46 -104.5q0 -69 -45 -131zM622 1567q-61 0 -104 43t-43 104
q0 62 43 105t104 43t104.5 -43t43.5 -105q0 -61 -43 -104t-105 -43z" />
    <glyph glyph-name="zdotaccent" unicode="&#x17c;" horiz-adv-x="985" 
d="M49 180l463 651h-342q-58 0 -95.5 35.5t-37.5 94.5t38 94t95 35h670q39 0 67.5 -23.5t28.5 -69.5q0 -45 -31 -88l-465 -651h389q59 0 96.5 -35.5t37.5 -93.5t-37.5 -93.5t-96.5 -35.5h-686q-54 0 -87 27t-33 73q0 43 26 80zM520 1235q-61 0 -104 43t-43 104q0 62 43 105
t104 43t104.5 -43t43.5 -105q0 -61 -43 -104t-105 -43z" />
    <glyph glyph-name="Zcaron" unicode="&#x17d;" horiz-adv-x="1214" 
d="M428 270h594q67 0 107 -36t40 -99q0 -56 -45 -95.5t-102 -39.5h-805q-79 0 -125.5 40.5t-46.5 106.5q0 62 41 119l659 922h-538q-64 0 -104 35.5t-40 95.5q0 58 42.5 98.5t101.5 40.5h749q80 0 126 -42.5t46 -104.5q0 -69 -45 -131zM608 1544q-219 89 -242.5 99.5
t-46 39.5t-22.5 74q0 50 38.5 90.5t86.5 40.5q24 0 186 -71q163 71 187 71q48 0 86.5 -40.5t38.5 -90.5q0 -86 -95 -125z" />
    <glyph glyph-name="zcaron" unicode="&#x17e;" horiz-adv-x="985" 
d="M49 180l463 651h-342q-58 0 -95.5 35.5t-37.5 94.5t38 94t95 35h670q39 0 67.5 -23.5t28.5 -69.5q0 -45 -31 -88l-465 -651h389q59 0 96.5 -35.5t37.5 -93.5t-37.5 -93.5t-96.5 -35.5h-686q-54 0 -87 27t-33 73q0 43 26 80zM493 1212q-219 89 -242.5 99.5t-46 39.5
t-22.5 74q0 50 38.5 90.5t86.5 40.5q24 0 186 -71q163 71 187 71q48 0 86.5 -40.5t38.5 -90.5q0 -86 -95 -125z" />
    <glyph glyph-name="florin" unicode="&#x192;" horiz-adv-x="1176" 
d="M453 866l60 315q20 101 62.5 168t110.5 100.5t164 33.5q94 0 147.5 -35.5t53.5 -104.5q0 -118 -160 -118q-40 0 -62 -26.5t-32 -83.5l-45 -249h71q69 0 106.5 -33t37.5 -94q0 -68 -45 -99.5t-150 -31.5h-67l-130 -708q-33 -181 -118.5 -263.5t-229.5 -82.5
q-198 0 -198 133q0 58 33.5 91.5t127.5 33.5q69 0 92 124l126 672h-52q-66 0 -102.5 34.5t-36.5 90.5q0 64 41 98.5t113 34.5h82z" />
    <glyph glyph-name="Scommaaccent" unicode="&#x218;" horiz-adv-x="1100" 
d="M45 1018q0 204 146.5 334.5t361.5 130.5q147 0 274 -54.5t127 -150.5q0 -63 -38.5 -107.5t-98.5 -44.5q-38 0 -110 27q-95 35 -162 35q-72 0 -120 -36.5t-48 -96.5q0 -40 36.5 -71.5t191.5 -76.5q139 -41 230.5 -83.5t158.5 -133t67 -239.5q0 -209 -151 -342.5
t-373 -133.5q-208 0 -353 59.5t-145 170.5q0 62 38.5 103.5t98.5 41.5q44 0 145 -35q127 -45 199 -45q97 0 153 49t56 127q0 49 -42 87t-215 87q-134 38 -219 75.5t-146.5 115.5t-61.5 207zM584 -442q-29 -64 -102 -64q-48 0 -83.5 27.5t-35.5 72.5q0 29 14 64l70 168
q30 72 102 72q52 0 89.5 -28t37.5 -73q0 -39 -14 -65z" />
    <glyph glyph-name="scommaaccent" unicode="&#x219;" horiz-adv-x="872" 
d="M457 1114q137 0 252.5 -59.5t115.5 -153.5q0 -52 -35 -91.5t-85 -39.5q-24 0 -98 34q-112 52 -167 52q-45 0 -72.5 -21.5t-27.5 -60.5q0 -26 27.5 -50t145.5 -69q104 -39 171.5 -75t117.5 -100t50 -158q0 -150 -117 -248.5t-303 -98.5q-142 0 -277 69t-135 159
q0 42 37 86.5t90 44.5q55 0 137 -47q96 -54 169 -54q61 0 88.5 19t27.5 65q0 26 -27 49.5t-144 67.5q-104 40 -172 76t-118.5 100t-50.5 160q0 153 112 248.5t288 95.5zM494 -442q-29 -64 -102 -64q-48 0 -83.5 27.5t-35.5 72.5q0 29 14 64l70 168q30 72 102 72
q52 0 89.5 -28t37.5 -73q0 -39 -14 -65z" />
    <glyph glyph-name="uni021A" unicode="&#x21a;" horiz-adv-x="983" 
d="M338 147v1029h-223q-66 0 -103 40t-37 101q0 58 39 99.5t101 41.5h753q62 0 101 -41.5t39 -99.5q0 -61 -37 -101t-103 -40h-223v-1029q0 -73 -42.5 -116t-110.5 -43q-69 0 -111.5 43t-42.5 116zM557 -442q-29 -64 -102 -64q-48 0 -83.5 27.5t-35.5 72.5q0 29 14 64
l70 168q30 72 102 72q52 0 89.5 -28t37.5 -73q0 -39 -14 -65z" />
    <glyph glyph-name="uni021B" unicode="&#x21b;" horiz-adv-x="606" 
d="M156 152v679h-66q-60 0 -94.5 35t-34.5 95q0 55 37 92t92 37h66v176q0 73 41 118.5t106 45.5t106.5 -45.5t41.5 -118.5v-176h84q66 0 103.5 -33.5t37.5 -95.5t-38 -96t-103 -34h-84v-679q0 -73 -41.5 -118.5t-106.5 -45.5t-106 45.5t-41 118.5zM357 -442
q-29 -64 -102 -64q-48 0 -83.5 27.5t-35.5 72.5q0 29 14 64l70 168q30 72 102 72q52 0 89.5 -28t37.5 -73q0 -39 -14 -65z" />
    <glyph glyph-name="circumflex" unicode="&#x2c6;" horiz-adv-x="455" 
d="M227 1292q-162 -71 -186 -71q-48 0 -86.5 40.5t-38.5 90.5q0 45 23 75t71 49l217 89q219 -89 243 -99.5t46.5 -39t22.5 -74.5q0 -50 -38.5 -90.5t-86.5 -40.5q-24 0 -187 71z" />
    <glyph glyph-name="caron" unicode="&#x2c7;" horiz-adv-x="455" 
d="M227 1212q-219 89 -242.5 99.5t-46 39.5t-22.5 74q0 50 38.5 90.5t86.5 40.5q24 0 186 -71q163 71 187 71q48 0 86.5 -40.5t38.5 -90.5q0 -86 -95 -125z" />
    <glyph glyph-name="macron" unicode="&#x2c9;" horiz-adv-x="455" 
d="M37 1495h381q60 0 96.5 -33t36.5 -90t-36 -90t-97 -33h-381q-61 0 -97 33t-36 90t36.5 90t96.5 33z" />
    <glyph glyph-name="breve" unicode="&#x2d8;" horiz-adv-x="455" 
d="M227 1223q-123 0 -220 57.5t-97 155.5q0 53 24 88t68 35q42 0 65 -17.5t48 -52.5q24 -35 47 -52.5t65 -17.5q24 0 46.5 11t54.5 54q36 49 65 62t60 13q36 0 64 -39.5t28 -83.5q0 -101 -103.5 -157t-214.5 -56z" />
    <glyph glyph-name="dotaccent" unicode="&#x2d9;" horiz-adv-x="455" 
d="M227 1235q-61 0 -104 43t-43 104q0 62 43 105t104 43t104.5 -43t43.5 -105q0 -61 -43 -104t-105 -43z" />
    <glyph glyph-name="ring" unicode="&#x2da;" horiz-adv-x="455" 
d="M227 1186q-84 0 -143 59t-59 144q0 84 59 143t143 59t143.5 -59t59.5 -143q0 -85 -59.5 -144t-143.5 -59zM227 1481q-38 0 -65 -27t-27 -65q0 -39 27 -66t65 -27q39 0 65.5 27t26.5 66q0 38 -26.5 65t-65.5 27z" />
    <glyph glyph-name="ogonek" unicode="&#x2db;" horiz-adv-x="455" 
d="M250 0h141q-69 -38 -120.5 -105.5t-51.5 -125.5q0 -80 72 -80q16 0 40 7q23 7 40 7q43 0 43 -45t-61 -74.5t-142 -29.5q-85 0 -136.5 47t-51.5 125q0 57 36.5 116t105.5 108.5t85 49.5z" />
    <glyph glyph-name="tilde" unicode="&#x2dc;" horiz-adv-x="455" 
d="M135 1292q-23 0 -61 -23q-47 -30 -84 -30q-38 0 -70.5 34t-32.5 73q0 80 55.5 130t139.5 50q55 0 150 -32q59 -19 79 -19q19 0 69 26q61 33 91 33q43 0 69.5 -33.5t26.5 -81.5q0 -74 -62.5 -126t-137.5 -52q-37 0 -135 29q-75 22 -97 22z" />
    <glyph glyph-name="hungarumlaut" unicode="&#x2dd;" horiz-adv-x="455" 
d="M-40 1544q73 29 91 34t33 5q43 0 77 -41t34 -86q0 -35 -13 -61t-33 -39.5t-154.5 -66t-150.5 -58.5t-45 -6q-43 0 -75.5 46t-32.5 103q0 25 17 47.5t40 34.5zM529 1544q74 29 91.5 34t32.5 5q43 0 77 -41t34 -86q0 -35 -13 -61t-33 -39.5t-154.5 -66t-150.5 -58.5t-44 -6
q-44 0 -76.5 46t-32.5 103q0 25 17 47.5t40 34.5z" />
    <glyph glyph-name="afii10023" unicode="&#x401;" horiz-adv-x="948" 
d="M92 154v1126q0 83 42 130.5t118 47.5h508q67 0 106 -40.5t39 -100.5q0 -59 -39.5 -100t-105.5 -41h-361v-299h336q69 0 109.5 -41t40.5 -101q0 -58 -41 -99.5t-109 -41.5h-336v-311h379q67 0 106.5 -40.5t39.5 -101.5q0 -58 -40 -99.5t-106 -41.5h-528q-69 0 -113.5 43
t-44.5 111zM701 1567q-62 0 -105 43t-43 104q0 62 43 105t105 43q61 0 104 -43t43 -105q0 -61 -43 -104t-104 -43zM250 1567q-61 0 -104 43t-43 104q0 62 43 105t104 43t104.5 -43t43.5 -105q0 -61 -43.5 -104t-104.5 -43z" />
    <glyph glyph-name="afii10051" unicode="&#x402;" horiz-adv-x="1386" 
d="M625 1176v-236h188q252 0 398.5 -129.5t146.5 -349.5q0 -214 -121 -343.5t-319 -129.5q-168 0 -168 135q0 116 131 131q82 8 128 58t46 132q0 117 -74.5 168.5t-228.5 51.5h-127v-512q0 -78 -41.5 -121t-112.5 -43q-70 0 -112 43.5t-42 120.5v1024h-182q-74 0 -117 38
t-43 103q0 66 42 103.5t118 37.5h774q76 0 118 -37t42 -104q0 -65 -42.5 -103t-117.5 -38h-284z" />
    <glyph glyph-name="afii10052" unicode="&#x403;" horiz-adv-x="895" 
d="M397 1176v-1024q0 -78 -41 -121t-112 -43q-70 0 -111 43t-41 121v1153q0 68 44 110.5t108 42.5h522q71 0 112.5 -38.5t41.5 -102.5q0 -66 -41 -103.5t-113 -37.5h-369zM532 1875q73 29 90.5 34t33.5 5q43 0 76.5 -41t33.5 -86q0 -35 -12.5 -61t-33 -39.5t-155 -66
t-150.5 -58.5t-44 -6q-43 0 -76 46t-33 103q0 25 17 47.5t41 34.5z" />
    <glyph glyph-name="afii10053" unicode="&#x404;" horiz-adv-x="1229" 
d="M375 590q30 -155 125.5 -236.5t244.5 -81.5q121 0 231 55q57 27 89 27q67 0 101 -41.5t34 -101.5q0 -107 -137.5 -171.5t-321.5 -64.5q-322 0 -514 211t-192 541q0 334 196.5 546t516.5 212q199 0 320.5 -66t121.5 -164q0 -59 -38.5 -103t-94.5 -44q-31 0 -94 29
q-112 53 -209 53q-312 0 -377 -316h471q71 0 112 -38t41 -103q0 -66 -41 -104.5t-112 -38.5h-473z" />
    <glyph glyph-name="afii10054" unicode="&#x405;" horiz-adv-x="1100" 
d="M45 1018q0 204 146.5 334.5t361.5 130.5q147 0 274 -54.5t127 -150.5q0 -63 -38.5 -107.5t-98.5 -44.5q-38 0 -110 27q-95 35 -162 35q-72 0 -120 -36.5t-48 -96.5q0 -40 36.5 -71.5t191.5 -76.5q139 -41 230.5 -83.5t158.5 -133t67 -239.5q0 -209 -151 -342.5
t-373 -133.5q-208 0 -353 59.5t-145 170.5q0 62 38.5 103.5t98.5 41.5q44 0 145 -35q127 -45 199 -45q97 0 153 49t56 127q0 49 -42 87t-215 87q-134 38 -219 75.5t-146.5 115.5t-61.5 207z" />
    <glyph glyph-name="afii10055" unicode="&#x406;" horiz-adv-x="492" 
d="M92 147v1164q0 73 42.5 116t111.5 43t111 -43t42 -116v-1164q0 -74 -42.5 -116.5t-110.5 -42.5q-69 0 -111.5 43t-42.5 116z" />
    <glyph glyph-name="afii10056" unicode="&#x407;" horiz-adv-x="492" 
d="M92 147v1164q0 73 42.5 116t111.5 43t111 -43t42 -116v-1164q0 -74 -42.5 -116.5t-110.5 -42.5q-69 0 -111.5 43t-42.5 116zM471 1567q-62 0 -105 43t-43 104q0 62 43 105t105 43q61 0 104 -43t43 -105q0 -61 -43 -104t-104 -43zM20 1567q-61 0 -104 43t-43 104
q0 62 43 105t104 43t104.5 -43t43.5 -105q0 -61 -43.5 -104t-104.5 -43z" />
    <glyph glyph-name="afii10057" unicode="&#x408;" horiz-adv-x="834" 
d="M754 1311v-901q0 -162 -59.5 -258.5t-150.5 -136.5t-196 -40q-150 0 -263.5 62t-113.5 172q0 45 33.5 85t81.5 40q40 0 116 -36q82 -40 130 -40q53 0 83.5 34.5t30.5 137.5v881q0 73 42.5 116t111.5 43t111.5 -43t42.5 -116z" />
    <glyph glyph-name="afii10058" unicode="&#x409;" horiz-adv-x="2154" 
d="M627 1176l-88 -713q-28 -224 -136 -349.5t-262 -125.5q-69 0 -109 42.5t-40 112.5q0 87 84 121q88 35 123 111.5t49 191.5l90 740q9 72 49.5 111.5t104.5 39.5h694q65 0 109 -41.5t44 -109.5v-398h310q222 0 349.5 -125t127.5 -319q0 -210 -131.5 -337.5t-370.5 -127.5
h-434q-67 0 -111.5 42t-44.5 112v1022h-407zM1339 627v-355h252q102 0 160.5 47t58.5 132t-57 130.5t-162 45.5h-252z" />
    <glyph glyph-name="afii10059" unicode="&#x40a;" horiz-adv-x="2163" 
d="M397 627v-475q0 -78 -41 -121t-112 -43q-70 0 -111 43t-41 121v1155q0 79 41.5 121t110.5 42q71 0 112 -43t41 -120v-398h645v398q0 79 42 121t110 42q71 0 112.5 -43t41.5 -120v-398h307q223 0 351 -125t128 -319q0 -210 -131.5 -337.5t-370.5 -127.5h-436
q-66 0 -110 42t-44 112v473h-645zM1348 627v-355h249q103 0 161.5 46.5t58.5 132.5t-58 131t-160 45h-251z" />
    <glyph glyph-name="afii10060" unicode="&#x40b;" horiz-adv-x="1413" 
d="M623 1176v-236h135q294 0 446 -143.5t152 -415.5v-225q0 -81 -40 -124.5t-112 -43.5q-151 0 -151 168v157q0 188 -82 269.5t-277 81.5h-71v-512q0 -80 -42 -122t-112 -42t-111 43t-41 121v1024h-182q-74 0 -117 38t-43 103q0 66 42 103.5t118 37.5h772q76 0 118 -37
t42 -104q0 -65 -42.5 -103t-117.5 -38h-284z" />
    <glyph glyph-name="afii10061" unicode="&#x40c;" horiz-adv-x="1251" 
d="M92 135v1184q0 64 43 107.5t111 43.5t110.5 -41.5t42.5 -109.5v-442l504 536q53 57 119 57q61 0 106.5 -42t45.5 -105t-74 -137l-414 -408q482 -502 520.5 -546t38.5 -103q0 -66 -44.5 -103.5t-115.5 -37.5q-35 0 -68 18.5t-87 77.5l-531 573v-522q0 -61 -43 -104
t-110 -43q-68 0 -111 40.5t-43 106.5zM657 1875q73 29 90.5 34t33.5 5q43 0 76.5 -41t33.5 -86q0 -35 -12.5 -61t-33 -39.5t-155 -66t-150.5 -58.5t-44 -6q-43 0 -76 46t-33 103q0 25 17 47.5t41 34.5z" />
    <glyph glyph-name="afii10062" unicode="&#x40e;" horiz-adv-x="1253" 
d="M643 1554q-123 0 -220 58t-97 155q0 54 24 88.5t68 34.5q42 0 65 -17.5t47 -51.5q25 -35 48 -52.5t65 -17.5q24 0 46.5 11t54.5 54q36 49 65 61.5t59 12.5q37 0 65 -39.5t28 -83.5q0 -94 -100 -153.5t-218 -59.5zM649 705l203 437q101 216 119 247.5t52.5 56t88.5 24.5
q64 0 107 -43.5t43 -103.5q0 -43 -39 -125l-379 -797q-112 -234 -232 -321.5t-313 -87.5q-107 0 -174.5 41t-67.5 106q0 66 32 110t83 44q20 0 56 -9q51 -12 89 -12q50 0 92 18t80 91l-438 815q-39 74 -39 125q0 62 45.5 105.5t116.5 43.5q45 0 82.5 -21t81.5 -110z" />
    <glyph glyph-name="afii10145" unicode="&#x40f;" horiz-adv-x="1421" 
d="M1024 283v1024q0 77 41 120t113 43q69 0 110 -43t41 -120v-1155q0 -71 -44.5 -111.5t-108.5 -40.5h-322v-201q0 -73 -38 -114t-105 -41q-65 0 -103.5 41.5t-38.5 113.5v201h-323q-66 0 -110 42t-44 110v1155q0 79 41.5 121t110.5 42q71 0 112 -43t41 -120v-1024h627z" />
    <glyph glyph-name="afii10017" unicode="&#x410;" horiz-adv-x="1290" 
d="M18 199l412 1114q28 76 87 123t132 47q75 0 132.5 -44.5t86.5 -125.5l402 -1114q16 -44 16 -76q0 -58 -41.5 -96.5t-99.5 -38.5t-95.5 27t-55.5 82l-60 190h-569q-64 -196 -73.5 -222t-44.5 -51.5t-91 -25.5q-63 0 -107.5 41.5t-44.5 101.5q0 29 14 68zM647 1163
l-194 -594h389l-191 594h-4z" />
    <glyph glyph-name="afii10018" unicode="&#x411;" horiz-adv-x="1212" 
d="M397 909h310q222 0 349.5 -125t127.5 -319q0 -210 -131.5 -337.5t-370.5 -127.5h-434q-67 0 -111.5 42t-44.5 112v1151q0 68 44 110.5t108 42.5h581q76 0 118 -37t42 -104q0 -64 -42 -102.5t-118 -38.5h-428v-267zM397 627v-355h252q101 0 159 47t58 132t-56 130.5
t-161 45.5h-252z" />
    <glyph glyph-name="afii10019" unicode="&#x412;" horiz-adv-x="1176" 
d="M92 156v1149q0 72 45 112.5t117 40.5h393q164 0 274.5 -101.5t110.5 -258.5q0 -214 -190 -301v-4q138 -22 224.5 -121.5t86.5 -227.5q0 -208 -127.5 -326t-347.5 -118h-422q-72 0 -118 43t-46 113zM399 1188v-307h160q77 0 121.5 43t44.5 118q0 67 -46.5 106.5
t-119.5 39.5h-160zM399 610v-340h242q87 0 140 48t53 131q0 74 -56.5 117.5t-161.5 43.5h-217z" />
    <glyph glyph-name="afii10020" unicode="&#x413;" horiz-adv-x="895" 
d="M397 1176v-1024q0 -78 -41 -121t-112 -43q-70 0 -111 43t-41 121v1153q0 68 44 110.5t108 42.5h522q71 0 112.5 -38.5t41.5 -102.5q0 -66 -41 -103.5t-113 -37.5h-369z" />
    <glyph glyph-name="afii10021" unicode="&#x414;" horiz-adv-x="1667" 
d="M1350 0h-1045v-201q0 -73 -38 -114t-105 -41q-65 0 -103.5 41.5t-38.5 113.5v342q0 64 41 103t111 39h37q69 103 101 318l104 706q10 72 50.5 111.5t102.5 39.5h680q65 0 109.5 -42t44.5 -109v-1024h82q70 0 110.5 -38t40.5 -104v-342q0 -73 -37.5 -114t-103.5 -41
t-104.5 41.5t-38.5 113.5v201zM702 1176l-85 -602q-13 -94 -34.5 -165.5t-47.5 -125.5h559v893h-392z" />
    <glyph glyph-name="afii10022" unicode="&#x415;" horiz-adv-x="948" 
d="M92 154v1126q0 83 42 130.5t118 47.5h508q67 0 106 -40.5t39 -100.5q0 -59 -39.5 -100t-105.5 -41h-361v-299h336q69 0 109.5 -41t40.5 -101q0 -58 -41 -99.5t-109 -41.5h-336v-311h379q67 0 106.5 -40.5t39.5 -101.5q0 -58 -40 -99.5t-106 -41.5h-528q-69 0 -113.5 43
t-44.5 111z" />
    <glyph glyph-name="afii10024" unicode="&#x416;" horiz-adv-x="2005" 
d="M1155 881l328 346q171 180 195.5 201.5t50 31.5t57.5 10q55 0 103 -44t48 -101q0 -65 -72 -136l-417 -411l315 -332q162 -173 184 -197.5t37 -52.5t15 -59q0 -67 -45.5 -108t-114.5 -41q-72 0 -188 127l-496 540v-503q0 -78 -41 -121t-113 -43q-69 0 -110 43t-41 121v503
l-498 -540q-117 -127 -188 -127q-68 0 -113 41t-45 108q0 40 23 73.5t172 190.5l356 377l-286 281q-152 149 -166 166.5t-25.5 45t-11.5 54.5q0 57 48 101t103 44q25 0 45 -6t42.5 -21.5t95.5 -92.5l448 -471v428q0 77 41 120t110 43q72 0 113 -43t41 -120v-426z" />
    <glyph glyph-name="afii10025" unicode="&#x417;" horiz-adv-x="1085" 
d="M776 772q277 -71 277 -346q0 -210 -152 -333.5t-397 -123.5q-183 0 -334.5 69.5t-151.5 168.5q0 68 39.5 113t104.5 45q33 0 108 -35q133 -62 238 -62q103 0 159 43.5t56 116.5q0 94 -78 138t-246 44q-80 0 -124 34.5t-44 96.5q0 148 160 148q127 0 196.5 45.5
t69.5 116.5q0 68 -44.5 107.5t-118.5 39.5q-84 0 -171 -54q-66 -40 -112 -40q-60 0 -96.5 40.5t-36.5 104.5q0 87 119 163.5t338 76.5q209 0 330.5 -108.5t121.5 -280.5q0 -237 -211 -328z" />
    <glyph glyph-name="afii10026" unicode="&#x418;" horiz-adv-x="1440" 
d="M1040 152v753h-4l-583 -758q-78 -100 -114.5 -129.5t-94.5 -29.5q-71 0 -111.5 42.5t-40.5 121.5v1155q0 79 41.5 121t110.5 42q71 0 112 -43t41 -120v-752h4l584 756q77 100 114 129.5t95 29.5q70 0 112 -43t42 -120v-1155q0 -78 -41.5 -121t-112.5 -43q-70 0 -112 43.5
t-42 120.5z" />
    <glyph glyph-name="afii10027" unicode="&#x419;" horiz-adv-x="1440" 
d="M725 1554q-123 0 -220 58t-97 155q0 54 24 88.5t68 34.5q42 0 65 -17.5t47 -51.5q25 -35 48 -52.5t65 -17.5q24 0 46.5 11t54.5 54q36 49 65 61.5t59 12.5q37 0 64.5 -39.5t27.5 -83.5q0 -94 -99.5 -153.5t-217.5 -59.5zM1040 152v753h-4l-583 -758
q-78 -100 -114.5 -129.5t-94.5 -29.5q-71 0 -111.5 42.5t-40.5 121.5v1155q0 79 41.5 121t110.5 42q71 0 112 -43t41 -120v-752h4l584 756q77 100 114 129.5t95 29.5q70 0 112 -43t42 -120v-1155q0 -78 -41.5 -121t-112.5 -43q-70 0 -112 43.5t-42 120.5z" />
    <glyph glyph-name="afii10028" unicode="&#x41a;" horiz-adv-x="1251" 
d="M92 135v1184q0 64 43 107.5t111 43.5t110.5 -41.5t42.5 -109.5v-442l504 536q53 57 119 57q61 0 106.5 -42t45.5 -105t-74 -137l-414 -408q482 -502 520.5 -546t38.5 -103q0 -66 -44.5 -103.5t-115.5 -37.5q-35 0 -68 18.5t-87 77.5l-531 573v-522q0 -61 -43 -104
t-110 -43q-68 0 -111 40.5t-43 106.5z" />
    <glyph glyph-name="afii10029" unicode="&#x41b;" horiz-adv-x="1432" 
d="M627 1176l-88 -713q-28 -224 -135.5 -349.5t-262.5 -125.5q-69 0 -109 42.5t-40 112.5q0 87 84 121q88 35 123 111.5t49 191.5l90 740q9 72 49.5 111.5t104.5 39.5h694q65 0 109 -41.5t44 -109.5v-1155q0 -78 -40.5 -121t-110.5 -43q-71 0 -112.5 43t-41.5 121v1024h-407
z" />
    <glyph glyph-name="afii10030" unicode="&#x41c;" horiz-adv-x="1782" 
d="M51 170l191 1143q10 61 67.5 109t132.5 48q72 0 130 -44t75 -103l242 -811h4l242 811q18 60 75.5 103.5t128.5 43.5q75 0 133 -48t68 -109l191 -1143q2 -12 2 -35q0 -65 -42 -106t-106 -41q-74 0 -111 33t-49 110l-120 834h-5l-245 -859q-35 -118 -164 -118
q-130 0 -164 118l-246 859h-4l-121 -834q-11 -78 -48.5 -110.5t-110.5 -32.5q-64 0 -106 41t-42 106q0 23 2 35z" />
    <glyph glyph-name="afii10031" unicode="&#x41d;" horiz-adv-x="1442" 
d="M92 147v1164q0 73 42.5 116t111.5 43t111 -43t42 -116v-434h643v434q0 73 42.5 116t111.5 43t111.5 -43t42.5 -116v-1164q0 -73 -42.5 -116t-111.5 -43t-111.5 43t-42.5 116v447h-643v-447q0 -74 -42.5 -116.5t-110.5 -42.5q-69 0 -111.5 43t-42.5 116z" />
    <glyph glyph-name="afii10032" unicode="&#x41e;" horiz-adv-x="1479" 
d="M1444 729q0 -324 -199 -539t-506 -215q-305 0 -504.5 216t-199.5 538q0 323 197 538.5t507 215.5q302 0 503.5 -218.5t201.5 -535.5zM354 729q0 -208 103.5 -339.5t281.5 -131.5q179 0 282 131.5t103 339.5q0 205 -104 338t-281 133q-176 0 -280.5 -133t-104.5 -338z" />
    <glyph glyph-name="afii10033" unicode="&#x41f;" horiz-adv-x="1421" 
d="M1024 1176h-627v-1024q0 -78 -41 -121t-112 -43q-70 0 -111 43t-41 121v1155q0 71 45 111t111 40h928q65 0 109 -41.5t44 -109.5v-1155q0 -78 -41 -121t-110 -43q-71 0 -112.5 43t-41.5 121v1024z" />
    <glyph glyph-name="afii10034" unicode="&#x420;" 
d="M92 147v1151q0 74 42.5 117t117.5 43h362q229 0 377 -137t148 -352q0 -219 -148 -352.5t-364 -133.5h-228v-336q0 -74 -42.5 -116.5t-110.5 -42.5q-69 0 -111.5 43t-42.5 116zM399 1188v-434h209q94 0 152.5 61t58.5 156q0 94 -58 155.5t-153 61.5h-209z" />
    <glyph glyph-name="afii10035" unicode="&#x421;" horiz-adv-x="1251" 
d="M739 -25q-305 0 -504.5 216t-199.5 538q0 323 197 538.5t507 215.5q174 0 307.5 -60.5t133.5 -169.5q0 -57 -36.5 -97t-90.5 -40q-35 0 -100 27q-112 45 -214 45q-176 0 -280.5 -130.5t-104.5 -334.5q0 -198 105 -325.5t280 -127.5q102 0 222 55q69 31 104 31
q59 0 97 -46t38 -93q0 -116 -137 -179t-324 -63z" />
    <glyph glyph-name="afii10036" unicode="&#x422;" horiz-adv-x="983" 
d="M338 147v1029h-223q-66 0 -103 40t-37 101q0 58 39 99.5t101 41.5h753q62 0 101 -41.5t39 -99.5q0 -61 -37 -101t-103 -40h-223v-1029q0 -73 -42.5 -116t-110.5 -43q-69 0 -111.5 43t-42.5 116z" />
    <glyph glyph-name="afii10037" unicode="&#x423;" horiz-adv-x="1253" 
d="M649 705l203 437q101 216 119 247.5t52.5 56t88.5 24.5q64 0 107 -43.5t43 -103.5q0 -43 -39 -125l-379 -797q-112 -234 -232 -321.5t-313 -87.5q-107 0 -174.5 41t-67.5 106q0 66 32 110t83 44q20 0 56 -9q51 -12 89 -12q50 0 92 18t80 91l-438 815q-39 74 -39 125
q0 62 45.5 105.5t116.5 43.5q45 0 82.5 -21t81.5 -110z" />
    <glyph glyph-name="afii10038" unicode="&#x424;" horiz-adv-x="1532" 
d="M915 164v-41q0 -80 -40 -122t-109 -42t-109.5 43t-40.5 121v41q-293 35 -449.5 186.5t-156.5 384.5q0 230 157 381t449 187v43q0 77 40.5 120t109.5 43q70 0 109.5 -42.5t39.5 -120.5v-43q293 -36 450 -187t157 -381q0 -233 -156.5 -384.5t-450.5 -186.5zM915 453
q133 20 206 95t73 187q0 113 -73 188.5t-206 96.5v-567zM616 1020q-132 -20 -204 -95.5t-72 -189.5q0 -113 72 -187.5t204 -94.5v567z" />
    <glyph glyph-name="afii10039" unicode="&#x425;" horiz-adv-x="1253" 
d="M627 522l-337 -468q-24 -34 -55.5 -50t-70.5 -16q-69 0 -112.5 40t-43.5 103q0 62 43 117l398 532l-215 291q-122 166 -129 176t-14 31t-7 43q0 66 44 107.5t112 41.5q79 0 144 -92l243 -344l252 359q27 38 63.5 57.5t71.5 19.5q67 0 111 -41.5t44 -107.5q0 -23 -7.5 -45
t-55.5 -87l-301 -409l260 -349q147 -198 155 -210t16.5 -37.5t8.5 -52.5q0 -63 -43.5 -103t-111.5 -40q-79 0 -127 66z" />
    <glyph glyph-name="afii10040" unicode="&#x426;" horiz-adv-x="1612" 
d="M1294 0h-1048q-66 0 -110 42t-44 110v1155q0 79 41.5 121t110.5 42q71 0 112 -43t41 -120v-1024h627v1024q0 77 41 120t113 43q69 0 110 -43t41 -120v-1024h96q72 0 113 -38t41 -104v-342q0 -73 -38 -114t-105 -41q-66 0 -104 41.5t-38 113.5v201z" />
    <glyph glyph-name="afii10041" unicode="&#x427;" horiz-adv-x="1317" 
d="M920 506h-258q-290 0 -443 160t-153 450v191q0 79 41.5 121t111.5 42q71 0 112.5 -43t41.5 -120v-168q0 -351 315 -351h232v519q0 77 41 120t112 43q70 0 111 -43t41 -120v-1155q0 -78 -41 -121t-111 -43q-71 0 -112 43t-41 121v354z" />
    <glyph glyph-name="afii10042" unicode="&#x428;" horiz-adv-x="2005" 
d="M1606 283v1024q0 77 41 120t112 43q70 0 112 -43t42 -120v-1155q0 -69 -44.5 -110.5t-109.5 -41.5h-1513q-66 0 -110 42t-44 110v1155q0 79 41.5 121t110.5 42q71 0 112 -43t41 -120v-1024h451v1024q0 77 41.5 120t111.5 43q72 0 113 -43t41 -120v-1024h451z" />
    <glyph glyph-name="afii10043" unicode="&#x429;" horiz-adv-x="2193" 
d="M1606 283v1024q0 77 41 120t112 43q70 0 112 -43t42 -120v-1024h94q72 0 113 -38t41 -104v-342q0 -73 -38 -114t-106 -41q-64 0 -102.5 41.5t-38.5 113.5v201h-1630q-66 0 -110 42t-44 110v1155q0 79 41.5 121t110.5 42q71 0 112 -43t41 -120v-1024h451v1024
q0 77 41.5 120t111.5 43q72 0 113 -43t41 -120v-1024h451z" />
    <glyph glyph-name="afii10044" unicode="&#x42a;" horiz-adv-x="1470" 
d="M348 1176h-213q-74 0 -117 38t-43 103q0 66 42 103.5t118 37.5h371q149 0 149 -143v-406h308q223 0 351 -125t128 -319q0 -201 -126.5 -333t-377.5 -132h-434q-66 0 -111 42.5t-45 111.5v1022zM655 627v-355h250q103 0 161 46.5t58 132.5q0 84 -56.5 130t-160.5 46h-252z
" />
    <glyph glyph-name="afii10045" unicode="&#x42b;" horiz-adv-x="1686" 
d="M1593 1307v-1155q0 -78 -41 -121t-112 -43t-112.5 43t-41.5 121v1155q0 77 41.5 120t112.5 43t112 -43t41 -120zM397 909h287q223 0 350 -124.5t127 -319.5q0 -210 -131.5 -337.5t-370.5 -127.5h-411q-67 0 -111.5 42t-44.5 112v1153q0 79 41.5 121t110.5 42
q71 0 112 -43t41 -120v-398zM397 627v-355h230q101 0 160 47t59 132t-57 130.5t-162 45.5h-230z" />
    <glyph glyph-name="afii10046" unicode="&#x42c;" horiz-adv-x="1214" 
d="M399 909h310q222 0 349.5 -125t127.5 -319q0 -210 -131.5 -337.5t-370.5 -127.5h-434q-68 0 -113 42.5t-45 111.5v1153q0 77 42 120t112 43q71 0 112 -43t41 -120v-398zM399 627v-355h252q101 0 159 47t58 132t-56 130.5t-161 45.5h-252z" />
    <glyph glyph-name="afii10047" unicode="&#x42d;" horiz-adv-x="1235" 
d="M858 874q-29 157 -121.5 238.5t-236.5 81.5q-108 0 -225 -55q-61 -29 -91 -29q-56 0 -94.5 43.5t-38.5 101.5q0 98 129 166t336 68q320 0 502 -204t182 -533q0 -365 -197 -574t-514 -209q-180 0 -320 67t-140 175q0 60 34 100.5t101 40.5q32 0 90 -26q112 -52 233 -52
q324 0 373 316h-473q-71 0 -112.5 38.5t-41.5 104.5q0 65 41.5 103t112.5 38h471z" />
    <glyph glyph-name="afii10048" unicode="&#x42e;" horiz-adv-x="2019" 
d="M399 889h234q45 283 225.5 441.5t444.5 158.5q307 0 494.5 -209.5t187.5 -550.5t-187.5 -550.5t-494.5 -209.5q-273 0 -454.5 168.5t-219.5 468.5h-230v-454q0 -78 -41 -121t-112 -43q-70 0 -112 43.5t-42 120.5v1155q0 77 42 120t112 43q71 0 112 -43t41 -120v-418z
M1655 729q0 211 -93 343t-259 132q-167 0 -260 -132t-93 -343q0 -210 93 -342.5t260 -132.5q166 0 259 132.5t93 342.5z" />
    <glyph glyph-name="afii10049" unicode="&#x42f;" 
d="M1047 1298v-1151q0 -73 -42.5 -116t-111.5 -43t-111.5 43t-42.5 116v445h-4l-297 -360q-163 -198 -178 -211.5t-43.5 -23t-54.5 -9.5q-65 0 -109.5 47.5t-44.5 109.5q0 46 26 74l333 375q-164 22 -256.5 132.5t-92.5 279.5q0 212 133.5 332t376.5 120h361q75 0 116.5 -42
t41.5 -118zM739 813v363h-211q-87 0 -138.5 -48t-51.5 -133q0 -86 57 -134t162 -48h182z" />
    <glyph glyph-name="afii10065" unicode="&#x430;" horiz-adv-x="1176" 
d="M1092 909v-729q0 -55 -7.5 -94t-38.5 -68.5t-96 -29.5q-111 0 -141 125q-115 -138 -281 -138q-208 0 -347.5 161t-139.5 407q0 241 142 406t345 165q182 0 281 -135q7 55 48 89t93 34q65 0 103.5 -37.5t38.5 -155.5zM569 844q-107 0 -170 -88t-63 -213
q0 -124 63.5 -210.5t169.5 -86.5q103 0 165.5 87t62.5 210q0 124 -62 212.5t-166 88.5z" />
    <glyph glyph-name="afii10066" unicode="&#x431;" horiz-adv-x="1151" 
d="M385 952q111 101 283 101q198 0 320 -142t122 -376q0 -253 -146 -409.5t-384 -156.5q-255 0 -391 170t-136 477q0 201 37.5 348t107 243.5t157 146.5t171 65.5t244.5 40.5q29 5 75 18q47 13 66 13q60 0 93.5 -42.5t33.5 -98.5q0 -81 -59.5 -111t-204.5 -46
q-132 -14 -202.5 -34.5t-123.5 -69t-69 -137.5h6zM813 518q0 123 -61.5 199t-167.5 76q-108 0 -171 -75t-63 -200q0 -119 63 -197.5t169 -78.5q105 0 168 78.5t63 197.5z" />
    <glyph glyph-name="afii10067" unicode="&#x432;" horiz-adv-x="1087" 
d="M84 154v794q0 71 45 112.5t111 41.5h376q174 0 269.5 -74t95.5 -203q0 -170 -164 -231v-2q116 -19 177 -90.5t61 -173.5q0 -328 -486 -328h-329q-68 0 -112 42t-44 112zM379 856v-188h184q133 0 133 96q0 92 -121 92h-196zM379 453v-207h233q148 0 148 100
q0 107 -150 107h-231z" />
    <glyph glyph-name="afii10068" unicode="&#x433;" horiz-adv-x="754" 
d="M377 817v-674q0 -67 -41.5 -111t-106.5 -44q-63 0 -105 44.5t-42 110.5v811q0 136 154 136h395q155 0 155 -138q0 -135 -155 -135h-254z" />
    <glyph glyph-name="afii10069" unicode="&#x434;" horiz-adv-x="1370" 
d="M1081 0h-802v-190q0 -73 -34 -112.5t-95 -39.5t-96.5 40.5t-35.5 111.5v321q0 65 37.5 103t102.5 38h12q49 64 77 226l81 454q24 138 159 138h517q155 0 155 -138v-680h47q65 0 102.5 -37.5t37.5 -103.5v-321q0 -72 -35 -112t-97 -40q-61 0 -97 40.5t-36 111.5v190z
M598 817q-65 -374 -78 -429.5t-43 -115.5h385v545h-264z" />
    <glyph glyph-name="afii10070" unicode="&#x435;" horiz-adv-x="1100" 
d="M950 446h-628q15 -102 91 -157.5t187 -55.5q88 0 221 74q80 45 113 45q47 0 84 -39.5t37 -87.5q0 -90 -155 -170t-327 -80q-244 0 -398.5 160t-154.5 408q0 233 152.5 402t376.5 169q222 0 376 -167.5t154 -368.5q0 -132 -129 -132zM315 643h469q-14 106 -77 165.5
t-158 59.5q-91 0 -156 -61.5t-78 -163.5z" />
    <glyph glyph-name="afii10072" unicode="&#x436;" horiz-adv-x="1534" 
d="M915 692l328 333q41 42 74 59.5t69 17.5q63 0 102.5 -38t39.5 -95q0 -62 -75 -133l-257 -242q308 -363 333 -396t25 -83q0 -52 -40 -89.5t-99 -37.5q-34 0 -57.5 7t-45 24t-73.5 79l-324 387v-342q0 -66 -41.5 -110.5t-105.5 -44.5q-65 0 -106 44t-41 111v342
q-338 -403 -380.5 -450t-121.5 -47q-58 0 -97.5 37.5t-39.5 89.5q0 58 45 112l313 367q-266 247 -300 284.5t-34 90.5q0 56 39 94.5t102 38.5q66 0 141 -75l333 -337v256q0 67 41 111.5t106 44.5q64 0 105.5 -44.5t41.5 -111.5v-254z" />
    <glyph glyph-name="afii10073" unicode="&#x437;" horiz-adv-x="950" 
d="M692 571q219 -66 219 -266q0 -144 -129 -240t-352 -96q-166 0 -286.5 66.5t-120.5 148.5q0 61 35 98t87 37q44 0 120 -41q104 -57 188 -57q80 0 122.5 27.5t42.5 75.5q0 42 -30 68t-147 36q-127 10 -161 42t-34 83t39.5 82.5t111.5 34.5q185 10 185 102q0 98 -129 98
q-64 0 -165 -51q-65 -33 -91 -33q-56 0 -90.5 32t-34.5 85q0 98 123 157.5t288 59.5q172 0 280.5 -86.5t108.5 -222.5q0 -84 -48 -147t-132 -93z" />
    <glyph glyph-name="afii10074" unicode="&#x438;" horiz-adv-x="1161" 
d="M782 143v484l-268 -371q-123 -171 -149.5 -201.5t-60 -48.5t-79.5 -18q-66 0 -103.5 41.5t-37.5 113.5v805q0 67 42 111.5t105 44.5q65 0 106.5 -44.5t41.5 -111.5v-502l390 548q41 58 80 84t95 26q58 0 95.5 -43.5t37.5 -112.5v-805q0 -67 -41.5 -111t-105.5 -44
q-65 0 -106.5 44t-41.5 111z" />
    <glyph glyph-name="afii10075" unicode="&#x439;" horiz-adv-x="1161" 
d="M596 1223q-123 0 -220 57.5t-97 155.5q0 53 24 88t68 35q42 0 65 -17.5t47 -52.5q25 -35 48 -52.5t65 -17.5q24 0 46.5 11t54.5 54q36 49 65 62t59 13q37 0 64.5 -39.5t27.5 -83.5q0 -101 -103 -157t-214 -56zM782 143v484l-268 -371q-123 -171 -149.5 -201.5t-60 -48.5
t-79.5 -18q-66 0 -103.5 41.5t-37.5 113.5v805q0 67 42 111.5t105 44.5q65 0 106.5 -44.5t41.5 -111.5v-502l390 548q41 58 80 84t95 26q58 0 95.5 -43.5t37.5 -112.5v-805q0 -67 -41.5 -111t-105.5 -44q-65 0 -106.5 44t-41.5 111z" />
    <glyph glyph-name="afii10076" unicode="&#x43a;" horiz-adv-x="997" 
d="M379 692l339 342q28 28 64 48t70 20q62 0 101.5 -38t39.5 -95q0 -63 -76 -135l-258 -240q300 -351 329.5 -390t29.5 -89q0 -52 -39.5 -89.5t-97.5 -37.5q-61 0 -90.5 21t-55.5 53l-356 427v-346q0 -67 -41 -111t-107 -44q-63 0 -105 44.5t-42 110.5v803q0 67 42 111.5
t105 44.5q65 0 106.5 -44.5t41.5 -111.5v-254z" />
    <glyph glyph-name="afii10077" unicode="&#x43b;" horiz-adv-x="1176" 
d="M545 817l-73 -461q-14 -90 -45 -159.5t-77.5 -116t-108.5 -69.5t-139 -23q-45 0 -78.5 36.5t-33.5 94.5q0 42 14.5 66.5t56.5 39.5q55 22 83.5 68.5t50.5 173.5l79 483q12 72 50.5 106t111.5 34h500q156 0 156 -138v-809q0 -67 -41.5 -111t-106.5 -44q-64 0 -105.5 44
t-41.5 111v674h-252z" />
    <glyph glyph-name="afii10078" unicode="&#x43c;" horiz-adv-x="1483" 
d="M743 436l176 517q26 79 77 114t137 35q82 0 130 -48t62 -146l62 -418q49 -322 49 -361q0 -63 -40.5 -102t-109.5 -39q-57 0 -94.5 35t-46.5 102l-72 539h-4l-168 -528q-24 -76 -60.5 -112t-99.5 -36q-110 0 -151 118l-187 558h-4l-58 -514q-9 -84 -49 -123t-95 -39
q-69 0 -109.5 39t-40.5 102q0 36 60 425.5t65 407.5q21 70 73 105t128 35q68 0 122.5 -31.5t94.5 -159.5l149 -475h4z" />
    <glyph glyph-name="afii10079" unicode="&#x43d;" 
d="M379 444v-301q0 -67 -41 -111t-107 -44q-63 0 -105 44.5t-42 110.5v805q0 67 42 111.5t105 44.5q65 0 106.5 -44.5t41.5 -111.5v-258h381v258q0 67 42 111.5t105 44.5q65 0 106.5 -44.5t41.5 -111.5v-805q0 -67 -41.5 -111t-106.5 -44q-63 0 -105 44.5t-42 110.5v301
h-381z" />
    <glyph glyph-name="afii10080" unicode="&#x43e;" 
d="M41 543q0 233 152.5 402t375.5 169q224 0 376.5 -169t152.5 -402q0 -239 -150 -403.5t-379 -164.5t-378.5 164.5t-149.5 403.5zM803 543q0 125 -63.5 213t-170.5 88t-170 -88t-63 -213q0 -124 63.5 -210.5t169.5 -86.5q107 0 170.5 86.5t63.5 210.5z" />
    <glyph glyph-name="afii10081" unicode="&#x43f;" horiz-adv-x="1137" 
d="M379 817v-674q0 -67 -41 -111t-107 -44q-63 0 -105 44.5t-42 110.5v807q0 140 156 140h659q154 0 154 -136v-811q0 -67 -41.5 -111t-106.5 -44q-64 0 -105.5 44t-41.5 111v674h-379z" />
    <glyph glyph-name="afii10082" unicode="&#x440;" horiz-adv-x="1176" 
d="M84 -283v1221q0 73 41 118.5t106 45.5q119 0 148 -123q40 64 116.5 99.5t163.5 35.5q215 0 345.5 -170t130.5 -414q0 -223 -138.5 -389t-347.5 -166q-150 0 -270 103v-361q0 -72 -41.5 -117.5t-106.5 -45.5q-64 0 -105.5 45.5t-41.5 117.5zM610 844q-106 0 -168.5 -84
t-62.5 -207q0 -128 62.5 -217.5t168.5 -89.5q103 0 166.5 88.5t63.5 208.5q0 121 -63.5 211t-166.5 90z" />
    <glyph glyph-name="afii10083" unicode="&#x441;" horiz-adv-x="948" 
d="M569 1114q136 0 248.5 -49.5t112.5 -136.5q0 -52 -33 -97t-80 -45q-34 0 -102 26q-81 32 -131 32q-114 0 -181 -86t-67 -215q0 -121 69 -209t179 -88q43 0 146 39q59 22 73 22q51 0 89 -38.5t38 -90.5q0 -92 -118 -147.5t-243 -55.5q-229 0 -378.5 164.5t-149.5 403.5
q0 233 152.5 402t375.5 169z" />
    <glyph glyph-name="afii10084" unicode="&#x442;" horiz-adv-x="870" 
d="M291 817h-168q-156 0 -156 135q0 138 156 138h627q153 0 153 -138q0 -135 -153 -135h-164v-674q0 -67 -41 -111t-107 -44q-64 0 -105.5 44t-41.5 111v674z" />
    <glyph glyph-name="afii10085" unicode="&#x443;" horiz-adv-x="999" 
d="M342 94l-281 692q-59 147 -59 179q0 60 41.5 98.5t101.5 38.5q110 0 149 -104l200 -539h4l142 365q69 177 86 207t47 50.5t75 20.5q67 0 108 -41t41 -109q0 -41 -34 -125l-410 -987q-63 -153 -156.5 -223t-232.5 -70q-67 0 -103 34.5t-36 96.5q0 52 23 72.5t74 38.5
q52 19 86.5 42t64.5 96z" />
    <glyph glyph-name="afii10086" unicode="&#x444;" horiz-adv-x="1450" 
d="M872 1120q249 -17 393 -177t144 -398t-144.5 -398.5t-392.5 -177.5v-266q0 -67 -41 -111.5t-106 -44.5t-106 44.5t-41 111.5v266q-250 17 -393.5 177t-143.5 399q0 237 144 397.5t393 177.5v301q0 67 41 111.5t106 44.5t106 -44.5t41 -111.5v-301zM872 838v-586
q113 6 176.5 87.5t63.5 205.5t-63.5 206t-176.5 87zM578 838q-113 -6 -176.5 -88t-63.5 -205q0 -124 63.5 -205.5t176.5 -87.5v586z" />
    <glyph glyph-name="afii10087" unicode="&#x445;" horiz-adv-x="1024" 
d="M512 352q-245 -300 -259.5 -317.5t-39.5 -32t-68 -14.5q-64 0 -104.5 39.5t-40.5 103.5q0 55 49 109l291 331l-253 284q-22 25 -32 52.5t-10 50.5q0 58 47 101t105 43q62 0 104 -53l211 -263q208 260 221 275t37.5 28t56.5 13q58 0 105 -43.5t47 -100.5q0 -56 -55 -117
l-240 -270l199 -226q106 -121 115 -133.5t17.5 -36.5t8.5 -44q0 -64 -40.5 -103.5t-104.5 -39.5q-69 0 -109 48z" />
    <glyph glyph-name="afii10088" unicode="&#x446;" horiz-adv-x="1266" 
d="M977 0h-739q-154 0 -154 135v811q0 67 42 111.5t105 44.5q65 0 106.5 -44.5t41.5 -111.5v-674h379v674q0 67 41 111.5t106 44.5t106.5 -44.5t41.5 -111.5v-674h47q65 0 103 -37t38 -102v-323q0 -72 -35.5 -112t-97.5 -40t-96.5 40t-34.5 112v190z" />
    <glyph glyph-name="afii10089" unicode="&#x447;" horiz-adv-x="1067" 
d="M688 344h-172q-216 0 -339.5 121.5t-123.5 347.5v133q0 67 41 111.5t107 44.5q64 0 105.5 -44.5t41.5 -111.5v-100q0 -139 55 -195.5t160 -56.5h125v352q0 67 41.5 111.5t106.5 44.5q64 0 105.5 -44.5t41.5 -111.5v-803q0 -67 -41.5 -111t-105.5 -44q-65 0 -106.5 44
t-41.5 111v201z" />
    <glyph glyph-name="afii10090" unicode="&#x448;" horiz-adv-x="1733" 
d="M1354 272v674q0 67 41.5 111.5t105.5 44.5q65 0 106.5 -44.5t41.5 -111.5v-799q0 -63 -42 -105t-118 -42h-1251q-154 0 -154 135v811q0 67 42 111.5t105 44.5q65 0 106.5 -44.5t41.5 -111.5v-674h340v674q0 67 41.5 111.5t105.5 44.5q65 0 106.5 -44.5t41.5 -111.5v-674
h340z" />
    <glyph glyph-name="afii10091" unicode="&#x449;" horiz-adv-x="1862" 
d="M1354 272v674q0 67 41.5 111.5t105.5 44.5q65 0 106.5 -44.5t41.5 -111.5v-674h47q66 0 103.5 -35t37.5 -98v-329q0 -72 -35.5 -112t-97.5 -40q-60 0 -95.5 40.5t-35.5 111.5v190h-1335q-154 0 -154 135v811q0 67 42 111.5t105 44.5q65 0 106.5 -44.5t41.5 -111.5v-674
h340v674q0 67 41.5 111.5t105.5 44.5q65 0 106.5 -44.5t41.5 -111.5v-674h340z" />
    <glyph glyph-name="afii10092" unicode="&#x44a;" horiz-adv-x="1286" 
d="M291 817h-168q-156 0 -156 135q0 138 156 138h311q152 0 152 -136v-245h284q184 0 288 -97t104 -250q0 -112 -55 -194.5t-163.5 -125t-267.5 -42.5h-330q-67 0 -111 42t-44 112v663zM586 471v-223h233q70 0 109 31t39 81q0 111 -148 111h-233z" />
    <glyph glyph-name="afii10093" unicode="&#x44b;" horiz-adv-x="1520" 
d="M1436 946v-803q0 -67 -41.5 -111t-106.5 -44q-64 0 -105.5 44t-41.5 111v803q0 67 41 111.5t106 44.5t106.5 -44.5t41.5 -111.5zM379 709h266q182 0 285.5 -97t103.5 -250q0 -172 -123 -267t-362 -95h-309q-68 0 -112 42t-44 112v792q0 67 42 111.5t105 44.5
q65 0 106.5 -44.5t41.5 -111.5v-237zM379 471v-223h213q70 0 108.5 31t38.5 81q0 111 -147 111h-213z" />
    <glyph glyph-name="afii10094" unicode="&#x44c;" horiz-adv-x="1079" 
d="M379 709h287q182 0 285.5 -97t103.5 -250q0 -172 -123 -267t-363 -95h-329q-68 0 -112 42t-44 112v792q0 67 42 111.5t105 44.5q65 0 106.5 -44.5t41.5 -111.5v-237zM379 471v-223h233q71 0 109.5 31t38.5 81q0 111 -148 111h-233z" />
    <glyph glyph-name="afii10095" unicode="&#x44d;" horiz-adv-x="979" 
d="M627 664q-40 186 -234 186q-70 0 -152 -31q-52 -20 -81 -20q-54 0 -88.5 36.5t-34.5 94.5q0 78 103.5 134t277.5 56q244 0 382 -151.5t138 -399.5q0 -279 -155.5 -439.5t-395.5 -160.5q-164 0 -266.5 58.5t-102.5 142.5q0 48 36 84.5t85 36.5q18 0 65 -18
q100 -37 179 -37q96 0 162 48t82 136h-303q-154 0 -154 123q0 121 156 121h301z" />
    <glyph glyph-name="afii10096" unicode="&#x44e;" horiz-adv-x="1561" 
d="M514 690q44 200 178.5 315t319.5 115q223 0 365.5 -164.5t142.5 -410.5q0 -248 -142.5 -412t-365.5 -164q-197 0 -334.5 128t-171.5 347h-127v-301q0 -67 -41 -111t-107 -44q-63 0 -105 44.5t-42 110.5v805q0 67 42 111.5t105 44.5q65 0 106.5 -44.5t41.5 -111.5v-258
h135zM1010 252q98 0 155.5 81.5t57.5 211.5q0 128 -57.5 210.5t-155.5 82.5q-97 0 -155 -83t-58 -210q0 -129 57.5 -211t155.5 -82z" />
    <glyph glyph-name="afii10097" unicode="&#x44f;" horiz-adv-x="1065" 
d="M686 420l-364 -359q-40 -39 -75 -56t-75 -17q-64 0 -101.5 38.5t-37.5 86.5q0 68 43 107l284 249h-28q-129 0 -212 78.5t-83 206.5q0 168 122 258t361 90h305q67 0 111.5 -42t44.5 -112v-807q0 -64 -41 -108.5t-106 -44.5t-106.5 43t-41.5 110v279zM686 647v207h-209
q-145 0 -145 -102q0 -105 145 -105h209z" />
    <glyph glyph-name="afii10071" unicode="&#x451;" horiz-adv-x="1100" 
d="M950 446h-628q15 -102 91 -157.5t187 -55.5q88 0 221 74q80 45 113 45q47 0 84 -39.5t37 -87.5q0 -90 -155 -170t-327 -80q-244 0 -398.5 160t-154.5 408q0 233 152.5 402t376.5 169q222 0 376 -167.5t154 -368.5q0 -132 -129 -132zM315 643h469q-14 106 -77 165.5
t-158 59.5q-91 0 -156 -61.5t-78 -163.5zM777 1235q-62 0 -105 43t-43 104q0 62 43 105t105 43q61 0 104 -43t43 -105q0 -61 -43 -104t-104 -43zM326 1235q-61 0 -104 43t-43 104q0 62 43 105t104 43t104.5 -43t43.5 -105q0 -61 -43.5 -104t-104.5 -43z" />
    <glyph glyph-name="afii10099" unicode="&#x452;" horiz-adv-x="1157" 
d="M401 1130v-188h5q122 88 272 88q180 0 287.5 -99t107.5 -278v-653q0 -220 -118.5 -340.5t-307.5 -120.5q-137 0 -137 129q0 99 88 113q180 30 180 223v576q0 89 -51.5 144.5t-136.5 55.5t-137 -57.5t-52 -149.5v-430q0 -66 -42 -110.5t-105 -44.5q-65 0 -106.5 44
t-41.5 111v987h-47q-61 0 -97 33.5t-36 91.5q0 59 36 92t97 33h47v41q0 67 41.5 111.5t106.5 44.5q63 0 105 -44.5t42 -111.5v-41h320q61 0 97 -33t36 -92q0 -58 -36 -91.5t-97 -33.5h-320z" />
    <glyph glyph-name="afii10100" unicode="&#x453;" horiz-adv-x="754" 
d="M377 817v-674q0 -67 -41.5 -111t-106.5 -44q-63 0 -105 44.5t-42 110.5v811q0 136 154 136h395q155 0 155 -138q0 -135 -155 -135h-254zM473 1544q73 29 90.5 34t33.5 5q43 0 76.5 -41t33.5 -86q0 -35 -12.5 -61t-33 -39.5t-155 -66t-150.5 -58.5t-44 -6q-43 0 -76 46
t-33 103q0 25 17 47.5t41 34.5z" />
    <glyph glyph-name="afii10101" unicode="&#x454;" horiz-adv-x="971" 
d="M352 664h303q156 0 156 -121q0 -123 -156 -123h-303q17 -88 78.5 -136t147.5 -48t188 36q46 17 63 17q50 0 85.5 -36.5t35.5 -84.5q0 -82 -109.5 -140.5t-277.5 -58.5q-235 0 -378.5 158t-143.5 418q0 258 152.5 416.5t402.5 158.5q161 0 258.5 -56t97.5 -134
q0 -58 -34.5 -94.5t-90.5 -36.5q-28 0 -81 20q-82 31 -152 31q-93 0 -157.5 -48t-84.5 -138z" />
    <glyph glyph-name="afii10102" unicode="&#x455;" horiz-adv-x="872" 
d="M457 1114q137 0 252.5 -59.5t115.5 -153.5q0 -52 -35 -91.5t-85 -39.5q-24 0 -98 34q-112 52 -167 52q-45 0 -72.5 -21.5t-27.5 -60.5q0 -26 27.5 -50t145.5 -69q104 -39 171.5 -75t117.5 -100t50 -158q0 -150 -117 -248.5t-303 -98.5q-142 0 -277 69t-135 159
q0 42 37 86.5t90 44.5q55 0 137 -47q96 -54 169 -54q61 0 88.5 19t27.5 65q0 26 -27 49.5t-144 67.5q-104 40 -172 76t-118.5 100t-50.5 160q0 153 112 248.5t288 95.5z" />
    <glyph glyph-name="afii10103" unicode="&#x456;" horiz-adv-x="455" 
d="M61 1382q0 63 50.5 112.5t115.5 49.5q66 0 116 -49t50 -113q0 -69 -48.5 -119.5t-117.5 -50.5q-65 0 -115.5 51.5t-50.5 118.5zM80 152v786q0 73 41 118.5t106 45.5t106.5 -45.5t41.5 -118.5v-786q0 -73 -41.5 -118.5t-106.5 -45.5t-106 45.5t-41 118.5z" />
    <glyph glyph-name="afii10104" unicode="&#x457;" horiz-adv-x="455" 
d="M80 152v786q0 73 41 118.5t106 45.5t106.5 -45.5t41.5 -118.5v-786q0 -73 -41.5 -118.5t-106.5 -45.5t-106 45.5t-41 118.5zM453 1235q-62 0 -105 43t-43 104q0 62 43 105t105 43q61 0 104 -43t43 -105q0 -61 -43 -104t-104 -43zM2 1235q-61 0 -104 43t-43 104
q0 62 43 105t104 43t104.5 -43t43.5 -105q0 -61 -43.5 -104t-104.5 -43z" />
    <glyph glyph-name="afii10105" unicode="&#x458;" horiz-adv-x="455" 
d="M61 1382q0 63 50.5 112.5t115.5 49.5q66 0 116 -49t50 -113q0 -69 -48.5 -119.5t-117.5 -50.5q-65 0 -115.5 51.5t-50.5 118.5zM80 -283v1221q0 73 41 118.5t106 45.5t106.5 -45.5t41.5 -118.5v-1221q0 -72 -41.5 -117.5t-106.5 -45.5t-106 45.5t-41 117.5z" />
    <glyph glyph-name="afii10106" unicode="&#x459;" horiz-adv-x="1792" 
d="M543 817l-73 -461q-14 -90 -44.5 -159.5t-77 -116t-108 -69.5t-138.5 -23q-45 0 -78.5 36.5t-33.5 94.5q0 42 14.5 66.5t56.5 39.5q99 39 121 171l90 556q21 138 162 138h502q156 0 156 -138v-243h284q184 0 287.5 -97t103.5 -250q0 -171 -123 -266.5t-362 -95.5h-330
q-67 0 -111 42t-44 112v663h-254zM1092 471v-223h233q70 0 109 31t39 81q0 111 -148 111h-233z" />
    <glyph glyph-name="afii10107" unicode="&#x45a;" horiz-adv-x="1755" 
d="M760 709v239q0 67 42 111.5t105 44.5q65 0 107.5 -44.5t42.5 -111.5v-239h284q183 0 286.5 -96.5t103.5 -250.5q0 -172 -123 -267t-363 -95h-330q-66 0 -110.5 42.5t-44.5 111.5v317h-381v-328q0 -67 -41 -111t-107 -44q-63 0 -105 44.5t-42 110.5v805q0 67 42 111.5
t105 44.5q65 0 106.5 -44.5t41.5 -111.5v-239h381zM1057 471v-223h231q71 0 109.5 31t38.5 81q0 111 -148 111h-231z" />
    <glyph glyph-name="afii10108" unicode="&#x45b;" horiz-adv-x="1157" 
d="M401 1130v-188h5q122 88 272 88q180 0 287.5 -99t107.5 -278v-510q0 -67 -41.5 -111t-105.5 -44q-65 0 -106.5 44t-41.5 111v437q0 89 -51.5 144.5t-136.5 55.5t-137 -57.5t-52 -149.5v-430q0 -66 -42 -110.5t-105 -44.5q-65 0 -106.5 44t-41.5 111v987h-47
q-61 0 -97 33.5t-36 91.5q0 59 36 92t97 33h47v41q0 67 41.5 111.5t106.5 44.5q63 0 105 -44.5t42 -111.5v-41h320q61 0 97 -33t36 -92q0 -58 -36 -91.5t-97 -33.5h-320z" />
    <glyph glyph-name="afii10109" unicode="&#x45c;" horiz-adv-x="997" 
d="M379 692l339 342q28 28 64 48t70 20q62 0 101.5 -38t39.5 -95q0 -63 -76 -135l-258 -240q300 -351 329.5 -390t29.5 -89q0 -52 -39.5 -89.5t-97.5 -37.5q-61 0 -90.5 21t-55.5 53l-356 427v-346q0 -67 -41 -111t-107 -44q-63 0 -105 44.5t-42 110.5v803q0 67 42 111.5
t105 44.5q65 0 106.5 -44.5t41.5 -111.5v-254zM581 1544q73 29 90.5 34t33.5 5q43 0 76.5 -41t33.5 -86q0 -35 -12.5 -61t-33 -39.5t-155 -66t-150.5 -58.5t-44 -6q-43 0 -76 46t-33 103q0 25 17 47.5t41 34.5z" />
    <glyph glyph-name="afii10110" unicode="&#x45e;" horiz-adv-x="999" 
d="M502 1223q-123 0 -220.5 57.5t-97.5 155.5q0 53 24.5 88t67.5 35t66 -17.5t47 -52.5q25 -35 47.5 -52.5t65.5 -17.5q23 0 45.5 11t54.5 54q37 49 66 62t59 13q37 0 64.5 -39.5t27.5 -83.5q0 -95 -99.5 -154t-217.5 -59zM342 94l-281 692q-59 147 -59 179q0 60 41.5 98.5
t101.5 38.5q110 0 149 -104l200 -539h4l142 365q69 177 86 207t47 50.5t75 20.5q67 0 108 -41t41 -109q0 -41 -34 -125l-410 -987q-63 -153 -156.5 -223t-232.5 -70q-67 0 -103 34.5t-36 96.5q0 52 23 72.5t74 38.5q52 19 86.5 42t64.5 96z" />
    <glyph glyph-name="afii10193" unicode="&#x45f;" horiz-adv-x="1137" 
d="M758 272v674q0 67 41 111.5t106 44.5t106.5 -44.5t41.5 -111.5v-807q0 -139 -156 -139h-197v-190q0 -72 -34.5 -112t-96.5 -40q-61 0 -97 40.5t-36 111.5v190h-198q-154 0 -154 135v811q0 67 42 111.5t105 44.5q65 0 106.5 -44.5t41.5 -111.5v-674h379z" />
    <glyph glyph-name="afii10050" unicode="&#x490;" horiz-adv-x="895" 
d="M635 1458v201q0 73 38 114.5t105 41.5q65 0 103.5 -42t38.5 -114v-342q0 -66 -41 -103.5t-113 -37.5h-369v-1024q0 -78 -41 -121t-112 -43q-70 0 -111 43t-41 121v1153q0 68 44 110.5t108 42.5h391z" />
    <glyph glyph-name="afii10098" unicode="&#x491;" horiz-adv-x="754" 
d="M522 1090v190q0 72 35 112t96 40t97 -40.5t36 -111.5v-328q0 -135 -155 -135h-254v-674q0 -67 -41.5 -111t-106.5 -44q-63 0 -105 44.5t-42 110.5v811q0 136 154 136h286z" />
    <glyph glyph-name="endash" unicode="&#x2013;" horiz-adv-x="1024" 
d="M123 717h778q56 0 89.5 -33.5t33.5 -89.5t-33.5 -89.5t-89.5 -33.5h-778q-56 0 -89.5 33.5t-33.5 89.5t33 89.5t90 33.5z" />
    <glyph glyph-name="emdash" unicode="&#x2014;" horiz-adv-x="2048" 
d="M0 717h2048q56 0 89.5 -33.5t33.5 -89.5t-33.5 -89.5t-89.5 -33.5h-2048q-56 0 -89.5 33.5t-33.5 89.5t33.5 89.5t89.5 33.5z" />
    <glyph glyph-name="quoteleft" unicode="&#x2018;" horiz-adv-x="492" 
d="M473 1348q0 -35 -38 -103l-102 -182q-64 -114 -78 -130.5t-44 -30t-53 -13.5q-56 0 -98 40.5t-42 94.5q0 41 30 91l94 170q64 119 79.5 141t49 39.5t61.5 17.5q56 0 98.5 -40.5t42.5 -94.5z" />
    <glyph glyph-name="quoteright" unicode="&#x2019;" horiz-adv-x="492" 
d="M473 1348q0 -35 -38 -103l-102 -182q-64 -114 -78 -130.5t-44 -30t-53 -13.5q-56 0 -98 40.5t-42 94.5q0 41 30 91l94 170q64 119 79.5 141t49 39.5t61.5 17.5q56 0 98.5 -40.5t42.5 -94.5z" />
    <glyph glyph-name="quotesinglbase" unicode="&#x201a;" horiz-adv-x="492" 
d="M473 184q0 -35 -38 -103l-102 -182q-64 -114 -78 -130.5t-44 -29.5t-53 -13q-56 0 -98 40t-42 95q0 40 30 91l94 170q64 119 79.5 141t49 39t61.5 17q56 0 98.5 -40t42.5 -95z" />
    <glyph glyph-name="quotedblleft" unicode="&#x201c;" horiz-adv-x="909" 
d="M891 1348q0 -35 -38 -103l-102 -182q-64 -114 -78.5 -130.5t-44 -30t-53.5 -13.5q-55 0 -97 40.5t-42 94.5q0 41 30 91l94 170q64 119 79.5 141t49 39.5t61.5 17.5q55 0 98 -40.5t43 -94.5zM473 1348q0 -35 -38 -103l-102 -182q-64 -114 -78 -130.5t-44 -30t-53 -13.5
q-56 0 -98 40.5t-42 94.5q0 41 30 91l94 170q64 119 79.5 141t49 39.5t61.5 17.5q56 0 98.5 -40.5t42.5 -94.5z" />
    <glyph glyph-name="quotedblright" unicode="&#x201d;" horiz-adv-x="909" 
d="M891 1348q0 -35 -38 -103l-102 -182q-64 -114 -78.5 -130.5t-44 -30t-53.5 -13.5q-55 0 -97 40.5t-42 94.5q0 41 30 91l94 170q64 119 79.5 141t49 39.5t61.5 17.5q55 0 98 -40.5t43 -94.5zM473 1348q0 -35 -38 -103l-102 -182q-64 -114 -78 -130.5t-44 -30t-53 -13.5
q-56 0 -98 40.5t-42 94.5q0 41 30 91l94 170q64 119 79.5 141t49 39.5t61.5 17.5q56 0 98.5 -40.5t42.5 -94.5z" />
    <glyph glyph-name="quotedblbase" unicode="&#x201e;" horiz-adv-x="909" 
d="M891 184q0 -35 -38 -103l-102 -182q-64 -114 -78.5 -130.5t-44 -29.5t-53.5 -13q-55 0 -97 40t-42 95q0 40 30 91l94 170q64 119 79.5 141t49 39t61.5 17q55 0 98 -40t43 -95zM473 184q0 -35 -38 -103l-102 -182q-64 -114 -78 -130.5t-44 -29.5t-53 -13q-56 0 -98 40
t-42 95q0 40 30 91l94 170q64 119 79.5 141t49 39t61.5 17q56 0 98.5 -40t42.5 -95z" />
    <glyph glyph-name="dagger" unicode="&#x2020;" horiz-adv-x="1290" 
d="M504 -305v1075h-336q-53 0 -85 34.5t-32 94.5q0 61 32 95t85 34h336v313q0 67 38 104.5t103 37.5q66 0 103.5 -37.5t37.5 -104.5v-313h336q54 0 85.5 -34.5t31.5 -94.5t-31.5 -94.5t-85.5 -34.5h-336v-1075q0 -66 -37.5 -103.5t-103.5 -37.5t-103.5 37.5t-37.5 103.5z
" />
    <glyph glyph-name="daggerdbl" unicode="&#x2021;" horiz-adv-x="1290" 
d="M504 -305v317h-336q-53 0 -85 34.5t-32 94.5t32 94.5t85 34.5h336v500h-336q-53 0 -85 34.5t-32 94.5q0 61 32 95t85 34h336v313q0 67 38 104.5t103 37.5q66 0 103.5 -37.5t37.5 -104.5v-313h336q54 0 85.5 -34.5t31.5 -94.5t-31.5 -94.5t-85.5 -34.5h-336v-500h336
q54 0 85.5 -34.5t31.5 -94.5t-32 -94.5t-85 -34.5h-336v-317q0 -66 -37.5 -103.5t-103.5 -37.5t-103.5 37.5t-37.5 103.5z" />
    <glyph glyph-name="bullet" unicode="&#x2022;" horiz-adv-x="1024" 
d="M512 365q-150 0 -257.5 107t-107.5 257t107.5 257.5t257.5 107.5t257.5 -107.5t107.5 -257.5t-107 -257t-258 -107z" />
    <glyph glyph-name="ellipsis" unicode="&#x2026;" horiz-adv-x="2048" 
d="M342 -25q-66 0 -113 47t-47 113t47 113t113 47t113 -47t47 -113t-47 -113t-113 -47zM1024 -25q-66 0 -113 47t-47 113t47 113t113 47t113 -47t47 -113t-47 -113t-113 -47zM1706 -25q-66 0 -113 47t-47 113t47 113t113 47t113 -47t47 -113t-47 -113t-113 -47z" />
    <glyph glyph-name="perthousand" unicode="&#x2030;" horiz-adv-x="2200" 
d="M305 152l678 1278q20 38 39 51.5t55 13.5q48 0 84.5 -34t36.5 -81q0 -30 -16 -61l-688 -1288q-33 -46 -52 -57t-41 -11q-41 0 -78.5 34.5t-37.5 78.5q0 37 20 76zM694 1151q0 -136 -90 -233t-225 -97q-133 0 -224.5 97t-91.5 233t91.5 234t224.5 98t224 -98t91 -234z
M272 1151q0 -52 29.5 -86.5t77.5 -34.5t77 34.5t29 86.5t-29.5 87.5t-76.5 35.5q-48 0 -77.5 -35.5t-29.5 -87.5zM2136 305q0 -136 -91 -233t-224 -97t-224.5 97t-91.5 233q0 137 91.5 234.5t224.5 97.5q132 0 223.5 -97.5t91.5 -234.5zM1714 305q0 -52 29.5 -86.5
t77.5 -34.5q47 0 76.5 34.5t29.5 86.5q0 53 -29.5 88t-76.5 35q-48 0 -77.5 -35t-29.5 -88zM1415 305q0 -136 -91 -233t-224 -97t-224.5 97t-91.5 233q0 137 91.5 234.5t224.5 97.5t224 -97.5t91 -234.5zM993 305q0 -52 29.5 -86.5t77.5 -34.5t77 34.5t29 86.5
q0 53 -29.5 88t-76.5 35q-48 0 -77.5 -35t-29.5 -88z" />
    <glyph glyph-name="guilsinglleft" unicode="&#x2039;" horiz-adv-x="606" 
d="M346 575l127 -191q48 -72 52.5 -88.5t4.5 -33.5q0 -55 -34.5 -92t-87.5 -37q-38 0 -68 18.5t-45.5 48.5t-108.5 168.5t-101.5 160.5t-8.5 55q0 24 15.5 58.5t102 153.5t113.5 160.5t52.5 49.5t52.5 8q52 0 85 -33t33 -80q0 -43 -22 -78z" />
    <glyph glyph-name="guilsinglright" unicode="&#x203a;" horiz-adv-x="606" 
d="M98 324l162 247l-127 192q-48 72 -52.5 88.5t-4.5 33.5q0 55 34.5 92t88.5 37q38 0 67.5 -18.5t45.5 -48.5t108.5 -168.5t101 -160.5t8.5 -55q0 -25 -15.5 -59t-102 -153t-113 -160.5t-52 -49.5t-52.5 -8q-53 0 -86 33t-33 80q0 43 22 78z" />
    <glyph glyph-name="fraction" unicode="&#x2044;" horiz-adv-x="340" 
d="M-266 152l678 1278q20 38 39 51.5t55 13.5q48 0 84.5 -34t36.5 -81q0 -30 -17 -61l-688 -1288q-33 -46 -52 -57t-40 -11q-42 0 -79.5 34.5t-37.5 78.5q0 37 21 76z" />
    <glyph glyph-name="fraction" unicode="&#x2215;" horiz-adv-x="340" 
d="M-266 152l678 1278q20 38 39 51.5t55 13.5q48 0 84.5 -34t36.5 -81q0 -30 -17 -61l-688 -1288q-33 -46 -52 -57t-40 -11q-42 0 -79.5 34.5t-37.5 78.5q0 37 21 76z" />
    <glyph glyph-name="Euro" unicode="&#x20ac;" horiz-adv-x="1212" 
d="M535 692h280q40 0 69 -24.5t29 -61.5q0 -36 -29 -61t-69 -25h-264q52 -266 254 -266q68 0 104.5 14t70.5 40q42 32 79 32q56 0 95.5 -40.5t39.5 -96.5q0 -111 -109 -169.5t-278 -58.5q-227 0 -378 141.5t-198 403.5h-94q-40 0 -69 25t-29 61q0 38 29.5 62t68.5 24h78v37
q0 42 2 62h-80q-40 0 -69 24.5t-29 61.5q0 36 29 61t69 25h101q52 249 202 384.5t365 135.5q160 0 266.5 -54.5t106.5 -158.5q0 -55 -41 -96t-88 -41q-36 0 -91 29q-79 42 -153 42q-195 0 -250 -241h260q40 0 69 -25t29 -61q0 -38 -29 -62t-69 -24h-278q-2 -24 -2 -68v-31z
" />
    <glyph glyph-name="afii61352" unicode="&#x2116;" horiz-adv-x="2372" 
d="M1454 1034q0 185 118 312t308 127q185 0 304.5 -126.5t119.5 -312.5q0 -187 -119.5 -313.5t-304.5 -126.5q-187 0 -306.5 126t-119.5 314zM2052 1034q0 94 -47 154.5t-125 60.5q-79 0 -126.5 -61t-47.5 -154q0 -94 47.5 -155.5t126.5 -61.5q78 0 125 61t47 156z
M1305 1307v-1155q0 -78 -41.5 -121t-112.5 -43q-56 0 -93.5 25t-117.5 137l-539 751h-4v-749q0 -78 -41 -121t-112 -43q-70 0 -111 43t-41 121v1155q0 77 42 120t112 43q58 0 99.5 -32t111.5 -129l538 -750h4v748q0 79 42 121t110 42q71 0 112.5 -43t41.5 -120zM1587 459
h574q62 0 98.5 -34t36.5 -91q0 -59 -36.5 -93t-98.5 -34h-574q-61 0 -97 34t-36 93q0 58 36.5 91.5t96.5 33.5z" />
    <glyph glyph-name="trademark" unicode="&#x2122;" horiz-adv-x="2048" 
d="M958 737v606q0 127 175 127q63 0 103.5 -20t70.5 -88l153 -391l103 262q53 137 68.5 164t40 45t51.5 23t65 5q174 0 174 -127v-606q0 -60 -24 -91.5t-87 -31.5q-56 0 -83 28.5t-27 94.5v426h-4q-149 -431 -161 -463.5t-37 -59t-79 -26.5q-85 0 -114 82l-162 467h-4v-426
q0 -66 -27 -94.5t-84 -28.5t-84 28.5t-27 94.5zM340 737v537h-162q-42 0 -67 24.5t-25 67.5q0 44 25 68t67 24h570q42 0 67 -24t25 -68q0 -43 -25 -67.5t-67 -24.5h-162v-537q0 -55 -33.5 -89t-89.5 -34t-89.5 34t-33.5 89z" />
    <glyph glyph-name="Ohm" unicode="&#x2126;" horiz-adv-x="1573" 
d="M496 160q-346 214 -346 643q0 307 177 503.5t482 196.5q292 0 468.5 -196.5t176.5 -505.5q0 -414 -344 -641l365 6v-166h-576v176q169 86 258.5 244t89.5 356q0 248 -117 405.5t-325 157.5q-209 0 -326 -155.5t-117 -403.5q0 -208 87.5 -366t255.5 -234v-180h-578v168z
" />
    <glyph glyph-name="partialdiff" unicode="&#x2202;" horiz-adv-x="1012" 
d="M426 1139l-135 59q136 293 360 293q159 0 240.5 -150t81.5 -415q0 -273 -82 -500.5t-231.5 -339t-294.5 -111.5t-227.5 95t-82.5 252q0 282 211 437.5t592 164.5q-4 243 -55.5 341.5t-149.5 98.5q-143 0 -227 -225zM854 797q-250 -13 -367.5 -75.5t-184 -181.5
t-66.5 -237q0 -76 48.5 -133t121.5 -57q133 0 270 157.5t178 526.5z" />
    <glyph glyph-name="increment" unicode="&#x2206;" horiz-adv-x="1253" 
d="M1227 0h-1200l628 1386zM991 82l-399 967l-440 -967h839z" />
    <glyph glyph-name="product" unicode="&#x220f;" horiz-adv-x="1686" 
d="M162 1491h1362v-1921h-193v1747h-977v-1747h-192v1921z" />
    <glyph glyph-name="summation" unicode="&#x2211;" horiz-adv-x="1460" 
d="M139 1491h1237v-164h-989l608 -774l-649 -823h1040v-160h-1263v186l618 789l-602 772v174z" />
    <glyph glyph-name="minus" unicode="&#x2212;" horiz-adv-x="1229" 
d="M195 641h839q56 0 89.5 -33.5t33.5 -89.5t-33.5 -89.5t-89.5 -33.5h-839q-57 0 -90 33.5t-33 89.5t33 89.5t90 33.5z" />
    <glyph glyph-name="periodcentered" unicode="&#x2219;" horiz-adv-x="549" 
d="M115 575q0 66 47 113t112 47q66 0 113 -47.5t47 -112.5q0 -67 -46.5 -113t-113.5 -46q-65 0 -112 47t-47 112z" />
    <glyph glyph-name="radical" unicode="&#x221a;" horiz-adv-x="1124" 
d="M1124 1870l-311 -1948l-496 1022l-198 -92l-35 63l301 152l403 -823h5l258 1626h73z" />
    <glyph glyph-name="infinity" unicode="&#x221e;" horiz-adv-x="1460" 
d="M688 811q104 135 179 184t155 49q133 0 211 -89t78 -232q0 -190 -94.5 -263t-194.5 -73q-80 0 -155 49t-179 185q-134 -172 -289 -172q-104 0 -174.5 79t-70.5 189q0 108 70.5 187t174.5 79q155 0 289 -172zM758 717q137 -217 262 -217q83 0 130.5 59.5t47.5 153.5
q0 98 -48 158.5t-134 60.5q-101 0 -258 -215zM621 717q-122 155 -222 155q-61 0 -98 -43.5t-37 -109.5t38 -111t99 -45q104 0 220 154z" />
    <glyph glyph-name="integral" unicode="&#x222b;" horiz-adv-x="561" 
d="M201 895l16 561q3 112 28 208.5t73 148t116 51.5q48 0 87.5 -32t39.5 -77q0 -43 -26.5 -72.5t-67.5 -29.5q-33 0 -74 33q-27 22 -41 22q-41 0 -41 -63q0 -28 11 -146q36 -376 36 -633q0 -137 -7.5 -340.5t-9 -306t-22.5 -210t-71.5 -168t-128.5 -60.5q-53 0 -86 33.5
t-33 87.5q0 42 24 70t66 28q38 0 74 -37q26 -26 45 -26q39 0 39 61q0 21 -10 119q-37 313 -37 739v39z" />
    <glyph glyph-name="approxequal" unicode="&#x2248;" horiz-adv-x="1124" 
d="M51 737v205q104 121 279 121q98 0 268 -72q145 -61 217 -61q133 0 258 137v-213q-119 -115 -276 -115q-96 0 -257 71q-148 64 -229 64q-124 0 -260 -137zM51 377v205q105 118 279 118q100 0 276 -73q142 -60 209 -60q133 0 258 138v-213q-117 -113 -276 -113
q-96 0 -257 69q-148 64 -229 64q-123 0 -260 -135z" />
    <glyph glyph-name="notequal" unicode="&#x2260;" horiz-adv-x="1124" 
d="M496 418l-195 -447h-135l194 447h-282v168h356l121 276h-477v168h551l196 445h133l-194 -445h283v-168h-357l-121 -276h478v-168h-551z" />
    <glyph glyph-name="lessequal" unicode="&#x2264;" horiz-adv-x="1124" 
d="M78 762v168l971 409v-180l-770 -313l770 -320v-180zM1047 106h-969v166h969v-166z" />
    <glyph glyph-name="greaterequal" unicode="&#x2265;" horiz-adv-x="1124" 
d="M1049 762l-971 -416v180l768 320l-768 313v180l971 -409v-168zM1047 106h-969v166h969v-166z" />
    <glyph glyph-name="lozenge" unicode="&#x25ca;" horiz-adv-x="1012" 
d="M549 1421l418 -712l-418 -709h-111l-391 709l391 712h111zM496 1325l-340 -616l340 -615l358 615z" />
    <glyph glyph-name="apple" unicode="&#xf000;" horiz-adv-x="1024" 
d="M512 365q-150 0 -257.5 107t-107.5 257t107.5 257.5t257.5 107.5t257.5 -107.5t107.5 -257.5t-107 -257t-258 -107z" />
    <glyph glyph-name="pi1" unicode="&#xf006;" horiz-adv-x="1413" 
d="M506 915v-915h-180v915h-281v148h1323v-148h-242v-915h-180v915h-440z" />
    <glyph glyph-name="dotlessj" unicode="&#xf6be;" horiz-adv-x="455" 
d="M80 938q0 73 41.5 118.5t105.5 45.5t106 -45.5t42 -118.5v-1221q0 -72 -41 -117.5t-107 -45.5q-65 0 -106 44.5t-41 118.5v1221z" />
    <glyph glyph-name="commaaccent" unicode="&#xf6c3;" horiz-adv-x="492" 
d="M309 -442q-29 -64 -102 -64q-48 0 -83.5 27.5t-35.5 72.5q0 29 14 64l70 168q30 72 102 72q52 0 89.5 -28t37.5 -73q0 -39 -14 -65z" />
    <glyph glyph-name="fi" unicode="&#xfb01;" horiz-adv-x="1063" 
d="M152 152v679h-66q-60 0 -94.5 35t-34.5 95q0 55 37 92t92 37h66v151q0 159 85 247.5t224 88.5q79 0 129.5 -34.5t50.5 -98.5q0 -125 -109 -125q-46 0 -66 -17.5t-20 -91.5v-120h72q144 0 144 -129q0 -62 -17 -89.5t-45 -34t-82 -6.5h-72v-679q0 -73 -41 -118.5
t-106 -45.5t-106 45.5t-41 118.5zM670 1382q0 64 50 113t116 49q65 0 115 -49t50 -113q0 -69 -48.5 -119.5t-116.5 -50.5q-66 0 -116 51.5t-50 118.5zM688 152v786q0 73 41.5 118.5t106.5 45.5q64 0 105.5 -45.5t41.5 -118.5v-786q0 -73 -41.5 -118.5t-105.5 -45.5
q-65 0 -106.5 45.5t-41.5 118.5z" />
    <glyph glyph-name="fl" unicode="&#xfb02;" horiz-adv-x="1063" 
d="M152 152v679h-66q-60 0 -94.5 35t-34.5 95q0 55 37 92t92 37h66v151q0 159 85 247.5t224 88.5q79 0 129.5 -34.5t50.5 -98.5q0 -125 -109 -125q-46 0 -66 -17.5t-20 -91.5v-120h72q144 0 144 -129q0 -62 -17 -89.5t-45 -34t-82 -6.5h-72v-679q0 -73 -41 -118.5
t-106 -45.5t-106 45.5t-41 118.5zM688 152v1261q0 73 41.5 118.5t106.5 45.5q64 0 105.5 -45.5t41.5 -118.5v-1261q0 -73 -41.5 -118.5t-105.5 -45.5q-65 0 -106.5 45.5t-41.5 118.5z" />
    <glyph glyph-name="caron.alt" horiz-adv-x="492" 
d="M326 1182q-33 -74 -105 -74q-55 0 -94 30.5t-39 78.5q0 29 16 67l95 217q35 80 106 80q53 0 95 -32t42 -81q0 -33 -16 -65z" />
    </font>
</defs>
</svg>
